<?xml version="1.0" encoding="utf-8"?>
<!-- Generator: Adobe Illustrator 24.0.0, SVG Export Plug-In . SVG Version: 6.00 Build 0)  -->
<svg version="1.1" id="_x2014_ÎÓÈ_x5F_1" xmlns="http://www.w3.org/2000/svg" xmlns:xlink="http://www.w3.org/1999/xlink"
	 x="0px" y="0px" viewBox="0 0 1114.2 679.7" style="enable-background:new 0 0 1114.2 679.7;" xml:space="preserve">
<style type="text/css">
	.st0{fill:#D1DCE5;}
	.st1{fill:#5D5D5D;}
	.st2{fill:#FFFFFF;}
	.st3{fill:#EC6250;}
	.st4{fill:none;}
	.st5{enable-background:new    ;}
	.st6{fill:#F26440;}
</style>
<g>
	<g>
		<path class="st0" d="M1022.5,673.3h-933c-43.6,0-79.3-35.7-79.3-79.3V89.6c0-43.6,35.7-79.3,79.3-79.3h933
			c43.6,0,79.3,35.7,79.3,79.3V594C1101.7,637.6,1066.1,673.3,1022.5,673.3z"/>
	</g>
	<g>
		<g>
			<rect x="10.2" y="100.4" class="st1" width="1091.6" height="137.2"/>
		</g>
	</g>
	<g>
		<rect x="94.5" y="261.5" class="st2" width="923.7" height="226.5"/>
	</g>
	<g>
		<g>
			<path class="st3" d="M966,467.6H689.6V283.3H966V467.6z M706.7,450.4h242.2v-150H706.7V450.4z"/>
		</g>
	</g>
	<g>
		<g>
			<path d="M762.5,351.9v15h15v15h15v15h-15v-15h-15v-15h-15v-15H762.5z M762.5,381.8v15h-15v-15H762.5z M777.5,366.9v-15h15v15
				H777.5z"/>
		</g>
		<g>
			<path d="M822.5,351.9v15h15v15h15v15h-15v-15h-15v-15h-15v-15H822.5z M822.5,381.8v15h-15v-15H822.5z M837.4,366.9v-15h15v15
				H837.4z"/>
		</g>
		<g>
			<path d="M882.4,351.9v15h15v15h15v15h-15v-15h-15v-15h-15v-15H882.4z M882.4,381.8v15h-15v-15H882.4z M897.4,366.9v-15h15v15
				H897.4z"/>
		</g>
	</g>
</g>
<g>
	<rect x="66.9" y="537.4" class="st4" width="872.5" height="124"/>
</g>
<g class="st5">
	<path class="st6" d="M125.7,561.1c0,5.1-1.6,9.5-4.7,13.1c-3.1,3.6-7.5,6.1-13.1,7.4v0.3c6.6,0.8,11.6,2.8,15,6
		c3.4,3.2,5.1,7.5,5.1,12.9c0,7.9-2.9,14-8.6,18.4c-5.7,4.4-13.9,6.6-24.5,6.6c-8.9,0-16.8-1.5-23.7-4.4v-14.8
		c3.2,1.6,6.7,2.9,10.5,3.9s7.6,1.5,11.3,1.5c5.7,0,10-1,12.7-2.9c2.7-1.9,4.1-5.1,4.1-9.4c0-3.9-1.6-6.6-4.7-8.2
		c-3.1-1.6-8.2-2.4-15-2.4h-6.2v-13.3h6.3c6.4,0,11-0.8,14-2.5c2.9-1.7,4.4-4.5,4.4-8.6c0-6.2-3.9-9.3-11.7-9.3
		c-2.7,0-5.4,0.4-8.2,1.3c-2.8,0.9-5.9,2.5-9.3,4.7l-8-12c7.5-5.4,16.4-8.1,26.8-8.1c8.5,0,15.2,1.7,20.1,5.2
		C123.2,550.1,125.7,554.9,125.7,561.1z"/>
	<path class="st6" d="M191.3,625.9c-7.4,0-13.2-2.9-17.4-8.6c-4.2-5.7-6.3-13.7-6.3-23.8c0-10.3,2.1-18.3,6.4-24.1
		c4.3-5.7,10.2-8.6,17.7-8.6c7.9,0,13.9,3.1,18.1,9.2h0.6c-0.9-4.7-1.3-8.9-1.3-12.5v-20.1h17.2v87.4h-13.1l-3.3-8.1h-0.7
		C205.2,622.8,199.3,625.9,191.3,625.9z M197.3,612.3c4.4,0,7.6-1.3,9.6-3.8c2-2.5,3.2-6.9,3.3-13v-1.9c0-6.7-1-11.6-3.1-14.5
		c-2.1-2.9-5.5-4.4-10.1-4.4c-3.8,0-6.8,1.6-8.9,4.9c-2.1,3.2-3.2,7.9-3.2,14.1c0,6.2,1.1,10.8,3.2,13.9
		C190.3,610.7,193.3,612.3,197.3,612.3z"/>
	<path class="st6" d="M243.4,545.8c0-5.6,3.1-8.4,9.3-8.4c6.2,0,9.3,2.8,9.3,8.4c0,2.7-0.8,4.7-2.3,6.2c-1.6,1.5-3.9,2.2-7,2.2
		C246.6,554.2,243.4,551.4,243.4,545.8z M261.3,624.8h-17.1V562h17.1V624.8z"/>
	<path class="st6" d="M333.9,562v8.7l-9.8,2.5c1.8,2.8,2.7,6,2.7,9.4c0,6.7-2.3,12-7,15.8c-4.7,3.8-11.2,5.6-19.6,5.6l-3.1-0.2
		l-2.5-0.3c-1.8,1.3-2.6,2.8-2.6,4.5c0,2.5,3.1,3.7,9.4,3.7H312c6.9,0,12.1,1.5,15.8,4.4c3.6,3,5.4,7.3,5.4,13
		c0,7.3-3.1,13-9.2,17.1c-6.1,4-14.9,6.1-26.4,6.1c-8.8,0-15.5-1.5-20.1-4.6c-4.6-3.1-6.9-7.3-6.9-12.8c0-3.8,1.2-6.9,3.5-9.5
		c2.4-2.5,5.8-4.4,10.4-5.4c-1.8-0.7-3.3-2-4.6-3.7c-1.3-1.7-2-3.5-2-5.4c0-2.4,0.7-4.4,2.1-6c1.4-1.6,3.4-3.2,6-4.7
		c-3.3-1.4-5.9-3.7-7.8-6.9c-1.9-3.1-2.9-6.9-2.9-11.1c0-6.9,2.2-12.1,6.7-15.9c4.5-3.7,10.8-5.6,19.1-5.6c1.8,0,3.8,0.2,6.3,0.5
		c2.4,0.3,4,0.6,4.6,0.7H333.9z M285.4,633.7c0,2.4,1.1,4.2,3.4,5.6c2.3,1.3,5.4,2,9.5,2c6.1,0,10.9-0.8,14.4-2.5
		c3.5-1.7,5.2-4,5.2-6.9c0-2.4-1-4-3.1-4.9s-5.2-1.3-9.5-1.3h-8.9c-3.1,0-5.8,0.7-7.9,2.2C286.5,629.3,285.4,631.2,285.4,633.7z
		 M291.7,582.6c0,3.4,0.8,6.1,2.3,8.1c1.6,2,3.9,3,7.1,3c3.2,0,5.6-1,7.1-3c1.5-2,2.2-4.7,2.2-8.1c0-7.6-3.1-11.3-9.3-11.3
		C294.8,571.2,291.7,575,291.7,582.6z"/>
	<path class="st6" d="M343.5,545.8c0-5.6,3.1-8.4,9.3-8.4c6.2,0,9.3,2.8,9.3,8.4c0,2.7-0.8,4.7-2.3,6.2c-1.6,1.5-3.9,2.2-7,2.2
		C346.6,554.2,343.5,551.4,343.5,545.8z M361.4,624.8h-17.1V562h17.1V624.8z"/>
	<path class="st6" d="M405.8,612.3c3,0,6.6-0.7,10.8-2V623c-4.3,1.9-9.5,2.9-15.7,2.9c-6.8,0-11.8-1.7-15-5.2
		c-3.1-3.5-4.7-8.7-4.7-15.6v-30.3H373v-7.2l9.4-5.7l4.9-13.3h11V562h17.6v12.9h-17.6v30.3c0,2.4,0.7,4.2,2,5.4
		C401.7,611.7,403.5,612.3,405.8,612.3z"/>
	<path class="st6" d="M517.1,624.8H500v-36.7c0-4.5-0.8-7.9-2.4-10.2c-1.6-2.3-4.2-3.4-7.7-3.4c-4.8,0-8.3,1.6-10.4,4.8
		c-2.1,3.2-3.2,8.5-3.2,15.9v29.5h-17.1V562h13.1l2.3,8h1c1.9-3,4.5-5.3,7.9-6.9c3.3-1.6,7.2-2.3,11.4-2.3c7.3,0,12.8,2,16.6,5.9
		c3.8,4,5.7,9.6,5.7,17.1V624.8z"/>
	<path class="st6" d="M579.2,624.8l-2.3-8H576c-1.8,2.9-4.4,5.2-7.8,6.8s-7.2,2.4-11.5,2.4c-7.4,0-12.9-2-16.7-5.9
		c-3.7-3.9-5.6-9.6-5.6-17V562h17.1v36.7c0,4.5,0.8,7.9,2.4,10.2c1.6,2.3,4.2,3.4,7.7,3.4c4.8,0,8.3-1.6,10.4-4.8
		c2.1-3.2,3.2-8.5,3.2-15.9V562h17.1v62.8H579.2z"/>
	<path class="st6" d="M666.5,624.8h-17.1v-36.7c0-4.5-0.8-7.9-2.3-10.2c-1.5-2.3-3.9-3.4-7.2-3.4c-4.4,0-7.6,1.6-9.5,4.8
		c-2,3.2-3,8.5-3,15.9v29.5h-17.1V562h13.1l2.3,8h1c1.7-2.9,4.1-5.1,7.3-6.8c3.2-1.6,6.8-2.4,10.9-2.4c9.4,0,15.8,3.1,19.1,9.2h1.5
		c1.7-2.9,4.2-5.2,7.4-6.8c3.3-1.6,7-2.4,11.1-2.4c7.1,0,12.5,1.8,16.1,5.5c3.6,3.6,5.5,9.5,5.5,17.5v40.9h-17.2v-36.7
		c0-4.5-0.8-7.9-2.3-10.2c-1.5-2.3-3.9-3.4-7.2-3.4c-4.2,0-7.3,1.5-9.4,4.5c-2.1,3-3.1,7.7-3.1,14.3V624.8z"/>
	<path class="st6" d="M758.1,560.8c7.4,0,13.2,2.9,17.4,8.7c4.2,5.8,6.3,13.7,6.3,23.8c0,10.4-2.2,18.4-6.5,24.1
		c-4.3,5.7-10.2,8.5-17.7,8.5c-7.4,0-13.2-2.7-17.4-8h-1.2l-2.9,6.9h-13.1v-87.4h17.1v20.3c0,2.6-0.2,6.7-0.7,12.4h0.7
		C744.3,563.9,750.3,560.8,758.1,560.8z M752.6,574.5c-4.2,0-7.3,1.3-9.3,3.9c-1.9,2.6-3,6.9-3,12.9v1.9c0,6.7,1,11.6,3,14.5
		s5.2,4.4,9.5,4.4c3.5,0,6.3-1.6,8.4-4.9c2.1-3.2,3.1-7.9,3.1-14.1c0-6.2-1-10.8-3.1-13.9C759.1,576.1,756.3,574.5,752.6,574.5z"/>
	<path class="st6" d="M824.4,625.9c-10.1,0-18-2.8-23.7-8.4c-5.7-5.6-8.5-13.5-8.5-23.7c0-10.5,2.6-18.7,7.9-24.4
		c5.3-5.7,12.5-8.6,21.8-8.6c8.9,0,15.8,2.5,20.7,7.6s7.4,12,7.4,20.9v8.3h-40.5c0.2,4.9,1.6,8.7,4.3,11.4c2.7,2.7,6.5,4.1,11.3,4.1
		c3.8,0,7.4-0.4,10.7-1.2s6.9-2,10.6-3.8v13.3c-3,1.5-6.2,2.6-9.6,3.3C833.5,625.5,829.3,625.9,824.4,625.9z M822,573
		c-3.6,0-6.5,1.2-8.5,3.5c-2.1,2.3-3.2,5.6-3.5,9.8h24c-0.1-4.2-1.2-7.5-3.3-9.8C828.5,574.2,825.6,573,822,573z"/>
	<path class="st6" d="M899,560.8c2.3,0,4.2,0.2,5.8,0.5l-1.3,16.1c-1.4-0.4-3.1-0.6-5.1-0.6c-5.5,0-9.7,1.4-12.8,4.2
		c-3.1,2.8-4.6,6.7-4.6,11.8v32h-17.1V562h13l2.5,10.6h0.8c1.9-3.5,4.6-6.4,7.9-8.5C891.5,561.9,895.1,560.8,899,560.8z"/>
</g>
<g>
	<polyline class="st3" points="1012.9,416.9 970.8,374.7 1012.9,332.6 	"/>
</g>
<g>
	<polygon class="st3" points="1080.1,602.6 912.4,602.6 912.4,586.6 1064.1,586.6 1064.1,380.1 1000.3,380.1 1000.3,364.1 
		1080.1,364.1 	"/>
</g>
</svg>
