<?xml version="1.0" encoding="utf-8"?>
<!-- Generator: Adobe Illustrator 24.0.0, SVG Export Plug-In . SVG Version: 6.00 Build 0)  -->
<svg version="1.1" id="_x2014_ÎÓÈ_x5F_1" xmlns="http://www.w3.org/2000/svg" xmlns:xlink="http://www.w3.org/1999/xlink"
	 x="0px" y="0px" viewBox="0 0 1114.2 679.7" style="enable-background:new 0 0 1114.2 679.7;" xml:space="preserve">
<style type="text/css">
	.st0{fill:#D1DCE5;}
	.st1{fill:#5D5D5D;}
	.st2{fill:#FFFFFF;}
	.st3{fill:#EC6250;}
	.st4{fill:#F26440;}
</style>
<g>
	<g>
		<path class="st0" d="M1022.5,673.3h-933c-43.6,0-79.3-35.7-79.3-79.3V89.6c0-43.6,35.7-79.3,79.3-79.3h933
			c43.6,0,79.3,35.7,79.3,79.3V594C1101.7,637.6,1066.1,673.3,1022.5,673.3z"/>
	</g>
	<g>
		<g>
			<rect x="10.2" y="100.4" class="st1" width="1091.6" height="137.2"/>
		</g>
	</g>
	<g>
		<rect x="94.5" y="261.5" class="st2" width="923.7" height="226.5"/>
	</g>
	<g>
		<g>
			<path class="st3" d="M966,467.6H689.6V283.3H966V467.6z M706.7,450.4h242.2v-150H706.7V450.4z"/>
		</g>
	</g>
	<g>
		<g>
			<path d="M762.5,351.9v15h15v15h15v15h-15v-15h-15v-15h-15v-15H762.5z M762.5,381.8v15h-15v-15H762.5z M777.5,366.9v-15h15v15
				H777.5z"/>
		</g>
		<g>
			<path d="M822.5,351.9v15h15v15h15v15h-15v-15h-15v-15h-15v-15H822.5z M822.5,381.8v15h-15v-15H822.5z M837.4,366.9v-15h15v15
				H837.4z"/>
		</g>
		<g>
			<path d="M882.4,351.9v15h15v15h15v15h-15v-15h-15v-15h-15v-15H882.4z M882.4,381.8v15h-15v-15H882.4z M897.4,366.9v-15h15v15
				H897.4z"/>
		</g>
	</g>
</g>
<g>
	<g>
		<path class="st4" d="M114.1,558.4c0,4.5-1.4,8.4-4.1,11.6c-2.8,3.2-6.6,5.4-11.6,6.6v0.3c5.9,0.7,10.3,2.5,13.3,5.4
			c3,2.8,4.5,6.7,4.5,11.5c0,7-2.5,12.5-7.6,16.4s-12.3,5.9-21.8,5.9c-7.9,0-14.9-1.3-21-3.9v-13.1c2.8,1.4,5.9,2.6,9.3,3.5
			s6.7,1.3,10.1,1.3c5.1,0,8.8-0.9,11.3-2.6c2.4-1.7,3.6-4.5,3.6-8.3c0-3.4-1.4-5.8-4.2-7.3c-2.8-1.4-7.2-2.1-13.3-2.1H77v-11.8h5.6
			c5.6,0,9.8-0.7,12.4-2.2c2.6-1.5,3.9-4,3.9-7.6c0-5.5-3.5-8.3-10.4-8.3c-2.4,0-4.8,0.4-7.3,1.2c-2.5,0.8-5.2,2.2-8.2,4.1
			l-7.1-10.6c6.6-4.8,14.6-7.2,23.8-7.2c7.5,0,13.5,1.5,17.9,4.6C111.9,548.7,114.1,552.9,114.1,558.4z"/>
	</g>
	<g>
		<path class="st4" d="M170.3,537.5v66.6c5.8-0.6,9.9-2.2,12.3-5c2.3-2.7,3.5-7.1,3.5-13c0-7.4-1.3-16.4-4-26.9h14.1
			c2.6,9.3,3.9,18.3,3.9,27c0,9.1-2.5,16.2-7.5,21.2c-5,5-12.4,7.8-22.3,8.4v23.6h-14.1v-23.6c-9.6-0.3-16.9-2.8-21.7-7.6
			c-4.8-4.8-7.3-11.8-7.3-20.9v-28h14.5v28.4c0,5.7,1.1,9.8,3.2,12.3c2.1,2.4,5.9,3.9,11.3,4.3v-66.7H170.3z"/>
	</g>
	<g>
		<path class="st4" d="M264.9,639.4h-15.2v-57c0-4-0.7-7-2.1-9c-1.4-2-3.7-3-6.8-3c-4.3,0-7.3,1.4-9.2,4.3
			c-1.9,2.8-2.8,7.5-2.8,14.1v26.2h-15.2v-55.7h11.6l2,7.1h0.8c1.7-2.7,4-4.7,7-6.1c3-1.4,6.4-2.1,10.1-2.1c6.5,0,11.4,1.8,14.7,5.3
			c3.4,3.5,5,8.6,5,15.2V639.4z M234.9,551.6c0.6-1.8,1.3-4.5,2.2-8.2c0.9-3.7,1.5-6.9,1.9-9.7h14.1v1.2c-2.6,6.2-5.7,12.2-9.3,18.2
			h-8.9V551.6z"/>
	</g>
	<g>
		<path class="st4" d="M304.9,639.4v-23.9c-9.1-1-16-3.9-20.7-8.7c-4.7-4.8-7-11.3-7-19.5c0-5.1,0.9-10.1,2.7-14.9
			c1.8-4.8,4.7-9.6,8.7-14.4l11,7.2c-3,4.1-5.1,7.8-6.3,11.2c-1.2,3.4-1.8,7.2-1.8,11.2c0,9.2,4.5,14.7,13.4,16.4v-25.7
			c0-6.1,1.8-11,5.3-14.6c3.6-3.6,8.4-5.4,14.6-5.4c7.5,0,13.3,2.4,17.6,7.3c4.2,4.8,6.4,11.4,6.4,19.8c0,5.7-1.2,10.7-3.7,15
			c-2.5,4.3-6,7.8-10.5,10.4c-4.5,2.6-9.7,4.1-15.6,4.7v23.9H304.9z M334.1,585.5c0-5.2-0.8-9.2-2.3-11.9c-1.6-2.8-3.8-4.2-6.8-4.2
			c-1.9,0-3.4,0.7-4.4,2c-1.1,1.3-1.6,3.6-1.6,6.8V604c4.5-0.4,8.2-2.3,11-5.7S334.1,590.7,334.1,585.5z"/>
	</g>
	<g>
		<path class="st4" d="M376.5,559.2v38.2c0,2.2,0.6,3.8,1.8,4.8c1.2,1,2.8,1.5,4.8,1.5c2.7,0,5.9-0.6,9.6-1.7v11.3
			c-3.6,1.7-8,2.5-13.1,2.5c-6.3,0-10.9-1.5-13.9-4.6c-3-3.1-4.4-7.7-4.4-13.8v-38.2H376.5z"/>
	</g>
	<g>
		<path class="st4" d="M453.4,587c0,9.1-2.4,16.2-7.2,21.3c-4.8,5.1-11.4,7.7-20,7.7c-5.3,0-10.1-1.2-14.1-3.5
			c-4.1-2.3-7.2-5.7-9.4-10.1s-3.3-9.5-3.3-15.3c0-9.1,2.4-16.2,7.1-21.2c4.7-5,11.4-7.6,20-7.6c5.3,0,10.1,1.2,14.1,3.5
			c4.1,2.3,7.2,5.7,9.4,10C452.3,576,453.4,581.1,453.4,587z M414.9,587c0,5.5,0.9,9.7,2.7,12.5c1.8,2.8,4.8,4.2,8.8,4.2
			c4.1,0,7-1.4,8.7-4.2c1.8-2.8,2.7-7,2.7-12.5c0-5.5-0.9-9.6-2.7-12.4c-1.8-2.8-4.7-4.1-8.8-4.1c-4.1,0-7,1.4-8.8,4.1
			C415.8,577.3,414.9,581.4,414.9,587z"/>
	</g>
	<g>
		<path class="st4" d="M462.6,590.3c0-10.9,2.2-19,6.7-24.2c4.5-5.3,11.5-7.9,21.1-7.9c6.1,0,12,1.3,17.8,4l-4.4,11.6
			c-5.7-2.2-10.3-3.3-13.8-3.3c-4.2,0-7.2,1.6-9.1,4.9c-1.9,3.3-2.8,8.1-2.8,14.6c0,2.5,0.4,4.5,1.2,6c0.8,1.6,2.1,2.8,3.7,3.8
			c1.7,0.9,4.7,1.9,9.1,2.9c5.5,1.2,9.6,2.8,12.2,5c2.6,2.2,3.9,5,3.9,8.5c0,5-2.3,11-6.9,17.7h-15.3c4.9-7.1,7.4-12.3,7.4-15.5
			c0-1.2-0.7-2.2-2-2.9c-1.4-0.7-3.7-1.4-7-2.1c-7.2-1.4-12.7-4-16.4-7.9C464.4,601.6,462.6,596.5,462.6,590.3z"/>
	</g>
	<g>
		<path class="st4" d="M561.7,615.9c-6.8,0-12.1-2.5-16-7.6c-3.9-5-5.8-12.1-5.8-21.1c0-9.2,2-16.4,6.1-21.4c4-5,9.7-7.6,16.9-7.6
			c3.9,0,7.1,0.7,9.7,2.1c2.5,1.4,4.6,3.5,6.3,6.3h0.7c0.8-3.1,1.9-5.6,3.3-7.4h12.6c-1.1,3.2-1.9,6.9-2.6,11.1c-0.6,4.2-1,8-1,11.4
			v15.5c0,3.9,1.4,5.9,4.2,5.9c1.1,0,2-0.2,2.9-0.5v12c-0.5,0.3-1.6,0.6-3.1,0.9c-1.5,0.3-2.8,0.4-3.8,0.4c-3.7,0-6.6-0.6-8.5-1.9
			c-2-1.3-3.5-3.4-4.6-6.4h-1C574.4,613.1,568.9,615.9,561.7,615.9z M566.3,603.8c3.9,0,6.8-1.2,8.5-3.6c1.8-2.4,2.7-6.5,2.9-12.5
			v-0.6c0-6-0.9-10.3-2.8-12.8c-1.8-2.6-4.8-3.9-8.9-3.9c-7.1,0-10.7,5.6-10.7,16.9c0,5.5,0.9,9.6,2.7,12.3
			C559.8,602.4,562.6,603.8,566.3,603.8z"/>
	</g>
	<g>
		<path class="st4" d="M659.8,587.1c0,9.1-2,16.1-6.1,21.2s-9.7,7.6-17,7.6c-5.1,0-9.8-1.3-14-3.8h-0.9c0.5,5.7,0.8,10.2,0.8,13.3
			v14h-15.3V587c0-9.1,2.3-16.2,6.9-21.2c4.6-5,11.1-7.5,19.6-7.5c5.1,0,9.7,1.2,13.6,3.5c3.9,2.3,7,5.7,9.1,10.1
			C658.7,576.2,659.8,581.3,659.8,587.1z M633.5,570.4c-3.8,0-6.5,1.3-8.3,3.8c-1.8,2.5-2.6,6.5-2.6,12v13.1c1.4,1.4,3.1,2.5,5,3.2
			c1.9,0.7,3.9,1.1,5.9,1.1c3.8,0,6.5-1.3,8.1-3.9c1.6-2.6,2.5-6.8,2.5-12.7c0-5.8-0.8-10.1-2.4-12.7
			C640.1,571.7,637.4,570.4,633.5,570.4z"/>
	</g>
	<g>
		<path class="st4" d="M687.5,559.2v38.2c0,2.2,0.6,3.8,1.8,4.8c1.2,1,2.8,1.5,4.8,1.5c2.7,0,5.9-0.6,9.6-1.7v11.3
			c-3.6,1.7-8,2.5-13.1,2.5c-6.3,0-10.9-1.5-13.9-4.6c-3-3.1-4.4-7.7-4.4-13.8v-38.2H687.5z"/>
	</g>
	<g>
		<path class="st4" d="M764.4,576.1c0,13.4-2.2,23.5-6.7,30c-4.5,6.6-11.2,9.8-20.3,9.8c-8.8,0-15.5-3.4-20-10.2
			c-4.5-6.8-6.8-16.7-6.8-29.6c0-13.5,2.2-23.5,6.7-30c4.4-6.5,11.2-9.8,20.2-9.8c8.8,0,15.5,3.4,20.1,10.1
			C762,553.2,764.4,563,764.4,576.1z M737.3,604.9c3.9,0,6.7-1.9,8.5-5.8c1.8-3.9,2.7-9.8,2.9-17.7H726c0.1,7.8,1.1,13.7,2.8,17.6
			C730.5,602.9,733.4,604.9,737.3,604.9z M737.4,547.3c-3.6,0-6.3,1.8-8.1,5.3s-2.9,9.4-3.2,17.6h22.6c-0.3-7.6-1.3-13.4-3-17.2
			C744,549.2,741.2,547.3,737.4,547.3z"/>
	</g>
	<g>
		<path class="st4" d="M792.1,591.7c0,4,0.7,7,2.2,9s3.8,3,6.9,3c4.2,0,7.2-1.4,9.1-4.3s2.8-7.6,2.8-14.1v-26.2h15.2v55.7h-11.5
			l-2.1-7.5h-0.7c-1.4,2.8-3.1,4.9-5.1,6.3c-2,1.4-4.4,2.1-7.4,2.1c-2.1,0-4-0.4-5.7-1.1s-3.1-1.9-4.2-3.3l0.2,4.2l0.2,7.8v15.9
			h-15.2v-80.2h15.2V591.7z"/>
	</g>
	<g>
		<path class="st4" d="M894.8,587c0,9.1-2.4,16.2-7.2,21.3c-4.8,5.1-11.4,7.7-20,7.7c-5.3,0-10.1-1.2-14.1-3.5
			c-4.1-2.3-7.2-5.7-9.4-10.1s-3.3-9.5-3.3-15.3c0-9.1,2.4-16.2,7.1-21.2c4.7-5,11.4-7.6,20-7.6c5.3,0,10.1,1.2,14.1,3.5
			c4.1,2.3,7.2,5.7,9.4,10C893.7,576,894.8,581.1,894.8,587z M856.3,587c0,5.5,0.9,9.7,2.7,12.5c1.8,2.8,4.8,4.2,8.8,4.2
			c4.1,0,7-1.4,8.7-4.2c1.8-2.8,2.7-7,2.7-12.5c0-5.5-0.9-9.6-2.7-12.4c-1.8-2.8-4.7-4.1-8.8-4.1c-4.1,0-7,1.4-8.8,4.1
			C857.2,577.3,856.3,581.4,856.3,587z M863,551.6c0.6-1.8,1.3-4.5,2.2-8.2c0.9-3.7,1.5-6.9,1.9-9.7h14.1v1.2
			c-2.6,6.2-5.7,12.2-9.3,18.2H863V551.6z"/>
	</g>
	<g>
		<path class="st4" d="M904,590.3c0-10.9,2.2-19,6.7-24.2c4.5-5.3,11.5-7.9,21.1-7.9c6.1,0,12,1.3,17.8,4l-4.4,11.6
			c-5.7-2.2-10.3-3.3-13.8-3.3c-4.2,0-7.2,1.6-9.1,4.9c-1.9,3.3-2.8,8.1-2.8,14.6c0,2.5,0.4,4.5,1.2,6c0.8,1.6,2.1,2.8,3.7,3.8
			c1.7,0.9,4.7,1.9,9.1,2.9c5.5,1.2,9.6,2.8,12.2,5c2.6,2.2,3.9,5,3.9,8.5c0,5-2.3,11-6.9,17.7h-15.3c4.9-7.1,7.4-12.3,7.4-15.5
			c0-1.2-0.7-2.2-2-2.9c-1.4-0.7-3.7-1.4-7-2.1c-7.2-1.4-12.7-4-16.4-7.9C905.9,601.6,904,596.5,904,590.3z"/>
	</g>
</g>
<g>
	<polyline class="st3" points="1012.9,416.9 970.8,374.7 1012.9,332.6 	"/>
</g>
<g>
	<polygon class="st3" points="1080.1,602.6 966,602.6 966,586.6 1064.1,586.6 1064.1,380.1 1000.3,380.1 1000.3,364.1 1080.1,364.1 
			"/>
</g>
</svg>
