<?xml version="1.0" encoding="utf-8"?>
<!-- Generator: Adobe Illustrator 24.0.0, SVG Export Plug-In . SVG Version: 6.00 Build 0)  -->
<svg version="1.1" id="Layer_1" xmlns="http://www.w3.org/2000/svg" xmlns:xlink="http://www.w3.org/1999/xlink" x="0px" y="0px"
	 viewBox="0 0 340 80" style="enable-background:new 0 0 340 80;" xml:space="preserve">
<style type="text/css">
	.st0{fill:#4F9ED3;}
	.st1{fill:#F5F5F5;}
	.st2{fill:#FFFFFF;}
</style>
<path class="st0" d="M90.7,59.6H5c-1.7,0-3-1.3-3-3V5c0-1.7,1.3-3,3-3h85.7V59.6z"/>
<path class="st1" d="M90.7,59.6H336c1.7,0,3-1.3,3-3V5c0-1.7-1.3-3-3-3H90.7V59.6z"/>
<g>
	<g>
		<path class="st2" d="M18.5,17.4c2.7,0,4.8,0.6,6.4,1.8c1.6,1.2,2.4,2.8,2.4,4.9c0,1.4-0.4,2.7-1.2,3.8c-0.8,1.1-2.1,2.1-3.8,3
			c2.1,1.1,3.6,2.3,4.5,3.5c0.9,1.2,1.4,2.5,1.4,4c0,2.3-0.9,4.1-2.7,5.5c-1.8,1.4-4.1,2.1-7.1,2.1c-3,0-5.4-0.6-7.2-1.9
			s-2.6-3.1-2.6-5.5c0-1.6,0.4-3,1.3-4.2c0.8-1.2,2.2-2.3,4.1-3.3c-1.6-1-2.7-2.1-3.4-3.2s-1-2.4-1-3.8c0-2,0.8-3.6,2.5-4.8
			S15.8,17.4,18.5,17.4z M14.1,38.2c0,1.1,0.4,1.9,1.1,2.6c0.8,0.6,1.8,0.9,3.1,0.9c1.5,0,2.6-0.3,3.3-0.9c0.7-0.6,1.1-1.5,1.1-2.5
			c0-0.9-0.4-1.6-1.1-2.4c-0.7-0.7-1.9-1.5-3.5-2.4C15.5,34.7,14.1,36.3,14.1,38.2z M18.4,21.7c-1,0-1.8,0.3-2.4,0.8
			c-0.6,0.5-0.9,1.2-0.9,2.1c0,0.8,0.2,1.4,0.7,2c0.5,0.6,1.4,1.2,2.7,1.9c1.2-0.6,2.1-1.2,2.6-1.8s0.7-1.3,0.7-2.1
			c0-0.9-0.3-1.6-1-2.1S19.4,21.7,18.4,21.7z"/>
		<path class="st2" d="M49.5,24c0,1.7-0.5,3.2-1.6,4.4s-2.5,2.1-4.4,2.5V31c2.2,0.3,3.9,1,5.1,2c1.2,1.1,1.7,2.5,1.7,4.4
			c0,2.7-1,4.8-2.9,6.3c-1.9,1.5-4.7,2.2-8.3,2.2c-3,0-5.7-0.5-8-1.5v-5c1.1,0.5,2.3,1,3.6,1.3s2.6,0.5,3.8,0.5c1.9,0,3.4-0.3,4.3-1
			s1.4-1.7,1.4-3.2c0-1.3-0.5-2.2-1.6-2.8s-2.8-0.8-5.1-0.8h-2.1V29h2.2c2.2,0,3.7-0.3,4.7-0.8c1-0.6,1.5-1.5,1.5-2.9
			c0-2.1-1.3-3.2-4-3.2c-0.9,0-1.8,0.2-2.8,0.5c-0.9,0.3-2,0.8-3.2,1.6l-2.7-4.1c2.5-1.8,5.6-2.7,9.1-2.7c2.9,0,5.2,0.6,6.8,1.8
			S49.5,21.9,49.5,24z"/>
		<path class="st2" d="M66.3,26c0,2.9-0.6,5.1-1.7,6.6c-1.1,1.5-2.8,2.2-5,2.2c-2.1,0-3.7-0.8-4.9-2.3C53.6,31.1,53,28.9,53,26
			c0-5.8,2.2-8.7,6.6-8.7c2.1,0,3.8,0.8,4.9,2.3C65.7,21.1,66.3,23.2,66.3,26z M57.8,26.1c0,1.6,0.1,2.8,0.4,3.6
			c0.3,0.8,0.7,1.2,1.4,1.2c1.2,0,1.8-1.6,1.8-4.8c0-3.2-0.6-4.8-1.8-4.8c-0.6,0-1.1,0.4-1.4,1.2C58,23.3,57.8,24.5,57.8,26.1z
			 M79.4,17.7L63.9,45.6h-4.6l15.4-27.8H79.4z M85.8,37.2c0,2.9-0.6,5.1-1.7,6.6c-1.1,1.5-2.8,2.2-5,2.2c-2.1,0-3.7-0.8-4.9-2.3
			c-1.1-1.5-1.7-3.7-1.7-6.5c0-5.8,2.2-8.7,6.6-8.7c2.1,0,3.8,0.8,4.9,2.3C85.2,32.2,85.8,34.4,85.8,37.2z M77.3,37.2
			c0,1.6,0.1,2.8,0.4,3.6c0.3,0.8,0.7,1.2,1.4,1.2c1.2,0,1.8-1.6,1.8-4.8c0-3.2-0.6-4.8-1.8-4.8c-0.6,0-1.1,0.4-1.4,1.2
			C77.5,34.4,77.3,35.6,77.3,37.2z"/>
	</g>
</g>
<polygon class="st0" points="29.9,59.6 47.3,76.8 64.6,59.6 "/>
<g>
	<path class="st0" d="M103.9,21.8c0,1.5-0.4,2.6-1.1,3.5c-0.7,0.8-1.8,1.2-3.1,1.2c-0.8,0-1.5-0.2-2.2-0.6s-1.1-0.9-1.5-1.6
		s-0.5-1.5-0.5-2.5c0-1.5,0.4-2.6,1.1-3.5c0.7-0.8,1.8-1.2,3.1-1.2c1.3,0,2.3,0.4,3,1.3C103.6,19.2,103.9,20.4,103.9,21.8z M97,21.8
		c0,1.2,0.2,2,0.7,2.7s1.1,0.9,2.1,0.9s1.6-0.3,2.1-0.9c0.5-0.6,0.7-1.5,0.7-2.7c0-1.2-0.2-2-0.7-2.6c-0.5-0.6-1.2-0.9-2.1-0.9
		c-0.9,0-1.6,0.3-2,0.9S97,20.6,97,21.8z"/>
	<path class="st0" d="M110.5,18.3h-2.3v8h-1.4v-8h-1.6v-0.6l1.6-0.5v-0.5c0-2.2,1-3.4,2.9-3.4c0.5,0,1,0.1,1.7,0.3l-0.4,1.1
		c-0.5-0.2-1-0.3-1.4-0.3c-0.5,0-0.9,0.2-1.2,0.5c-0.2,0.3-0.4,0.9-0.4,1.7v0.6h2.3V18.3z"/>
	<path class="st0" d="M124.4,21.8c0,1.5-0.4,2.6-1.1,3.5c-0.7,0.8-1.8,1.2-3.1,1.2c-0.8,0-1.5-0.2-2.2-0.6s-1.1-0.9-1.5-1.6
		s-0.5-1.5-0.5-2.5c0-1.5,0.4-2.6,1.1-3.5c0.7-0.8,1.8-1.2,3.1-1.2c1.3,0,2.3,0.4,3,1.3C124,19.2,124.4,20.4,124.4,21.8z
		 M117.5,21.8c0,1.2,0.2,2,0.7,2.7s1.1,0.9,2.1,0.9s1.6-0.3,2.1-0.9c0.5-0.6,0.7-1.5,0.7-2.7c0-1.2-0.2-2-0.7-2.6
		c-0.5-0.6-1.2-0.9-2.1-0.9c-0.9,0-1.6,0.3-2,0.9S117.5,20.6,117.5,21.8z"/>
	<path class="st0" d="M128.1,17.3v5.9c0,0.7,0.2,1.3,0.5,1.7s0.9,0.5,1.6,0.5c1,0,1.6-0.3,2.1-0.8c0.4-0.5,0.7-1.4,0.7-2.5v-4.8h1.4
		v9.1h-1.1l-0.2-1.2h-0.1c-0.3,0.4-0.7,0.8-1.2,1c-0.5,0.2-1.1,0.4-1.7,0.4c-1.1,0-1.9-0.3-2.5-0.8c-0.6-0.5-0.8-1.4-0.8-2.5v-6
		H128.1z"/>
	<path class="st0" d="M141.4,17.1c0.4,0,0.8,0,1.1,0.1l-0.2,1.3c-0.4-0.1-0.7-0.1-1-0.1c-0.7,0-1.4,0.3-1.9,0.9
		c-0.5,0.6-0.8,1.3-0.8,2.2v4.9h-1.4v-9.1h1.1l0.2,1.7h0.1c0.3-0.6,0.7-1,1.2-1.4S140.8,17.1,141.4,17.1z"/>
	<path class="st0" d="M152.2,26.5c-1.3,0-2.3-0.4-3.1-1.2c-0.7-0.8-1.1-2-1.1-3.4c0-1.5,0.4-2.7,1.1-3.5c0.7-0.8,1.8-1.2,3.1-1.2
		c0.4,0,0.9,0,1.3,0.1s0.8,0.2,1,0.3l-0.4,1.2c-0.3-0.1-0.6-0.2-1-0.3c-0.4-0.1-0.7-0.1-1-0.1c-1.8,0-2.8,1.2-2.8,3.5
		c0,1.1,0.2,2,0.7,2.6c0.5,0.6,1.1,0.9,2,0.9c0.8,0,1.5-0.2,2.3-0.5V26C153.9,26.4,153.1,26.5,152.2,26.5z"/>
	<path class="st0" d="M158,17.3v5.9c0,0.7,0.2,1.3,0.5,1.7s0.9,0.5,1.6,0.5c1,0,1.6-0.3,2.1-0.8c0.4-0.5,0.7-1.4,0.7-2.5v-4.8h1.4
		v9.1h-1.1l-0.2-1.2h-0.1c-0.3,0.4-0.7,0.8-1.2,1c-0.5,0.2-1.1,0.4-1.7,0.4c-1.1,0-1.9-0.3-2.5-0.8c-0.6-0.5-0.8-1.4-0.8-2.5v-6H158
		z"/>
	<path class="st0" d="M173,23.9c0,0.8-0.3,1.5-0.9,2c-0.6,0.5-1.5,0.7-2.7,0.7c-1.2,0-2.1-0.2-2.8-0.6v-1.3c0.4,0.2,0.9,0.4,1.4,0.5
		c0.5,0.1,1,0.2,1.4,0.2c0.7,0,1.3-0.1,1.7-0.3c0.4-0.2,0.6-0.6,0.6-1.1c0-0.4-0.2-0.7-0.5-0.9c-0.3-0.3-0.9-0.5-1.8-0.9
		c-0.8-0.3-1.4-0.6-1.8-0.8c-0.4-0.2-0.6-0.5-0.8-0.8c-0.2-0.3-0.3-0.7-0.3-1.1c0-0.7,0.3-1.3,0.9-1.8c0.6-0.4,1.4-0.6,2.5-0.6
		c1,0,1.9,0.2,2.9,0.6l-0.5,1.1c-0.9-0.4-1.7-0.6-2.5-0.6c-0.7,0-1.1,0.1-1.5,0.3s-0.5,0.5-0.5,0.8c0,0.2,0.1,0.5,0.2,0.6
		c0.1,0.2,0.3,0.3,0.6,0.5s0.8,0.4,1.6,0.7c1.1,0.4,1.8,0.8,2.2,1.2S173,23.3,173,23.9z"/>
	<path class="st0" d="M178.2,25.4c0.2,0,0.5,0,0.7-0.1c0.2,0,0.4-0.1,0.5-0.1v1.1c-0.1,0.1-0.4,0.1-0.7,0.2c-0.3,0-0.6,0.1-0.8,0.1
		c-1.8,0-2.6-0.9-2.6-2.8v-5.4H174v-0.7l1.3-0.6l0.6-1.9h0.8v2.1h2.6v1.1h-2.6v5.4c0,0.5,0.1,1,0.4,1.3
		C177.4,25.2,177.7,25.4,178.2,25.4z"/>
	<path class="st0" d="M189.1,21.8c0,1.5-0.4,2.6-1.1,3.5c-0.7,0.8-1.8,1.2-3.1,1.2c-0.8,0-1.5-0.2-2.2-0.6s-1.1-0.9-1.5-1.6
		c-0.3-0.7-0.5-1.5-0.5-2.5c0-1.5,0.4-2.6,1.1-3.5c0.7-0.8,1.8-1.2,3.1-1.2c1.3,0,2.3,0.4,3,1.3S189.1,20.4,189.1,21.8z M182.2,21.8
		c0,1.2,0.2,2,0.7,2.7s1.1,0.9,2,0.9s1.6-0.3,2.1-0.9c0.5-0.6,0.7-1.5,0.7-2.7c0-1.2-0.2-2-0.7-2.6c-0.5-0.6-1.2-0.9-2.1-0.9
		c-0.9,0-1.6,0.3-2,0.9S182.2,20.6,182.2,21.8z"/>
	<path class="st0" d="M203.1,26.4v-5.9c0-0.7-0.2-1.3-0.5-1.6c-0.3-0.4-0.8-0.5-1.4-0.5c-0.9,0-1.5,0.2-1.9,0.7s-0.6,1.3-0.6,2.3
		v5.1h-1.4v-5.9c0-0.7-0.2-1.3-0.5-1.6c-0.3-0.4-0.8-0.5-1.5-0.5c-0.9,0-1.5,0.3-1.9,0.8c-0.4,0.5-0.6,1.4-0.6,2.5v4.8h-1.4v-9.1
		h1.1l0.2,1.2h0.1c0.3-0.4,0.6-0.8,1.1-1c0.5-0.2,1-0.4,1.6-0.4c1.4,0,2.4,0.5,2.8,1.5h0.1c0.3-0.5,0.7-0.9,1.2-1.1s1.1-0.4,1.8-0.4
		c1,0,1.8,0.3,2.3,0.8c0.5,0.5,0.8,1.4,0.8,2.5v5.9H203.1z"/>
	<path class="st0" d="M211.2,26.5c-1.3,0-2.4-0.4-3.2-1.2s-1.2-2-1.2-3.4c0-1.5,0.4-2.6,1.1-3.5c0.7-0.9,1.7-1.3,2.9-1.3
		c1.1,0,2,0.4,2.7,1.1c0.7,0.7,1,1.7,1,3v0.9h-6.3c0,1.1,0.3,1.9,0.8,2.4s1.2,0.8,2.2,0.8c1,0,1.9-0.2,2.9-0.6v1.2
		c-0.5,0.2-0.9,0.4-1.4,0.5C212.3,26.5,211.8,26.5,211.2,26.5z M210.8,18.2c-0.7,0-1.3,0.2-1.7,0.7s-0.7,1.1-0.8,2h4.8
		c0-0.9-0.2-1.5-0.6-2C212.1,18.5,211.5,18.2,210.8,18.2z"/>
	<path class="st0" d="M221,17.1c0.4,0,0.8,0,1.1,0.1l-0.2,1.3c-0.4-0.1-0.7-0.1-1-0.1c-0.7,0-1.4,0.3-1.9,0.9
		c-0.5,0.6-0.8,1.3-0.8,2.2v4.9h-1.4v-9.1h1.1l0.2,1.7h0.1c0.3-0.6,0.7-1,1.2-1.4C219.9,17.3,220.4,17.1,221,17.1z"/>
	<path class="st0" d="M229.7,23.9c0,0.8-0.3,1.5-0.9,2s-1.5,0.7-2.7,0.7c-1.2,0-2.1-0.2-2.8-0.6v-1.3c0.4,0.2,0.9,0.4,1.4,0.5
		s1,0.2,1.4,0.2c0.7,0,1.3-0.1,1.7-0.3c0.4-0.2,0.6-0.6,0.6-1.1c0-0.4-0.2-0.7-0.5-0.9c-0.3-0.3-0.9-0.5-1.8-0.9
		c-0.8-0.3-1.4-0.6-1.8-0.8c-0.4-0.2-0.6-0.5-0.8-0.8c-0.2-0.3-0.3-0.7-0.3-1.1c0-0.7,0.3-1.3,0.9-1.8c0.6-0.4,1.4-0.6,2.5-0.6
		c1,0,1.9,0.2,2.9,0.6l-0.5,1.1c-0.9-0.4-1.7-0.6-2.5-0.6c-0.7,0-1.1,0.1-1.5,0.3s-0.5,0.5-0.5,0.8c0,0.2,0.1,0.5,0.2,0.6
		c0.1,0.2,0.3,0.3,0.6,0.5c0.3,0.2,0.8,0.4,1.6,0.7c1.1,0.4,1.8,0.8,2.2,1.2S229.7,23.3,229.7,23.9z"/>
	<path class="st0" d="M237.6,17.3v5.9c0,0.7,0.2,1.3,0.5,1.7c0.3,0.4,0.9,0.5,1.6,0.5c1,0,1.6-0.3,2.1-0.8c0.4-0.5,0.7-1.4,0.7-2.5
		v-4.8h1.4v9.1h-1.1l-0.2-1.2h-0.1c-0.3,0.4-0.7,0.8-1.2,1s-1.1,0.4-1.7,0.4c-1.1,0-1.9-0.3-2.5-0.8s-0.8-1.4-0.8-2.5v-6H237.6z"/>
	<path class="st0" d="M252.6,23.9c0,0.8-0.3,1.5-0.9,2s-1.5,0.7-2.7,0.7c-1.2,0-2.1-0.2-2.8-0.6v-1.3c0.4,0.2,0.9,0.4,1.4,0.5
		s1,0.2,1.4,0.2c0.7,0,1.3-0.1,1.7-0.3c0.4-0.2,0.6-0.6,0.6-1.1c0-0.4-0.2-0.7-0.5-0.9c-0.3-0.3-0.9-0.5-1.8-0.9
		c-0.8-0.3-1.4-0.6-1.8-0.8c-0.4-0.2-0.6-0.5-0.8-0.8c-0.2-0.3-0.3-0.7-0.3-1.1c0-0.7,0.3-1.3,0.9-1.8c0.6-0.4,1.4-0.6,2.5-0.6
		c1,0,1.9,0.2,2.9,0.6l-0.5,1.1c-0.9-0.4-1.7-0.6-2.5-0.6c-0.7,0-1.1,0.1-1.5,0.3s-0.5,0.5-0.5,0.8c0,0.2,0.1,0.5,0.2,0.6
		c0.1,0.2,0.3,0.3,0.6,0.5c0.3,0.2,0.8,0.4,1.6,0.7c1.1,0.4,1.8,0.8,2.2,1.2S252.6,23.3,252.6,23.9z"/>
	<path class="st0" d="M258.7,26.5c-1.3,0-2.4-0.4-3.2-1.2s-1.2-2-1.2-3.4c0-1.5,0.4-2.6,1.1-3.5c0.7-0.9,1.7-1.3,2.9-1.3
		c1.1,0,2,0.4,2.7,1.1c0.7,0.7,1,1.7,1,3v0.9h-6.3c0,1.1,0.3,1.9,0.8,2.4s1.2,0.8,2.2,0.8c1,0,1.9-0.2,2.9-0.6v1.2
		c-0.5,0.2-0.9,0.4-1.4,0.5C259.8,26.5,259.3,26.5,258.7,26.5z M258.3,18.2c-0.7,0-1.3,0.2-1.7,0.7s-0.7,1.1-0.8,2h4.8
		c0-0.9-0.2-1.5-0.6-2C259.6,18.5,259,18.2,258.3,18.2z"/>
	<path class="st0" d="M99,45.8c0.2,0,0.5,0,0.7-0.1s0.4-0.1,0.5-0.1v1.1c-0.1,0.1-0.4,0.1-0.7,0.2c-0.3,0-0.6,0.1-0.8,0.1
		c-1.8,0-2.6-0.9-2.6-2.8v-5.4h-1.3v-0.7l1.3-0.6l0.6-1.9h0.8v2.1h2.6v1.1h-2.6v5.4c0,0.5,0.1,1,0.4,1.3S98.6,45.8,99,45.8z"/>
	<path class="st0" d="M108.3,46.8v-5.9c0-0.7-0.2-1.3-0.5-1.7s-0.9-0.5-1.6-0.5c-1,0-1.7,0.3-2.1,0.8c-0.4,0.5-0.7,1.4-0.7,2.6v4.8
		h-1.4V33.8h1.4v3.9c0,0.5,0,0.9-0.1,1.2h0.1c0.3-0.4,0.7-0.8,1.2-1c0.5-0.3,1.1-0.4,1.7-0.4c1.1,0,1.9,0.3,2.5,0.8
		c0.6,0.5,0.8,1.4,0.8,2.5v5.9H108.3z"/>
	<path class="st0" d="M112.4,35.2c0-0.3,0.1-0.5,0.2-0.7c0.2-0.1,0.3-0.2,0.6-0.2c0.2,0,0.4,0.1,0.6,0.2s0.2,0.4,0.2,0.7
		s-0.1,0.5-0.2,0.7c-0.2,0.2-0.4,0.2-0.6,0.2c-0.2,0-0.4-0.1-0.6-0.2C112.5,35.7,112.4,35.5,112.4,35.2z M113.9,46.8h-1.4v-9.1h1.4
		V46.8z"/>
	<path class="st0" d="M122.7,44.3c0,0.8-0.3,1.5-0.9,2c-0.6,0.5-1.5,0.7-2.7,0.7c-1.2,0-2.1-0.2-2.8-0.6v-1.3
		c0.4,0.2,0.9,0.4,1.4,0.5c0.5,0.1,1,0.2,1.4,0.2c0.7,0,1.3-0.1,1.7-0.3s0.6-0.6,0.6-1c0-0.4-0.2-0.7-0.5-0.9
		c-0.3-0.3-0.9-0.5-1.8-0.9c-0.8-0.3-1.4-0.6-1.8-0.8c-0.4-0.2-0.6-0.5-0.8-0.8c-0.2-0.3-0.3-0.7-0.3-1.1c0-0.7,0.3-1.3,0.9-1.8
		c0.6-0.4,1.4-0.6,2.5-0.6c1,0,1.9,0.2,2.9,0.6l-0.5,1.1c-0.9-0.4-1.7-0.6-2.5-0.6c-0.7,0-1.1,0.1-1.5,0.3s-0.5,0.5-0.5,0.8
		c0,0.2,0.1,0.5,0.2,0.6c0.1,0.2,0.3,0.3,0.6,0.5s0.8,0.4,1.6,0.7c1.1,0.4,1.8,0.8,2.2,1.2C122.5,43.2,122.7,43.7,122.7,44.3z"/>
	<path class="st0" d="M135.2,44.3c0,0.8-0.3,1.5-0.9,2c-0.6,0.5-1.5,0.7-2.7,0.7c-1.2,0-2.1-0.2-2.8-0.6v-1.3
		c0.4,0.2,0.9,0.4,1.4,0.5c0.5,0.1,1,0.2,1.4,0.2c0.7,0,1.3-0.1,1.7-0.3s0.6-0.6,0.6-1c0-0.4-0.2-0.7-0.5-0.9
		c-0.3-0.3-0.9-0.5-1.8-0.9c-0.8-0.3-1.4-0.6-1.8-0.8c-0.4-0.2-0.6-0.5-0.8-0.8c-0.2-0.3-0.3-0.7-0.3-1.1c0-0.7,0.3-1.3,0.9-1.8
		c0.6-0.4,1.4-0.6,2.5-0.6c1,0,1.9,0.2,2.9,0.6l-0.5,1.1c-0.9-0.4-1.7-0.6-2.5-0.6c-0.7,0-1.1,0.1-1.5,0.3s-0.5,0.5-0.5,0.8
		c0,0.2,0.1,0.5,0.2,0.6c0.1,0.2,0.3,0.3,0.6,0.5s0.8,0.4,1.6,0.7c1.1,0.4,1.8,0.8,2.2,1.2C135,43.2,135.2,43.7,135.2,44.3z"/>
	<path class="st0" d="M141.3,46.9c-1.3,0-2.4-0.4-3.2-1.2c-0.8-0.8-1.2-2-1.2-3.4c0-1.5,0.4-2.6,1.1-3.5c0.7-0.9,1.7-1.3,2.9-1.3
		c1.1,0,2,0.4,2.7,1.1c0.7,0.7,1,1.7,1,3v0.9h-6.3c0,1.1,0.3,1.9,0.8,2.4c0.5,0.6,1.2,0.8,2.2,0.8c1,0,1.9-0.2,2.9-0.6v1.2
		c-0.5,0.2-0.9,0.4-1.4,0.5C142.4,46.9,141.9,46.9,141.3,46.9z M140.9,38.6c-0.7,0-1.3,0.2-1.7,0.7c-0.4,0.5-0.7,1.1-0.8,2h4.8
		c0-0.9-0.2-1.5-0.6-2C142.2,38.9,141.6,38.6,140.9,38.6z"/>
	<path class="st0" d="M151.1,37.5c0.4,0,0.8,0,1.1,0.1l-0.2,1.3c-0.4-0.1-0.7-0.1-1-0.1c-0.7,0-1.4,0.3-1.9,0.9
		c-0.5,0.6-0.8,1.3-0.8,2.2v4.9H147v-9.1h1.1l0.2,1.7h0.1c0.3-0.6,0.7-1,1.2-1.4S150.6,37.5,151.1,37.5z"/>
	<path class="st0" d="M155.9,46.8l-3.5-9.1h1.5l2,5.4c0.4,1.3,0.7,2.1,0.8,2.5h0.1c0.1-0.3,0.3-0.9,0.6-1.8c0.3-0.9,1-2.9,2.2-6h1.5
		l-3.5,9.1H155.9z"/>
	<path class="st0" d="M162.3,35.2c0-0.3,0.1-0.5,0.2-0.7c0.2-0.1,0.3-0.2,0.6-0.2c0.2,0,0.4,0.1,0.6,0.2s0.2,0.4,0.2,0.7
		s-0.1,0.5-0.2,0.7c-0.2,0.2-0.4,0.2-0.6,0.2c-0.2,0-0.4-0.1-0.6-0.2C162.4,35.7,162.3,35.5,162.3,35.2z M163.8,46.8h-1.4v-9.1h1.4
		V46.8z"/>
	<path class="st0" d="M170.4,46.9c-1.3,0-2.3-0.4-3.1-1.2c-0.7-0.8-1.1-2-1.1-3.4c0-1.5,0.4-2.7,1.1-3.5c0.7-0.8,1.8-1.2,3.1-1.2
		c0.4,0,0.9,0,1.3,0.1c0.4,0.1,0.8,0.2,1,0.3l-0.4,1.2c-0.3-0.1-0.6-0.2-1-0.3c-0.4-0.1-0.7-0.1-1-0.1c-1.8,0-2.8,1.2-2.8,3.5
		c0,1.1,0.2,2,0.7,2.6c0.5,0.6,1.1,0.9,2,0.9c0.8,0,1.5-0.2,2.3-0.5v1.2C172.1,46.8,171.3,46.9,170.4,46.9z"/>
	<path class="st0" d="M178.7,46.9c-1.3,0-2.4-0.4-3.2-1.2s-1.2-2-1.2-3.4c0-1.5,0.4-2.6,1.1-3.5c0.7-0.9,1.7-1.3,2.9-1.3
		c1.1,0,2,0.4,2.7,1.1c0.7,0.7,1,1.7,1,3v0.9h-6.3c0,1.1,0.3,1.9,0.8,2.4c0.5,0.6,1.2,0.8,2.2,0.8c1,0,1.9-0.2,2.9-0.6v1.2
		c-0.5,0.2-0.9,0.4-1.4,0.5C179.8,46.9,179.3,46.9,178.7,46.9z M178.3,38.6c-0.7,0-1.3,0.2-1.7,0.7s-0.7,1.1-0.8,2h4.8
		c0-0.9-0.2-1.5-0.6-2C179.6,38.9,179,38.6,178.3,38.6z"/>
</g>
</svg>
