<?xml version="1.0" encoding="utf-8"?>
<!-- Generator: Adobe Illustrator 24.0.0, SVG Export Plug-In . SVG Version: 6.00 Build 0)  -->
<svg version="1.1" id="Layer_1" xmlns="http://www.w3.org/2000/svg" xmlns:xlink="http://www.w3.org/1999/xlink" x="0px" y="0px"
	 viewBox="0 0 340 80" style="enable-background:new 0 0 340 80;" xml:space="preserve">
<style type="text/css">
	.st0{fill:#4F9ED3;}
	.st1{fill:#F5F5F5;}
	.st2{fill:#FFFFFF;}
</style>
<path class="st0" d="M90.7,59.6H5c-1.7,0-3-1.3-3-3V5c0-1.7,1.3-3,3-3h85.7V59.6z"/>
<path class="st1" d="M90.7,59.6H336c1.7,0,3-1.3,3-3V5c0-1.7-1.3-3-3-3H90.7V59.6z"/>
<g>
	<g>
		<path class="st2" d="M18.5,17.4c2.7,0,4.8,0.6,6.4,1.8c1.6,1.2,2.4,2.8,2.4,4.9c0,1.4-0.4,2.7-1.2,3.8c-0.8,1.1-2.1,2.1-3.8,3
			c2.1,1.1,3.6,2.3,4.5,3.5c0.9,1.2,1.4,2.5,1.4,4c0,2.3-0.9,4.1-2.7,5.5c-1.8,1.4-4.1,2.1-7.1,2.1c-3,0-5.4-0.6-7.2-1.9
			s-2.6-3.1-2.6-5.5c0-1.6,0.4-3,1.3-4.2c0.8-1.2,2.2-2.3,4.1-3.3c-1.6-1-2.7-2.1-3.4-3.2s-1-2.4-1-3.8c0-2,0.8-3.6,2.5-4.8
			S15.8,17.4,18.5,17.4z M14.1,38.2c0,1.1,0.4,1.9,1.1,2.6c0.8,0.6,1.8,0.9,3.1,0.9c1.5,0,2.6-0.3,3.3-0.9c0.7-0.6,1.1-1.5,1.1-2.5
			c0-0.9-0.4-1.6-1.1-2.4c-0.7-0.7-1.9-1.5-3.5-2.4C15.5,34.7,14.1,36.3,14.1,38.2z M18.4,21.7c-1,0-1.8,0.3-2.4,0.8
			c-0.6,0.5-0.9,1.2-0.9,2.1c0,0.8,0.2,1.4,0.7,2c0.5,0.6,1.4,1.2,2.7,1.9c1.2-0.6,2.1-1.2,2.6-1.8s0.7-1.3,0.7-2.1
			c0-0.9-0.3-1.6-1-2.1S19.4,21.7,18.4,21.7z"/>
		<path class="st2" d="M49.5,24c0,1.7-0.5,3.2-1.6,4.4s-2.5,2.1-4.4,2.5V31c2.2,0.3,3.9,1,5.1,2c1.2,1.1,1.7,2.5,1.7,4.4
			c0,2.7-1,4.8-2.9,6.3c-1.9,1.5-4.7,2.2-8.3,2.2c-3,0-5.7-0.5-8-1.5v-5c1.1,0.5,2.3,1,3.6,1.3s2.6,0.5,3.8,0.5c1.9,0,3.4-0.3,4.3-1
			s1.4-1.7,1.4-3.2c0-1.3-0.5-2.2-1.6-2.8s-2.8-0.8-5.1-0.8h-2.1V29h2.2c2.2,0,3.7-0.3,4.7-0.8c1-0.6,1.5-1.5,1.5-2.9
			c0-2.1-1.3-3.2-4-3.2c-0.9,0-1.8,0.2-2.8,0.5c-0.9,0.3-2,0.8-3.2,1.6l-2.7-4.1c2.5-1.8,5.6-2.7,9.1-2.7c2.9,0,5.2,0.6,6.8,1.8
			S49.5,21.9,49.5,24z"/>
		<path class="st2" d="M66.3,26c0,2.9-0.6,5.1-1.7,6.6c-1.1,1.5-2.8,2.2-5,2.2c-2.1,0-3.7-0.8-4.9-2.3C53.6,31.1,53,28.9,53,26
			c0-5.8,2.2-8.7,6.6-8.7c2.1,0,3.8,0.8,4.9,2.3C65.7,21.1,66.3,23.2,66.3,26z M57.8,26.1c0,1.6,0.1,2.8,0.4,3.6
			c0.3,0.8,0.7,1.2,1.4,1.2c1.2,0,1.8-1.6,1.8-4.8c0-3.2-0.6-4.8-1.8-4.8c-0.6,0-1.1,0.4-1.4,1.2C58,23.3,57.8,24.5,57.8,26.1z
			 M79.4,17.7L63.9,45.6h-4.6l15.4-27.8H79.4z M85.8,37.2c0,2.9-0.6,5.1-1.7,6.6c-1.1,1.5-2.8,2.2-5,2.2c-2.1,0-3.7-0.8-4.9-2.3
			c-1.1-1.5-1.7-3.7-1.7-6.5c0-5.8,2.2-8.7,6.6-8.7c2.1,0,3.8,0.8,4.9,2.3C85.2,32.2,85.8,34.4,85.8,37.2z M77.3,37.2
			c0,1.6,0.1,2.8,0.4,3.6c0.3,0.8,0.7,1.2,1.4,1.2c1.2,0,1.8-1.6,1.8-4.8c0-3.2-0.6-4.8-1.8-4.8c-0.6,0-1.1,0.4-1.4,1.2
			C77.5,34.4,77.3,35.6,77.3,37.2z"/>
	</g>
</g>
<polygon class="st0" points="29.9,59.6 47.3,76.8 64.6,59.6 "/>
<g>
	<path class="st0" d="M102.2,17.3v1.2h-3.6v5.1c0,1.2,0.6,1.9,1.7,1.9c0.3,0,0.5,0,0.8-0.1c0.3,0,0.5-0.1,0.6-0.1v1
		c-0.2,0.1-0.4,0.1-0.8,0.2c-0.3,0-0.6,0.1-0.9,0.1c-1,0-1.7-0.2-2.2-0.7s-0.7-1.2-0.7-2.1v-5.3h-2.5v-0.6l1.2-0.6H102.2z"/>
	<path class="st0" d="M106.8,26.5c-1,0-1.8-0.4-2.4-1.2c-0.6-0.8-0.8-1.9-0.8-3.3c0-0.9,0.1-1.7,0.2-2.4c0.2-0.7,0.4-1.5,0.8-2.3
		h1.4c-0.4,0.9-0.6,1.6-0.8,2.4c-0.2,0.7-0.2,1.5-0.2,2.4c0,1.1,0.2,1.9,0.5,2.5s0.8,0.9,1.4,0.9c0.5,0,0.9-0.2,1.2-0.6
		c0.3-0.4,0.4-0.9,0.4-1.6v-2.6h1.3v2.6c0,0.7,0.1,1.3,0.4,1.6s0.7,0.6,1.2,0.6c0.6,0,1.1-0.3,1.4-0.9s0.5-1.4,0.5-2.5
		c0-0.8-0.1-1.6-0.2-2.3c-0.2-0.7-0.4-1.5-0.8-2.4h1.4c0.4,0.8,0.6,1.6,0.8,2.3c0.2,0.7,0.2,1.5,0.2,2.4c0,1.4-0.3,2.5-0.8,3.3
		c-0.6,0.8-1.3,1.2-2.4,1.2c-1.2,0-2-0.5-2.4-1.5h-0.1C108.8,26,108,26.5,106.8,26.5z"/>
	<path class="st0" d="M115.8,17.3h1.4l1.8,4.9c0.1,0.4,0.3,0.9,0.6,1.5c0.2,0.7,0.4,1.2,0.5,1.5h0.1c1-1,1.7-2.1,2.1-3.3
		c0.4-1.2,0.7-2.8,0.7-4.6h1.4c0,2-0.3,3.7-0.9,5.1c-0.6,1.4-1.5,2.7-2.7,4h-1.5L115.8,17.3z"/>
	<path class="st0" d="M139,25.4c0.2,0,0.4,0,0.7-0.1v1.1c-0.2,0.1-0.6,0.2-1.1,0.2c-1.2,0-1.8-0.7-1.8-2.1v-6h-4v7.9h-1.4v-7.9h-1.8
		v-0.6l1.2-0.6h9.1v1.2h-1.8v5.9c0,0.4,0.1,0.7,0.2,0.8C138.5,25.3,138.7,25.4,139,25.4z"/>
	<path class="st0" d="M146.4,21v1.2h-1.2c-1.7,0-2.6,0.5-2.6,1.6c0,0.5,0.2,0.9,0.6,1.2c0.4,0.3,1,0.4,1.8,0.4
		c0.5,0,0.9-0.1,1.4-0.2c0.5-0.1,1-0.3,1.5-0.6v1.2c-0.8,0.4-1.7,0.6-3,0.6c-1.2,0-2.1-0.2-2.7-0.7c-0.7-0.5-1-1.1-1-1.9
		c0-0.5,0.2-1,0.5-1.4c0.3-0.4,0.8-0.7,1.5-0.9v-0.1c-0.5-0.2-1-0.4-1.3-0.8c-0.3-0.4-0.4-0.8-0.4-1.3c0-0.7,0.3-1.3,0.9-1.8
		s1.5-0.7,2.5-0.7c0.5,0,1,0,1.5,0.1c0.5,0.1,1,0.3,1.5,0.5l-0.5,1.1c-0.5-0.2-1-0.4-1.3-0.5s-0.8-0.1-1.2-0.1
		c-1.4,0-2.1,0.4-2.1,1.3c0,1,0.9,1.4,2.6,1.4H146.4z"/>
	<path class="st0" d="M148.4,26.4l3.9-9l-0.5-1.3c-0.2-0.5-0.3-0.8-0.5-1s-0.3-0.3-0.5-0.4c-0.2-0.1-0.4-0.1-0.7-0.1
		c-0.3,0-0.6,0-1,0.1v-1.1c0.4-0.1,0.7-0.1,1.1-0.1c0.5,0,0.9,0.1,1.3,0.2c0.3,0.2,0.6,0.4,0.9,0.8s0.5,1,0.8,1.8l3,8.4
		c0.1,0.3,0.2,0.5,0.3,0.6c0.1,0.1,0.3,0.2,0.5,0.2c0.1,0,0.3,0,0.5-0.1v1c-0.3,0.1-0.6,0.2-0.9,0.2c-0.4,0-0.7-0.1-1-0.3
		c-0.2-0.2-0.4-0.5-0.6-1l-1.3-3.6c-0.5-1.3-0.8-2.3-0.9-2.8h-0.1c-0.2,0.6-0.5,1.5-1,2.7l-2.1,4.9H148.4z"/>
	<path class="st0" d="M162.4,26.5c-1.2,0-2.1-0.4-2.8-1.2c-0.7-0.8-1-2-1-3.5c0-1.5,0.3-2.7,1-3.5c0.7-0.8,1.6-1.2,2.9-1.2
		c0.7,0,1.2,0.1,1.7,0.3c0.4,0.2,0.8,0.6,1.1,1h0.1c0.1-0.5,0.3-0.9,0.5-1.2h1.1c-0.1,0.4-0.2,0.9-0.3,1.6s-0.1,1.3-0.1,2v3.6
		c0,0.6,0.2,0.9,0.7,0.9c0.2,0,0.3,0,0.5-0.1v1c-0.3,0.1-0.6,0.2-0.9,0.2c-0.4,0-0.8-0.1-1-0.3c-0.2-0.2-0.4-0.6-0.5-1.1h-0.1
		c-0.3,0.5-0.7,0.8-1.2,1.1C163.6,26.4,163,26.5,162.4,26.5z M162.6,25.4c0.9,0,1.6-0.3,2-0.8c0.4-0.5,0.6-1.4,0.6-2.6v-0.1
		c0-1.3-0.2-2.2-0.6-2.7c-0.4-0.6-1.1-0.8-2-0.8c-1.7,0-2.5,1.2-2.5,3.6c0,1.2,0.2,2.1,0.6,2.6C161,25.1,161.7,25.4,162.6,25.4z"/>
	<path class="st0" d="M175.6,17.3v1.2H172v5.1c0,1.2,0.6,1.9,1.7,1.9c0.3,0,0.5,0,0.8-0.1c0.3,0,0.5-0.1,0.6-0.1v1
		c-0.2,0.1-0.4,0.1-0.8,0.2c-0.3,0-0.6,0.1-0.9,0.1c-1,0-1.7-0.2-2.2-0.7c-0.5-0.5-0.7-1.2-0.7-2.1v-5.3h-2.5v-0.6l1.2-0.6H175.6z"
		/>
	<path class="st0" d="M180.2,26.5c-1,0-1.8-0.4-2.4-1.2S177,23.4,177,22c0-0.9,0.1-1.7,0.2-2.4c0.2-0.7,0.4-1.5,0.8-2.3h1.4
		c-0.4,0.9-0.6,1.6-0.8,2.4c-0.2,0.7-0.2,1.5-0.2,2.4c0,1.1,0.2,1.9,0.5,2.5s0.8,0.9,1.4,0.9c0.5,0,0.9-0.2,1.2-0.6
		c0.3-0.4,0.4-0.9,0.4-1.6v-2.6h1.3v2.6c0,0.7,0.1,1.3,0.4,1.6c0.3,0.4,0.7,0.6,1.2,0.6c0.6,0,1.1-0.3,1.4-0.9s0.5-1.4,0.5-2.5
		c0-0.8-0.1-1.6-0.2-2.3s-0.4-1.5-0.8-2.4h1.4c0.4,0.8,0.6,1.6,0.8,2.3c0.2,0.7,0.2,1.5,0.2,2.4c0,1.4-0.3,2.5-0.8,3.3
		s-1.3,1.2-2.4,1.2c-1.2,0-2-0.5-2.4-1.5h-0.1C182.2,26,181.4,26.5,180.2,26.5z M182,15.8c0.2-0.4,0.3-0.9,0.4-1.5
		c0.1-0.6,0.3-1.2,0.3-1.6h1.5v0.2c-0.1,0.4-0.3,0.9-0.6,1.6c-0.3,0.7-0.6,1.2-0.9,1.6H182V15.8z"/>
	<path class="st0" d="M189.2,17.3h1.4l1.8,4.9c0.1,0.4,0.3,0.9,0.6,1.5s0.4,1.2,0.5,1.5h0.1c1-1,1.7-2.1,2.1-3.3
		c0.4-1.2,0.7-2.8,0.7-4.6h1.4c0,2-0.3,3.7-0.9,5.1c-0.6,1.4-1.5,2.7-2.7,4h-1.5L189.2,17.3z"/>
	<path class="st0" d="M205.7,23.2c0,1.4,0.7,2.2,2.1,2.2c0.9,0,1.6-0.3,2.1-0.8c0.4-0.5,0.7-1.4,0.7-2.5v-4.8h1.4v9.1h-1.1l-0.2-1.2
		h-0.1c-0.6,0.9-1.6,1.4-2.8,1.4c-0.8,0-1.5-0.3-2-0.8h-0.1c0.1,0.5,0.1,1.1,0.1,2v2.7h-1.4V17.3h1.4V23.2z"/>
	<path class="st0" d="M218.1,26.5c-1.2,0-2.1-0.4-2.8-1.2c-0.7-0.8-1-2-1-3.5c0-1.5,0.3-2.7,1-3.5c0.7-0.8,1.6-1.2,2.9-1.2
		c0.7,0,1.2,0.1,1.7,0.3s0.8,0.6,1.1,1h0.1c0.1-0.5,0.3-0.9,0.5-1.2h1.1c-0.1,0.4-0.2,0.9-0.3,1.6c-0.1,0.7-0.1,1.3-0.1,2v3.6
		c0,0.6,0.2,0.9,0.7,0.9c0.2,0,0.3,0,0.5-0.1v1c-0.3,0.1-0.6,0.2-0.9,0.2c-0.4,0-0.8-0.1-1-0.3c-0.2-0.2-0.4-0.6-0.5-1.1h-0.1
		c-0.3,0.5-0.7,0.8-1.2,1.1C219.3,26.4,218.7,26.5,218.1,26.5z M218.3,25.4c0.9,0,1.6-0.3,2-0.8c0.4-0.5,0.6-1.4,0.6-2.6v-0.1
		c0-1.3-0.2-2.2-0.6-2.7c-0.4-0.6-1.1-0.8-2-0.8c-1.7,0-2.5,1.2-2.5,3.6c0,1.2,0.2,2.1,0.6,2.6C216.8,25.1,217.4,25.4,218.3,25.4z"
		/>
	<path class="st0" d="M226.1,22c0,0.7,0.1,1.3,0.2,1.7s0.4,0.7,0.8,0.9s1,0.4,1.9,0.6c0.8,0.2,1.4,0.4,1.8,0.7
		c0.4,0.3,0.5,0.7,0.5,1.2c0,0.4-0.1,0.8-0.2,1.2c-0.1,0.4-0.4,0.9-0.8,1.4h-1.3c0.3-0.4,0.5-0.8,0.7-1.2s0.3-0.8,0.3-1
		c0-0.2-0.1-0.4-0.2-0.5c-0.1-0.1-0.4-0.2-0.7-0.4s-0.7-0.2-1.3-0.3c-1.1-0.2-2-0.7-2.5-1.4c-0.5-0.7-0.8-1.7-0.8-2.9
		c0-1.6,0.4-2.8,1.1-3.7s1.8-1.3,3.2-1.3c0.4,0,0.9,0,1.3,0.1c0.4,0.1,0.8,0.2,1.1,0.3l-0.4,1.2c-0.7-0.3-1.4-0.4-2-0.4
		c-1,0-1.7,0.3-2.2,0.9S226.1,20.8,226.1,22z"/>
	<path class="st0" d="M100.6,41.4v1.2h-1.2c-1.7,0-2.6,0.5-2.6,1.6c0,0.5,0.2,0.9,0.6,1.2c0.4,0.3,1,0.4,1.8,0.4
		c0.5,0,0.9-0.1,1.4-0.2c0.5-0.1,1-0.3,1.5-0.6v1.2c-0.8,0.4-1.7,0.6-3,0.6c-1.2,0-2.1-0.2-2.7-0.7c-0.7-0.5-1-1.1-1-1.9
		c0-0.5,0.2-1,0.5-1.4s0.8-0.7,1.5-0.9V42c-0.5-0.2-1-0.4-1.3-0.8c-0.3-0.4-0.4-0.8-0.4-1.3c0-0.7,0.3-1.3,0.9-1.8s1.5-0.7,2.5-0.7
		c0.5,0,1,0,1.5,0.1c0.5,0.1,1,0.3,1.5,0.5l-0.5,1.1c-0.5-0.2-1-0.4-1.3-0.5s-0.8-0.1-1.2-0.1c-1.4,0-2.1,0.4-2.1,1.3
		c0,1,0.9,1.4,2.6,1.4H100.6z"/>
	<path class="st0" d="M112.2,45.8c0.2,0,0.4-0.1,0.7-0.2v1.1c-0.2,0.1-0.6,0.2-1.1,0.2c-1.2,0-1.8-0.7-1.8-2.1v-6h-4v7.9h-1.4v-7.9
		h-1.8v-0.6l1.2-0.6h9.1v1.2h-1.8v5.9c0,0.4,0.1,0.7,0.2,0.8C111.8,45.7,112,45.8,112.2,45.8z"/>
	<path class="st0" d="M116.5,37.7v6.4c0,0.6,0.1,1,0.3,1.3c0.2,0.3,0.5,0.4,1,0.4c0.2,0,0.4,0,0.7-0.1c0.3,0,0.5-0.1,0.6-0.1v1.1
		c-0.2,0.1-0.4,0.1-0.7,0.2c-0.3,0-0.6,0.1-0.9,0.1c-0.9,0-1.5-0.2-1.9-0.7c-0.4-0.5-0.6-1.2-0.6-2.1v-6.5H116.5z"/>
	<path class="st0" d="M119.4,46.8l3.9-9l-0.5-1.3c-0.2-0.5-0.3-0.8-0.5-1s-0.3-0.3-0.5-0.4c-0.2-0.1-0.4-0.1-0.7-0.1
		c-0.3,0-0.6,0-1,0.1v-1.1c0.4-0.1,0.7-0.1,1.1-0.1c0.5,0,0.9,0.1,1.3,0.2c0.3,0.2,0.6,0.4,0.9,0.8s0.5,1,0.8,1.8l3,8.4
		c0.1,0.3,0.2,0.5,0.3,0.6c0.1,0.1,0.3,0.2,0.5,0.2c0.1,0,0.3,0,0.5-0.1v1c-0.3,0.1-0.6,0.2-0.9,0.2c-0.4,0-0.7-0.1-1-0.3
		c-0.2-0.2-0.4-0.5-0.6-1l-1.3-3.6c-0.5-1.3-0.8-2.3-0.9-2.8h-0.1c-0.2,0.6-0.5,1.5-1,2.7l-2.1,4.9H119.4z"/>
	<path class="st0" d="M134.5,41.4v1.2h-1.2c-1.7,0-2.6,0.5-2.6,1.6c0,0.5,0.2,0.9,0.6,1.2c0.4,0.3,1,0.4,1.8,0.4
		c0.5,0,0.9-0.1,1.4-0.2c0.5-0.1,1-0.3,1.5-0.6v1.2c-0.8,0.4-1.7,0.6-3,0.6c-1.2,0-2.1-0.2-2.7-0.7c-0.7-0.5-1-1.1-1-1.9
		c0-0.5,0.2-1,0.5-1.4s0.8-0.7,1.5-0.9V42c-0.5-0.2-1-0.4-1.3-0.8c-0.3-0.4-0.4-0.8-0.4-1.3c0-0.7,0.3-1.3,0.9-1.8s1.5-0.7,2.5-0.7
		c0.5,0,1,0,1.5,0.1c0.5,0.1,1,0.3,1.5,0.5l-0.5,1.1c-0.5-0.2-1-0.4-1.3-0.5s-0.8-0.1-1.2-0.1c-1.4,0-2.1,0.4-2.1,1.3
		c0,1,0.9,1.4,2.6,1.4H134.5z M132.3,36.2c0.1-0.4,0.3-0.9,0.4-1.5c0.1-0.6,0.3-1.2,0.3-1.6h1.5v0.2c-0.1,0.4-0.3,0.9-0.6,1.6
		c-0.3,0.7-0.6,1.2-0.9,1.6h-0.8V36.2z"/>
	<path class="st0" d="M141.1,50.8h-1.5c0-0.5,0.1-1.2,0.3-2c0.2-0.8,0.4-1.5,0.6-2.2l-3.7-9h1.4l2,4.8c0.5,1.3,0.8,2.2,0.9,2.8h0.1
		c0-0.2,0.1-0.4,0.2-0.8c0.1-0.4,0.2-0.8,0.3-1.1c0.1-0.4,0.8-2.3,2.1-5.7h1.4l-3.4,8.9c-0.3,0.7-0.5,1.4-0.6,2.2
		C141.2,49.6,141.1,50.3,141.1,50.8z"/>
	<path class="st0" d="M154.7,42.2c0,1.5-0.4,2.6-1.1,3.5s-1.8,1.2-3.1,1.2c-0.8,0-1.5-0.2-2.2-0.6c-0.6-0.4-1.1-0.9-1.5-1.6
		c-0.3-0.7-0.5-1.5-0.5-2.5c0-1.5,0.4-2.6,1.1-3.5c0.7-0.8,1.8-1.2,3.1-1.2c1.3,0,2.3,0.4,3,1.3C154.3,39.6,154.7,40.8,154.7,42.2z
		 M147.8,42.2c0,1.2,0.2,2,0.7,2.7c0.5,0.6,1.1,0.9,2.1,0.9s1.6-0.3,2.1-0.9c0.5-0.6,0.7-1.5,0.7-2.7c0-1.2-0.2-2-0.7-2.6
		c-0.5-0.6-1.2-0.9-2.1-0.9c-0.9,0-1.6,0.3-2,0.9S147.8,41,147.8,42.2z"/>
	<path class="st0" d="M160.8,46.9c-1.3,0-2.2-0.3-2.9-1c-0.6-0.7-1-1.8-1-3.2v-5h1.4v4.9c0,1.1,0.2,1.9,0.7,2.4
		c0.4,0.5,1.1,0.8,1.9,0.8c0.9,0,1.6-0.3,2.1-1c0.4-0.7,0.7-1.7,0.7-3.1c0-0.7,0-1.4-0.1-2s-0.2-1.3-0.4-2.1h1.4
		c0.2,0.8,0.3,1.5,0.4,2.1s0.1,1.3,0.1,2c0,1.8-0.4,3.1-1.1,3.9S162.2,46.9,160.8,46.9z"/>
	<path class="st0" d="M166,37.7h1.4l1.8,4.9c0.1,0.4,0.3,0.9,0.6,1.5c0.2,0.7,0.4,1.2,0.5,1.5h0.1c1-1,1.7-2.1,2.1-3.3
		s0.7-2.8,0.7-4.6h1.4c0,2-0.3,3.7-0.9,5.1c-0.6,1.4-1.5,2.7-2.7,4h-1.5L166,37.7z"/>
	<path class="st0" d="M184.3,46.9c-1.2,0-2.1-0.4-2.8-1.2c-0.7-0.8-1-2-1-3.5c0-1.5,0.3-2.7,1-3.5c0.7-0.8,1.6-1.2,2.9-1.2
		c0.7,0,1.2,0.1,1.7,0.3s0.8,0.6,1.1,1h0.1c0.1-0.5,0.3-0.9,0.5-1.2h1.1c-0.1,0.4-0.2,0.9-0.3,1.6c-0.1,0.7-0.1,1.3-0.1,2v3.6
		c0,0.6,0.2,0.9,0.7,0.9c0.2,0,0.3,0,0.5-0.1v1c-0.3,0.1-0.6,0.2-0.9,0.2c-0.4,0-0.8-0.1-1-0.3c-0.2-0.2-0.4-0.6-0.5-1.1h-0.1
		c-0.3,0.5-0.7,0.8-1.2,1.1C185.5,46.8,185,46.9,184.3,46.9z M184.5,45.8c0.9,0,1.6-0.3,2-0.8c0.4-0.5,0.6-1.4,0.6-2.6v-0.1
		c0-1.3-0.2-2.2-0.6-2.7c-0.4-0.6-1.1-0.8-2-0.8c-1.7,0-2.5,1.2-2.5,3.6c0,1.2,0.2,2.1,0.6,2.6C183,45.5,183.7,45.8,184.5,45.8z"/>
	<path class="st0" d="M195.2,46.9c-1.3,0-2.2-0.3-2.9-1c-0.6-0.7-1-1.8-1-3.2v-5h1.4v4.9c0,1.1,0.2,1.9,0.7,2.4
		c0.4,0.5,1.1,0.8,1.9,0.8c0.9,0,1.6-0.3,2.1-1s0.7-1.7,0.7-3.1c0-0.7,0-1.4-0.1-2c-0.1-0.6-0.2-1.3-0.4-2.1h1.4
		c0.2,0.8,0.3,1.5,0.4,2.1c0.1,0.6,0.1,1.3,0.1,2c0,1.8-0.4,3.1-1.1,3.9S196.6,46.9,195.2,46.9z"/>
	<path class="st0" d="M208,37.7v1.2h-3.6V44c0,1.2,0.6,1.9,1.7,1.9c0.3,0,0.5,0,0.8-0.1s0.5-0.1,0.6-0.1v1c-0.2,0.1-0.4,0.1-0.8,0.2
		c-0.3,0-0.6,0.1-0.9,0.1c-1,0-1.7-0.2-2.2-0.7s-0.7-1.2-0.7-2.1v-5.3h-2.5v-0.6l1.2-0.6H208z"/>
	<path class="st0" d="M216.1,50.8v-10c0-0.7-0.2-1.3-0.5-1.7c-0.3-0.4-0.9-0.5-1.6-0.5c-1,0-1.6,0.3-2.1,0.8s-0.7,1.4-0.7,2.5v4.8
		h-1.4v-9.1h1.1l0.2,1.2h0.1c0.3-0.4,0.7-0.8,1.2-1c0.5-0.2,1.1-0.4,1.7-0.4c1.1,0,1.9,0.3,2.5,0.8c0.6,0.5,0.8,1.4,0.8,2.5v10
		H216.1z M213.1,36.2c0.1-0.4,0.3-0.9,0.4-1.5c0.1-0.6,0.3-1.2,0.3-1.6h1.5v0.2c-0.1,0.4-0.3,0.9-0.6,1.6c-0.3,0.7-0.6,1.2-0.9,1.6
		h-0.8V36.2z"/>
	<path class="st0" d="M230.8,37.7v1.2h-3.6V44c0,1.2,0.6,1.9,1.7,1.9c0.3,0,0.5,0,0.8-0.1s0.5-0.1,0.6-0.1v1
		c-0.2,0.1-0.4,0.1-0.8,0.2c-0.3,0-0.6,0.1-0.9,0.1c-1,0-1.7-0.2-2.2-0.7s-0.7-1.2-0.7-2.1v-5.3h-2.5v-0.6l1.2-0.6H230.8z"/>
	<path class="st0" d="M239,50.8v-10c0-0.7-0.2-1.3-0.5-1.7c-0.3-0.4-0.9-0.5-1.6-0.5c-1,0-1.6,0.3-2.1,0.8s-0.7,1.4-0.7,2.5v4.8
		h-1.4v-9.1h1.1l0.2,1.2h0.1c0.3-0.4,0.7-0.8,1.2-1c0.5-0.2,1.1-0.4,1.7-0.4c1.1,0,1.9,0.3,2.5,0.8c0.6,0.5,0.8,1.4,0.8,2.5v10H239z
		"/>
	<path class="st0" d="M241.7,37.7h1.4l1.8,4.9c0.1,0.4,0.3,0.9,0.6,1.5s0.4,1.2,0.5,1.5h0.1c1-1,1.7-2.1,2.1-3.3
		c0.4-1.2,0.7-2.8,0.7-4.6h1.4c0,2-0.3,3.7-0.9,5.1c-0.6,1.4-1.5,2.7-2.7,4h-1.5L241.7,37.7z"/>
	<path class="st0" d="M260.6,46.9c-1.3,0-2.2-0.3-2.9-1c-0.6-0.7-1-1.8-1-3.2v-5h1.4v4.9c0,1.1,0.2,1.9,0.7,2.4
		c0.4,0.5,1.1,0.8,1.9,0.8c0.9,0,1.6-0.3,2.1-1s0.7-1.7,0.7-3.1c0-0.7,0-1.4-0.1-2c-0.1-0.6-0.2-1.3-0.4-2.1h1.4
		c0.2,0.8,0.3,1.5,0.4,2.1c0.1,0.6,0.1,1.3,0.1,2c0,1.8-0.4,3.1-1.1,3.9S262,46.9,260.6,46.9z"/>
	<path class="st0" d="M275.2,45.8c0.2,0,0.4-0.1,0.7-0.2v1.1c-0.2,0.1-0.6,0.2-1.1,0.2c-1.2,0-1.8-0.7-1.8-2.1v-6h-4v7.9h-1.4v-7.9
		h-1.8v-0.6l1.2-0.6h9.1v1.2h-1.8v5.9c0,0.4,0.1,0.7,0.2,0.8C274.8,45.7,275,45.8,275.2,45.8z"/>
	<path class="st0" d="M284.4,50.8v-10c0-0.7-0.2-1.3-0.5-1.7c-0.3-0.4-0.9-0.5-1.6-0.5c-1,0-1.6,0.3-2.1,0.8s-0.7,1.4-0.7,2.5v4.8
		h-1.4v-9.1h1.1l0.2,1.2h0.1c0.3-0.4,0.7-0.8,1.2-1c0.5-0.2,1.1-0.4,1.7-0.4c1.1,0,1.9,0.3,2.5,0.8c0.6,0.5,0.8,1.4,0.8,2.5v10
		H284.4z"/>
	<path class="st0" d="M296.5,42.2c0,1.5-0.4,2.7-1.1,3.5c-0.7,0.8-1.7,1.2-3,1.2c-1,0-1.8-0.3-2.5-0.8h-0.1c0,0.3,0.1,1.1,0.1,2.3
		v2.4h-1.4v-8.8c0-1.5,0.3-2.6,1-3.4c0.7-0.8,1.7-1.2,3-1.2c1.2,0,2.2,0.4,2.9,1.3C296.2,39.6,296.5,40.7,296.5,42.2z M292.5,38.7
		c-0.9,0-1.5,0.3-1.9,0.9c-0.4,0.6-0.6,1.4-0.6,2.6v2.8c0.7,0.6,1.5,0.8,2.5,0.8c0.9,0,1.5-0.3,2-0.9c0.4-0.6,0.6-1.5,0.6-2.7
		c0-1.2-0.2-2.1-0.6-2.7S293.4,38.7,292.5,38.7z"/>
	<path class="st0" d="M303.4,41.4v1.2h-1.2c-1.7,0-2.6,0.5-2.6,1.6c0,0.5,0.2,0.9,0.6,1.2c0.4,0.3,1,0.4,1.8,0.4
		c0.5,0,0.9-0.1,1.4-0.2c0.5-0.1,1-0.3,1.5-0.6v1.2c-0.8,0.4-1.7,0.6-3,0.6c-1.2,0-2.1-0.2-2.7-0.7s-1-1.1-1-1.9
		c0-0.5,0.2-1,0.5-1.4c0.3-0.4,0.8-0.7,1.5-0.9V42c-0.5-0.2-1-0.4-1.3-0.8c-0.3-0.4-0.4-0.8-0.4-1.3c0-0.7,0.3-1.3,0.9-1.8
		c0.6-0.4,1.5-0.7,2.5-0.7c0.5,0,1,0,1.5,0.1c0.5,0.1,1,0.3,1.5,0.5l-0.5,1.1c-0.5-0.2-1-0.4-1.3-0.5c-0.4-0.1-0.8-0.1-1.2-0.1
		c-1.4,0-2.1,0.4-2.1,1.3c0,1,0.9,1.4,2.6,1.4H303.4z"/>
	<path class="st0" d="M314.8,42.5c0,0.9-0.2,1.6-0.5,2.3c-0.3,0.7-0.8,1.2-1.5,1.5c-0.6,0.4-1.4,0.5-2.2,0.5c-1.3,0-2.3-0.4-3-1.2
		s-1.1-1.9-1.1-3.3c0-3.2,1.6-4.8,4.9-4.8h4.1v1.2h-2.2C314.3,39.8,314.8,41,314.8,42.5z M307.9,42.4c0,1.1,0.2,1.9,0.7,2.5
		s1.2,0.9,2,0.9c0.9,0,1.6-0.3,2-0.8c0.5-0.5,0.7-1.3,0.7-2.3c0-1.5-0.5-2.8-1.4-3.8h-0.5c-1.2,0-2.1,0.3-2.7,0.9
		C308.2,40.3,307.9,41.2,307.9,42.4z"/>
	<path class="st0" d="M318.7,37.7v6.4c0,0.6,0.1,1,0.3,1.3s0.5,0.4,1,0.4c0.2,0,0.4,0,0.7-0.1s0.5-0.1,0.6-0.1v1.1
		c-0.2,0.1-0.4,0.1-0.7,0.2c-0.3,0-0.6,0.1-0.9,0.1c-0.9,0-1.5-0.2-1.9-0.7s-0.6-1.2-0.6-2.1v-6.5H318.7z M317.5,36.2
		c0.1-0.4,0.3-0.9,0.4-1.5c0.1-0.6,0.3-1.2,0.3-1.6h1.5v0.2c-0.1,0.4-0.3,0.9-0.6,1.6c-0.3,0.7-0.6,1.2-0.9,1.6h-0.8V36.2z"/>
	<path class="st0" d="M326.4,46.9c-1.2,0-2.1-0.4-2.8-1.2c-0.7-0.8-1-2-1-3.5c0-1.5,0.3-2.7,1-3.5c0.7-0.8,1.6-1.2,2.9-1.2
		c0.7,0,1.2,0.1,1.7,0.3s0.8,0.6,1.1,1h0.1c0.1-0.5,0.3-0.9,0.5-1.2h1.1c-0.1,0.4-0.2,0.9-0.3,1.6c-0.1,0.7-0.1,1.3-0.1,2v3.6
		c0,0.6,0.2,0.9,0.7,0.9c0.2,0,0.3,0,0.5-0.1v1c-0.3,0.1-0.6,0.2-0.9,0.2c-0.4,0-0.8-0.1-1-0.3c-0.2-0.2-0.4-0.6-0.5-1.1h-0.1
		c-0.3,0.5-0.7,0.8-1.2,1.1C327.6,46.8,327.1,46.9,326.4,46.9z M326.6,45.8c0.9,0,1.6-0.3,2-0.8c0.4-0.5,0.6-1.4,0.6-2.6v-0.1
		c0-1.3-0.2-2.2-0.6-2.7c-0.4-0.6-1.1-0.8-2-0.8c-1.7,0-2.5,1.2-2.5,3.6c0,1.2,0.2,2.1,0.6,2.6C325.1,45.5,325.8,45.8,326.6,45.8z"
		/>
</g>
</svg>
