<?xml version="1.0" encoding="utf-8"?>
<!-- Generator: Adobe Illustrator 24.0.0, SVG Export Plug-In . SVG Version: 6.00 Build 0)  -->
<svg version="1.1" id="Layer_1" xmlns="http://www.w3.org/2000/svg" xmlns:xlink="http://www.w3.org/1999/xlink" x="0px" y="0px"
	 viewBox="0 0 196 122.1" style="enable-background:new 0 0 196 122.1;" xml:space="preserve">
<style type="text/css">
	.st0{fill:#F5F5F5;}
	.st1{fill:#606060;}
	.st2{fill:#52B266;}
</style>
<g>
	<path class="st0" d="M182,120.5H14c-6.3,0-11.4-5.1-11.4-11.4V13C2.6,6.7,7.7,1.6,14,1.6H182c6.3,0,11.4,5.1,11.4,11.4v96.1
		C193.4,115.4,188.3,120.5,182,120.5z"/>
	<path class="st1" d="M182,121.5H14c-6.8,0-12.4-5.6-12.4-12.4V13C1.6,6.2,7.2,0.6,14,0.6H182c6.8,0,12.4,5.6,12.4,12.4v96.1
		C194.4,115.9,188.8,121.5,182,121.5z M14,2.6C8.3,2.6,3.6,7.3,3.6,13v96.1c0,5.7,4.7,10.4,10.4,10.4H182c5.7,0,10.4-4.7,10.4-10.4
		V13c0-5.7-4.7-10.4-10.4-10.4H14z"/>
</g>
<g>
	<path class="st2" d="M50.1,19.5h8c3.6,0,6.3,0.5,7.9,1.6s2.5,2.7,2.5,4.9c0,1.5-0.4,2.8-1.1,3.8s-1.7,1.6-2.9,1.8v0.2
		c1.6,0.4,2.8,1,3.5,2s1.1,2.3,1.1,4c0,2.3-0.8,4.2-2.5,5.5s-4,2-6.9,2h-9.6V19.5z M55.6,29.6h3.2c1.5,0,2.5-0.2,3.2-0.7
		s1-1.2,1-2.3c0-1-0.4-1.7-1.1-2.1s-1.9-0.6-3.4-0.6h-2.9V29.6z M55.6,34v6.7h3.6c1.5,0,2.6-0.3,3.3-0.9s1.1-1.5,1.1-2.6
		C63.5,35,62,34,59,34H55.6z"/>
	<path class="st2" d="M90.1,45.2L88.2,39h-9.4L77,45.2h-5.9l9.1-25.8h6.7l9.1,25.8H90.1z M86.9,34.5c-1.7-5.5-2.7-8.7-2.9-9.4
		s-0.4-1.3-0.5-1.7c-0.4,1.5-1.5,5.2-3.3,11.1H86.9z"/>
	<path class="st2" d="M122,45.2H115l-11.2-19.4h-0.2c0.2,3.4,0.3,5.9,0.3,7.3v12.1h-4.9V19.5h6.9l11.2,19.2h0.1
		c-0.2-3.3-0.3-5.7-0.3-7.1V19.5h4.9V45.2z"/>
	<path class="st2" d="M149.1,45.2h-6.2l-6.7-10.8l-2.3,1.7v9.2h-5.4V19.5h5.4v11.8l2.1-3l7-8.7h6l-9,11.4L149.1,45.2z"/>
	<path class="st2" d="M20,88.4h-5.4V67.2h-7v-4.5H27v4.5h-7V88.4z"/>
	<path class="st2" d="M36.4,78.5v9.9H31V62.7h7.5c3.5,0,6.1,0.6,7.8,1.9s2.5,3.2,2.5,5.8c0,1.5-0.4,2.9-1.2,4s-2,2.1-3.5,2.8
		c3.9,5.8,6.4,9.5,7.6,11.2h-6l-6.1-9.9H36.4z M36.4,74.1h1.8c1.7,0,3-0.3,3.8-0.9s1.2-1.5,1.2-2.7c0-1.2-0.4-2.1-1.3-2.6
		s-2.1-0.8-3.9-0.8h-1.7V74.1z"/>
	<path class="st2" d="M70.5,88.4l-1.9-6.1h-9.4l-1.9,6.1h-5.9l9.1-25.8h6.7l9.1,25.8H70.5z M67.3,77.7c-1.7-5.5-2.7-8.7-2.9-9.4
		S64,67,63.9,66.5c-0.4,1.5-1.5,5.2-3.3,11.1H67.3z"/>
	<path class="st2" d="M102.4,88.4h-6.9L84.3,68.9h-0.2c0.2,3.4,0.3,5.9,0.3,7.3v12.1h-4.9V62.7h6.9l11.2,19.2h0.1
		c-0.2-3.3-0.3-5.7-0.3-7.1V62.7h4.9V88.4z"/>
	<path class="st2" d="M124,81.2c0,2.3-0.8,4.1-2.5,5.5s-4,2-7,2c-2.7,0-5.2-0.5-7.3-1.5v-5.1c1.7,0.8,3.2,1.3,4.4,1.6
		s2.3,0.5,3.3,0.5c1.2,0,2.1-0.2,2.8-0.7s1-1.1,1-2c0-0.5-0.1-1-0.4-1.3s-0.7-0.8-1.2-1.1s-1.7-0.9-3.3-1.7
		c-1.6-0.7-2.7-1.4-3.5-2.1s-1.4-1.5-1.9-2.4s-0.7-2-0.7-3.2c0-2.3,0.8-4.1,2.3-5.4s3.7-2,6.4-2c1.3,0,2.6,0.2,3.8,0.5
		s2.5,0.8,3.8,1.3l-1.8,4.2c-1.4-0.6-2.5-1-3.4-1.2s-1.8-0.3-2.6-0.3c-1,0-1.8,0.2-2.4,0.7s-0.8,1.1-0.8,1.9c0,0.5,0.1,0.9,0.3,1.3
		s0.6,0.7,1.1,1s1.6,0.9,3.5,1.8c2.4,1.1,4,2.3,4.9,3.5S124,79.5,124,81.2z"/>
	<path class="st2" d="M134,88.4h-5.4V62.7h14.7v4.5H134v6.6h8.7v4.4H134V88.4z"/>
	<path class="st2" d="M163.2,88.4h-14.8V62.7h14.8v4.5h-9.4v5.6h8.7v4.5h-8.7v6.6h9.4V88.4z"/>
	<path class="st2" d="M174,78.5v9.9h-5.4V62.7h7.5c3.5,0,6.1,0.6,7.8,1.9s2.5,3.2,2.5,5.8c0,1.5-0.4,2.9-1.2,4s-2,2.1-3.5,2.8
		c3.9,5.8,6.4,9.5,7.6,11.2h-6l-6.1-9.9H174z M174,74.1h1.8c1.7,0,3-0.3,3.8-0.9s1.2-1.5,1.2-2.7c0-1.2-0.4-2.1-1.3-2.6
		s-2.1-0.8-3.9-0.8H174V74.1z"/>
</g>
</svg>
