<?xml version="1.0" encoding="utf-8"?>
<!-- Generator: Adobe Illustrator 24.0.0, SVG Export Plug-In . SVG Version: 6.00 Build 0)  -->
<svg version="1.1" id="Layer_1" xmlns="http://www.w3.org/2000/svg" xmlns:xlink="http://www.w3.org/1999/xlink" x="0px" y="0px"
	 viewBox="0 0 196 122.1" style="enable-background:new 0 0 196 122.1;" xml:space="preserve">
<style type="text/css">
	.st0{fill-rule:evenodd;clip-rule:evenodd;fill:url(#SVGID_1_);}
	.st1{fill:url(#SVGID_2_);}
	.st2{fill-rule:evenodd;clip-rule:evenodd;fill:url(#SVGID_3_);}
	.st3{fill:url(#SVGID_4_);}
	.st4{fill:#D6D6D6;}
	.st5{fill-rule:evenodd;clip-rule:evenodd;fill:#D6D6D6;}
</style>
<g>
	<g>
		<g>
			<linearGradient id="SVGID_1_" gradientUnits="userSpaceOnUse" x1="61.6521" y1="153.7098" x2="136.2435" y2="-36.4453">
				<stop  offset="0" style="stop-color:#001D83"/>
				<stop  offset="0.4684" style="stop-color:#265BAA"/>
				<stop  offset="1" style="stop-color:#4E9ED4"/>
			</linearGradient>
			<path class="st0" d="M196,114.6c0,4.1-3.4,7.5-7.5,7.5H7.5c-4.1,0-7.5-3.4-7.5-7.5V7.5C0,3.4,3.4,0,7.5,0h181
				c4.1,0,7.5,3.4,7.5,7.5V114.6z"/>
			<linearGradient id="SVGID_2_" gradientUnits="userSpaceOnUse" x1="194.5184" y1="58.5533" x2="-100.0897" y2="68.3738">
				<stop  offset="0" style="stop-color:#000D52"/>
				<stop  offset="0.258" style="stop-color:#020F53"/>
				<stop  offset="0.38" style="stop-color:#0A1659"/>
				<stop  offset="0.4735" style="stop-color:#172261"/>
				<stop  offset="0.5526" style="stop-color:#29346E"/>
				<stop  offset="0.6224" style="stop-color:#414B7E"/>
				<stop  offset="0.6858" style="stop-color:#5E6792"/>
				<stop  offset="0.7443" style="stop-color:#8188AA"/>
				<stop  offset="0.799" style="stop-color:#AAAFC5"/>
				<stop  offset="0.8486" style="stop-color:#D7D9E4"/>
				<stop  offset="0.8871" style="stop-color:#FFFFFF"/>
			</linearGradient>
			<path class="st1" d="M188.5,0H50.7l72.6,122.1h65.3c4.1,0,7.5-3.4,7.5-7.5V7.5C196,3.4,192.6,0,188.5,0z"/>
		</g>
		<g>
			<linearGradient id="SVGID_3_" gradientUnits="userSpaceOnUse" x1="31.7783" y1="26.5045" x2="31.7783" y2="78.6258">
				<stop  offset="0" style="stop-color:#FFCA3F"/>
				<stop  offset="9.693880e-02" style="stop-color:#CA7C22"/>
				<stop  offset="0.1888" style="stop-color:#FDDB7A"/>
				<stop  offset="0.4201" style="stop-color:#FFAD45"/>
				<stop  offset="0.5538" style="stop-color:#A95F0D"/>
				<stop  offset="0.6562" style="stop-color:#FFAD45"/>
				<stop  offset="0.7903" style="stop-color:#FFFF9B"/>
				<stop  offset="0.868" style="stop-color:#FFED7C"/>
				<stop  offset="1" style="stop-color:#FFCA3F"/>
			</linearGradient>
			<path class="st2" d="M44.8,49c0,2.1-1.7,3.7-3.7,3.7H22.5c-2.1,0-3.7-1.7-3.7-3.7V35.8c0-2.1,1.7-3.7,3.7-3.7h18.6
				c2.1,0,3.7,1.7,3.7,3.7V49z"/>
			<linearGradient id="SVGID_4_" gradientUnits="userSpaceOnUse" x1="31.7783" y1="13.8714" x2="31.7783" y2="79.1311">
				<stop  offset="0" style="stop-color:#FFCA3F"/>
				<stop  offset="9.693880e-02" style="stop-color:#CA7C22"/>
				<stop  offset="0.1888" style="stop-color:#FDDB7A"/>
				<stop  offset="0.4201" style="stop-color:#FFAD45"/>
				<stop  offset="0.5538" style="stop-color:#A95F0D"/>
				<stop  offset="0.6562" style="stop-color:#FFAD45"/>
				<stop  offset="0.7903" style="stop-color:#FFFF9B"/>
				<stop  offset="0.868" style="stop-color:#FFED7C"/>
				<stop  offset="1" style="stop-color:#FFCA3F"/>
			</linearGradient>
			<path class="st3" d="M44.8,38.6v-0.5H40v-6h-0.5v6h-3.9c-0.5-1.6-1.9-2.8-3.7-3v-3.1h-0.5v3c-1.9,0-3.5,1.3-4,3H24v-6h-0.5v6
				h-4.8v0.5h4.8v6.8h-4.8v0.5h4.8v6.9H24v-6.9h3.4c0.4,1.9,2.1,3.3,4.1,3.3v3.6H32v-3.6c1.9-0.2,3.4-1.5,3.8-3.3h3.8v6.9H40v-6.9
				h4.8v-0.5H42v-6.8H44.8z M27.4,45.3H24v-6.8h3.4c0,0.3-0.1,0.5-0.1,0.8c0,1,0.4,2,1,2.7c-0.7,0.8-1,1.7-1,2.7
				C27.3,45,27.4,45.2,27.4,45.3z M31.6,48.7c-2.1,0-3.8-1.7-3.8-3.8c0-1,0.4-1.9,1-2.6l0.1-0.2L28.8,42c-0.7-0.7-1-1.6-1-2.6
				c0-2.1,1.7-3.8,3.8-3.8c2.1,0,3.8,1.7,3.8,3.8c0,1-0.4,1.9-1,2.6l-0.2,0.2l0.2,0.2c0.7,0.7,1,1.6,1,2.6
				C35.4,47,33.7,48.7,31.6,48.7z M41.5,45.3h-5.6c0-0.2,0-0.3,0-0.5c0-1-0.4-2-1-2.7c0.7-0.8,1-1.7,1-2.7c0-0.3,0-0.5-0.1-0.8h5.7
				V45.3z"/>
		</g>
		<g>
			<path class="st4" d="M19.8,67l-0.6-0.6l1.8-2h1.5v9.1h-1v-8c0-0.2,0-0.3,0-0.3l0,0L19.8,67z"/>
			<path class="st4" d="M24.5,73.5v-1.4c0-0.2,0-0.3,0-0.3c0,0,0.1-0.1,0.2-0.2l4.3-3.9c0.1-0.1,0.2-0.2,0.2-0.3c0-0.1,0-0.2,0-0.4
				v-1.2c0-0.1,0-0.2,0-0.3c0,0-0.1-0.1-0.1-0.1c-0.1-0.1-0.1-0.1-0.2-0.1c0,0-0.1,0-0.3,0h-2.3c-0.2,0-0.3,0-0.3,0
				c0,0-0.1,0-0.2,0.1c-0.1,0.1-0.1,0.1-0.1,0.1c0,0,0,0.1,0,0.3v0.2h-1.1v-0.5c0-0.3,0.1-0.5,0.3-0.7l0.3-0.3
				c0.2-0.2,0.4-0.3,0.6-0.3h3.3c0.2,0,0.4,0.1,0.6,0.3l0.3,0.3c0.2,0.2,0.3,0.4,0.3,0.7v1.8c0,0.2,0,0.3,0,0.4
				c0,0.1-0.1,0.2-0.2,0.3L25.9,72c-0.1,0.1-0.2,0.2-0.2,0.3c0,0.1,0,0.2,0,0.3v0.1h4.8v0.9H24.5z"/>
			<path class="st4" d="M37.6,68.9l0.5,0.4c0.1,0.1,0.2,0.2,0.2,0.2c0,0.1,0,0.2,0,0.4v2.4c0,0.2,0,0.3,0,0.4c0,0.1-0.1,0.2-0.2,0.3
				l-0.2,0.2c-0.2,0.2-0.4,0.3-0.6,0.3h-3.7c-0.2,0-0.4-0.1-0.6-0.3L32.7,73c-0.2-0.2-0.3-0.4-0.3-0.6v-0.5h1.1v0.2
				c0,0.1,0,0.2,0,0.3c0,0,0.1,0.1,0.1,0.1c0.1,0.1,0.1,0.1,0.2,0.1c0,0,0.1,0,0.3,0h2.6c0.2,0,0.3,0,0.3,0c0,0,0.1,0,0.2-0.1
				c0.1-0.1,0.1-0.1,0.1-0.1c0,0,0-0.1,0-0.3v-2c0-0.2-0.1-0.4-0.2-0.5l-0.2-0.2c-0.1-0.1-0.2-0.2-0.3-0.2c-0.1,0-0.2,0-0.3,0h-2.1
				v-0.8h1.9c0.2,0,0.3,0,0.3,0c0.1,0,0.1-0.1,0.3-0.2l0.2-0.2c0.1-0.1,0.2-0.2,0.2-0.2c0,0,0-0.2,0-0.3v-1.6c0-0.1,0-0.2,0-0.3
				c0,0-0.1-0.1-0.1-0.1c-0.1-0.1-0.1-0.1-0.2-0.1c0,0-0.1,0-0.3,0h-2.1c-0.2,0-0.3,0-0.3,0c0,0-0.1,0-0.2,0.1
				c-0.1,0.1-0.1,0.1-0.1,0.1c0,0,0,0.1,0,0.3v0.2h-1.1v-0.5c0-0.3,0.1-0.5,0.3-0.7l0.3-0.3c0.2-0.2,0.4-0.3,0.6-0.3H37
				c0.2,0,0.4,0.1,0.6,0.3l0.3,0.3c0.2,0.2,0.3,0.4,0.3,0.7v2.1c0,0.1,0,0.2,0,0.3c0,0-0.1,0.1-0.2,0.2l-0.4,0.3
				c-0.1,0.1-0.3,0.2-0.4,0.2v0.1C37.4,68.7,37.5,68.8,37.6,68.9z"/>
			<path class="st4" d="M44.8,67.9h1.1v2.6h1.2v0.9h-1.2v2.1h-1.1v-2.1h-4.6v-1.1l4.4-6h1.2l-4.3,5.8c-0.1,0.1-0.2,0.2-0.2,0.2v0.1
				h3.5V67.9z"/>
			<path class="st4" d="M60.9,67.5h2.9c0.2,0,0.4,0.1,0.6,0.3l0.3,0.3c0.2,0.2,0.3,0.4,0.3,0.6v3.6c0,0.3-0.1,0.5-0.3,0.6l-0.3,0.3
				c-0.2,0.2-0.4,0.3-0.6,0.3H60c-0.2,0-0.4-0.1-0.6-0.3L59,73c-0.2-0.2-0.3-0.4-0.3-0.6v-0.5h1.1v0.2c0,0.1,0,0.2,0,0.3
				c0,0,0.1,0.1,0.1,0.1c0.1,0.1,0.1,0.1,0.2,0.1c0,0,0.1,0,0.3,0h2.9c0.2,0,0.3,0,0.3,0c0,0,0.1,0,0.2-0.1c0.1-0.1,0.1-0.1,0.1-0.1
				c0,0,0-0.1,0-0.3V69c0-0.1,0-0.2,0-0.3c0,0-0.1-0.1-0.1-0.1c-0.1-0.1-0.1-0.1-0.2-0.1c0,0-0.1,0-0.3,0h-2.5
				c-0.2,0-0.4,0.1-0.6,0.3c-0.2,0.2-0.3,0.3-0.3,0.5h-1.1v-4.8H65v0.9h-5v2.8H60c0-0.1,0.1-0.2,0.3-0.4
				C60.6,67.6,60.8,67.5,60.9,67.5z"/>
			<path class="st4" d="M73.9,66.1h-1.1v-0.2c0-0.1,0-0.2,0-0.3c0,0-0.1-0.1-0.1-0.1c-0.1-0.1-0.1-0.1-0.2-0.1c0,0-0.1,0-0.3,0h-3.1
				c-0.2,0-0.3,0-0.3,0c0,0-0.1,0-0.2,0.1c-0.1,0.1-0.1,0.1-0.1,0.1c0,0,0,0.1,0,0.3v2.6h0.1l0.1-0.1c0.3-0.3,0.5-0.5,0.7-0.5h3.5
				c0.2,0,0.4,0.1,0.6,0.3l0.3,0.3c0.2,0.2,0.3,0.4,0.3,0.7v3.2c0,0.3-0.1,0.5-0.3,0.6l-0.3,0.3c-0.2,0.2-0.4,0.3-0.6,0.3h-4.2
				c-0.2,0-0.4-0.1-0.6-0.3L67.6,73c-0.2-0.2-0.3-0.4-0.3-0.6v-6.8c0-0.3,0.1-0.5,0.3-0.7l0.3-0.3c0.2-0.2,0.4-0.3,0.6-0.3h4.1
				c0.2,0,0.4,0.1,0.6,0.3l0.3,0.3c0.2,0.2,0.3,0.4,0.3,0.7V66.1z M73,72.1v-2.7c0-0.1,0-0.2,0-0.3c0,0-0.1-0.1-0.1-0.1
				c-0.1-0.1-0.1-0.1-0.2-0.1c0,0-0.1,0-0.3,0h-2.9c-0.2,0-0.3,0-0.3,0c-0.1,0-0.2,0.1-0.3,0.2c-0.2,0.1-0.3,0.2-0.3,0.3v2.7
				c0,0.1,0,0.2,0,0.3c0,0,0.1,0.1,0.1,0.1c0.1,0.1,0.1,0.1,0.2,0.1c0,0,0.1,0,0.3,0h3.2c0.2,0,0.3,0,0.3,0c0,0,0.1,0,0.2-0.1
				c0.1-0.1,0.1-0.1,0.1-0.1C72.9,72.3,73,72.2,73,72.1z"/>
			<path class="st4" d="M76.6,73.5l4.3-7.9c0.1-0.1,0.2-0.2,0.2-0.3h-5.6v-0.9h6.7v1l-4.3,8.1H76.6z"/>
			<path class="st4" d="M84.3,69.5l0.6-0.5c0.1-0.1,0.3-0.2,0.4-0.2v-0.1c-0.1,0-0.2-0.1-0.4-0.2l-0.4-0.3c-0.1-0.1-0.2-0.3-0.2-0.4
				v-2.2c0-0.3,0.1-0.5,0.3-0.7l0.3-0.3c0.2-0.2,0.4-0.3,0.6-0.3h4c0.2,0,0.4,0.1,0.6,0.3l0.3,0.3c0.2,0.2,0.3,0.4,0.3,0.7v2.2
				c0,0.2-0.1,0.3-0.2,0.4l-0.4,0.3c-0.1,0.1-0.3,0.2-0.4,0.2v0.1c0.1,0,0.2,0.1,0.4,0.2l0.6,0.5c0.1,0.1,0.2,0.3,0.2,0.5v2.3
				c0,0.3-0.1,0.5-0.3,0.6c-0.1,0.1-0.2,0.1-0.3,0.3c-0.2,0.2-0.4,0.3-0.6,0.3h-4.3c-0.2,0-0.4-0.1-0.6-0.3
				c-0.1-0.1-0.2-0.2-0.3-0.3c-0.2-0.2-0.3-0.4-0.3-0.6V70C84.1,69.8,84.2,69.6,84.3,69.5z M88.8,69.4h-2.6c-0.1,0-0.2,0-0.3,0
				c0,0-0.1,0.1-0.2,0.1l-0.3,0.2c-0.1,0.1-0.2,0.2-0.2,0.2c0,0,0,0.1,0,0.3v1.8c0,0.1,0,0.2,0,0.3c0,0,0.1,0.1,0.1,0.1
				c0.1,0.1,0.1,0.1,0.2,0.1c0,0,0.1,0,0.3,0h3.3c0.2,0,0.3,0,0.3,0c0,0,0.1,0,0.2-0.1c0.1-0.1,0.1-0.1,0.1-0.1c0,0,0-0.1,0-0.3
				v-1.8c0-0.1,0-0.2,0-0.3c0,0-0.1-0.1-0.2-0.2l-0.3-0.2c-0.1-0.1-0.2-0.1-0.2-0.1C89,69.4,88.9,69.4,88.8,69.4z M89,65.3h-3
				c-0.2,0-0.3,0-0.3,0c0,0-0.1,0-0.2,0.1c-0.1,0.1-0.1,0.1-0.1,0.1c0,0,0,0.1,0,0.3v1.7c0,0.1,0,0.2,0,0.3c0,0,0.1,0.1,0.2,0.2
				l0.3,0.3c0.1,0.1,0.2,0.1,0.2,0.1c0,0,0.2,0,0.3,0h2.2c0.2,0,0.3,0,0.3,0c0,0,0.1-0.1,0.2-0.1l0.3-0.3c0.1-0.1,0.2-0.2,0.2-0.2
				c0,0,0-0.1,0-0.3v-1.7c0-0.1,0-0.2,0-0.3c0,0-0.1-0.1-0.1-0.1c-0.1-0.1-0.1-0.1-0.2-0.1C89.2,65.3,89.1,65.3,89,65.3z"/>
			<path class="st4" d="M103,71.8h1.1v0.2c0,0.1,0,0.2,0,0.3c0,0,0.1,0.1,0.1,0.1c0.1,0.1,0.1,0.1,0.2,0.1c0,0,0.1,0,0.3,0h3.1
				c0.2,0,0.3,0,0.3,0c0,0,0.1,0,0.2-0.1c0.1-0.1,0.1-0.1,0.1-0.1c0,0,0-0.1,0-0.3v-2.6h-0.1l-0.1,0.1c-0.3,0.3-0.5,0.5-0.7,0.5
				h-3.5c-0.2,0-0.4-0.1-0.6-0.3l-0.3-0.3c-0.2-0.2-0.3-0.4-0.3-0.6v-3.2c0-0.3,0.1-0.5,0.3-0.7l0.3-0.3c0.2-0.2,0.4-0.3,0.6-0.3
				h4.2c0.2,0,0.4,0.1,0.6,0.3l0.3,0.3c0.2,0.2,0.3,0.4,0.3,0.7v6.8c0,0.3-0.1,0.5-0.3,0.6l-0.3,0.3c-0.2,0.2-0.4,0.3-0.6,0.3h-4.1
				c-0.2,0-0.4-0.1-0.6-0.3l-0.3-0.3c-0.2-0.2-0.3-0.4-0.3-0.6V71.8z M103.9,65.9v2.7c0,0.1,0,0.2,0,0.3s0.1,0.1,0.1,0.1
				c0.1,0.1,0.1,0.1,0.2,0.1c0,0,0.1,0,0.3,0h2.9c0.2,0,0.3,0,0.3,0c0.1,0,0.2-0.1,0.3-0.2c0.2-0.1,0.3-0.2,0.3-0.3v-2.7
				c0-0.1,0-0.2,0-0.3c0,0-0.1-0.1-0.1-0.1c-0.1-0.1-0.1-0.1-0.2-0.1c0,0-0.1,0-0.3,0h-3.2c-0.2,0-0.3,0-0.3,0c0,0-0.1,0-0.2,0.1
				c-0.1,0.1-0.1,0.1-0.1,0.1C103.9,65.6,103.9,65.7,103.9,65.9z"/>
			<path class="st4" d="M113.1,64.4h5.1c0.2,0,0.4,0.1,0.6,0.3l0.3,0.3c0.2,0.2,0.3,0.4,0.3,0.7v6.8c0,0.3-0.1,0.5-0.3,0.6l-0.3,0.3
				c-0.2,0.2-0.4,0.3-0.6,0.3h-5.1c-0.2,0-0.4-0.1-0.6-0.3l-0.3-0.3c-0.2-0.2-0.3-0.4-0.3-0.6v-6.8c0-0.3,0.1-0.5,0.3-0.7l0.3-0.3
				C112.7,64.5,112.9,64.4,113.1,64.4z M118.4,72.1v-6.2c0-0.1,0-0.2,0-0.3c0,0-0.1-0.1-0.1-0.1c-0.1-0.1-0.1-0.1-0.2-0.1
				c0,0-0.1,0-0.3,0h-4.2c-0.2,0-0.3,0-0.3,0c0,0-0.1,0-0.2,0.1c-0.1,0.1-0.1,0.1-0.1,0.1c0,0,0,0.1,0,0.3v6.2c0,0.1,0,0.2,0,0.3
				c0,0,0.1,0.1,0.1,0.1c0.1,0.1,0.1,0.1,0.2,0.1c0,0,0.1,0,0.3,0h4.2c0.2,0,0.3,0,0.3,0c0,0,0.1,0,0.2-0.1c0.1-0.1,0.1-0.1,0.1-0.1
				C118.4,72.3,118.4,72.2,118.4,72.1z"/>
			<path class="st4" d="M122,67l-0.6-0.6l1.8-2h1.5v9.1h-1v-8c0-0.2,0-0.3,0-0.3l0,0L122,67z"/>
			<path class="st4" d="M126.7,73.5v-1.4c0-0.2,0-0.3,0-0.3c0,0,0.1-0.1,0.2-0.2l4.3-3.9c0.1-0.1,0.2-0.2,0.2-0.3c0-0.1,0-0.2,0-0.4
				v-1.2c0-0.1,0-0.2,0-0.3c0,0-0.1-0.1-0.1-0.1c-0.1-0.1-0.1-0.1-0.2-0.1c0,0-0.1,0-0.3,0h-2.3c-0.2,0-0.3,0-0.3,0
				c0,0-0.1,0-0.2,0.1c-0.1,0.1-0.1,0.1-0.1,0.1c0,0,0,0.1,0,0.3v0.2h-1.1v-0.5c0-0.3,0.1-0.5,0.3-0.7l0.3-0.3
				c0.2-0.2,0.4-0.3,0.6-0.3h3.3c0.2,0,0.4,0.1,0.6,0.3l0.3,0.3c0.2,0.2,0.3,0.4,0.3,0.7v1.8c0,0.2,0,0.3,0,0.4
				c0,0.1-0.1,0.2-0.2,0.3l-4.3,3.9c-0.1,0.1-0.2,0.2-0.2,0.3c0,0.1,0,0.2,0,0.3v0.1h4.8v0.9H126.7z"/>
			<path class="st4" d="M149.6,68.9l0.5,0.4c0.1,0.1,0.2,0.2,0.2,0.2c0,0.1,0,0.2,0,0.4v2.4c0,0.2,0,0.3,0,0.4
				c0,0.1-0.1,0.2-0.2,0.3l-0.2,0.2c-0.2,0.2-0.4,0.3-0.6,0.3h-3.7c-0.2,0-0.4-0.1-0.6-0.3l-0.3-0.3c-0.2-0.2-0.3-0.4-0.3-0.6v-0.5
				h1.1v0.2c0,0.1,0,0.2,0,0.3c0,0,0.1,0.1,0.1,0.1c0.1,0.1,0.1,0.1,0.2,0.1c0,0,0.1,0,0.3,0h2.6c0.2,0,0.3,0,0.3,0
				c0,0,0.1,0,0.2-0.1c0.1-0.1,0.1-0.1,0.1-0.1c0,0,0-0.1,0-0.3v-2c0-0.2-0.1-0.4-0.2-0.5l-0.2-0.2c-0.1-0.1-0.2-0.2-0.3-0.2
				c-0.1,0-0.2,0-0.3,0h-2.1v-0.8h1.9c0.2,0,0.3,0,0.3,0c0.1,0,0.1-0.1,0.3-0.2l0.2-0.2c0.1-0.1,0.2-0.2,0.2-0.2c0,0,0-0.2,0-0.3
				v-1.6c0-0.1,0-0.2,0-0.3c0,0-0.1-0.1-0.1-0.1c-0.1-0.1-0.1-0.1-0.2-0.1c0,0-0.1,0-0.3,0h-2.1c-0.2,0-0.3,0-0.3,0
				c0,0-0.1,0-0.2,0.1c-0.1,0.1-0.1,0.1-0.1,0.1c0,0,0,0.1,0,0.3v0.2h-1.1v-0.5c0-0.3,0.1-0.5,0.3-0.7l0.3-0.3
				c0.2-0.2,0.4-0.3,0.6-0.3h3.1c0.2,0,0.4,0.1,0.6,0.3l0.3,0.3c0.2,0.2,0.3,0.4,0.3,0.7v2.1c0,0.1,0,0.2,0,0.3s-0.1,0.1-0.2,0.2
				l-0.4,0.3c-0.1,0.1-0.3,0.2-0.4,0.2v0.1C149.3,68.7,149.5,68.8,149.6,68.9z"/>
			<path class="st4" d="M156.8,67.9h1.1v2.6h1.2v0.9h-1.2v2.1h-1.1v-2.1h-4.6v-1.1l4.4-6h1.2l-4.3,5.8c-0.1,0.1-0.2,0.2-0.2,0.2v0.1
				h3.5V67.9z"/>
			<path class="st4" d="M163.2,67.5h2.9c0.2,0,0.4,0.1,0.6,0.3l0.3,0.3c0.2,0.2,0.3,0.4,0.3,0.6v3.6c0,0.3-0.1,0.5-0.3,0.6l-0.3,0.3
				c-0.2,0.2-0.4,0.3-0.6,0.3h-3.9c-0.2,0-0.4-0.1-0.6-0.3l-0.3-0.3c-0.2-0.2-0.3-0.4-0.3-0.6v-0.5h1.1v0.2c0,0.1,0,0.2,0,0.3
				c0,0,0.1,0.1,0.1,0.1c0.1,0.1,0.1,0.1,0.2,0.1c0,0,0.1,0,0.3,0h2.9c0.2,0,0.3,0,0.3,0c0,0,0.1,0,0.2-0.1c0.1-0.1,0.1-0.1,0.1-0.1
				c0,0,0-0.1,0-0.3V69c0-0.1,0-0.2,0-0.3c0,0-0.1-0.1-0.1-0.1c-0.1-0.1-0.1-0.1-0.2-0.1c0,0-0.1,0-0.3,0h-2.5
				c-0.2,0-0.4,0.1-0.6,0.3c-0.2,0.2-0.3,0.3-0.3,0.5h-1.1v-4.8h6.1v0.9h-5v2.8h0.1c0-0.1,0.1-0.2,0.3-0.4
				C162.8,67.6,163,67.5,163.2,67.5z"/>
			<path class="st4" d="M176.1,66.1H175v-0.2c0-0.1,0-0.2,0-0.3c0,0-0.1-0.1-0.1-0.1c-0.1-0.1-0.1-0.1-0.2-0.1c0,0-0.1,0-0.3,0h-3.1
				c-0.2,0-0.3,0-0.3,0c0,0-0.1,0-0.2,0.1c-0.1,0.1-0.1,0.1-0.1,0.1c0,0,0,0.1,0,0.3v2.6h0.1l0.1-0.1c0.3-0.3,0.5-0.5,0.7-0.5h3.5
				c0.2,0,0.4,0.1,0.6,0.3l0.3,0.3c0.2,0.2,0.3,0.4,0.3,0.7v3.2c0,0.3-0.1,0.5-0.3,0.6l-0.3,0.3c-0.2,0.2-0.4,0.3-0.6,0.3h-4.2
				c-0.2,0-0.4-0.1-0.6-0.3l-0.3-0.3c-0.2-0.2-0.3-0.4-0.3-0.6v-6.8c0-0.3,0.1-0.5,0.3-0.7l0.3-0.3c0.2-0.2,0.4-0.3,0.6-0.3h4.1
				c0.2,0,0.4,0.1,0.6,0.3l0.3,0.3c0.2,0.2,0.3,0.4,0.3,0.7V66.1z M175.2,72.1v-2.7c0-0.1,0-0.2,0-0.3c0,0-0.1-0.1-0.1-0.1
				c-0.1-0.1-0.1-0.1-0.2-0.1c0,0-0.1,0-0.3,0h-2.9c-0.2,0-0.3,0-0.3,0c-0.1,0-0.2,0.1-0.3,0.2c-0.2,0.1-0.3,0.2-0.3,0.3v2.7
				c0,0.1,0,0.2,0,0.3c0,0,0.1,0.1,0.1,0.1c0.1,0.1,0.1,0.1,0.2,0.1c0,0,0.1,0,0.3,0h3.2c0.2,0,0.3,0,0.3,0c0,0,0.1,0,0.2-0.1
				c0.1-0.1,0.1-0.1,0.1-0.1C175.2,72.3,175.2,72.2,175.2,72.1z"/>
		</g>
		<g>
			<path class="st4" d="M24.5,101.9L24.5,101.9c0-0.2,0-0.4,0-0.5v-5.6h0.9v7.6h-0.9l-4-6.1l0,0c0.1,0.2,0.1,0.3,0.1,0.5v5.6h-0.9
				v-7.6h0.9L24.5,101.9z"/>
			<path class="st4" d="M30.9,102.8L30.9,102.8c0,0.1-0.1,0.2-0.3,0.3c-0.1,0.1-0.2,0.1-0.3,0.1c0,0-0.1,0-0.3,0h-1.9
				c-0.2,0-0.3-0.1-0.5-0.2l-0.3-0.2c-0.2-0.1-0.3-0.3-0.3-0.5V101c0-0.2,0.1-0.4,0.3-0.5l0.3-0.2c0.2-0.1,0.3-0.2,0.5-0.2h1.9
				c0.1,0,0.2,0,0.3,0c0,0,0.1,0,0.1,0.1c0.1,0.1,0.1,0.1,0.1,0.2h0v-1.3c0-0.1,0-0.2,0-0.2c0,0,0-0.1-0.1-0.1
				c-0.1,0-0.1-0.1-0.2-0.1c0,0-0.1,0-0.2,0h-1.8c-0.1,0-0.2,0-0.3,0c0,0-0.1,0.1-0.3,0.2l-0.7-0.5l0.3-0.2c0.1-0.1,0.2-0.2,0.3-0.2
				c0,0,0.1,0,0.3,0h2.5c0.2,0,0.3,0.1,0.5,0.2l0.3,0.2c0.2,0.1,0.3,0.3,0.3,0.5v3.2c0,0.1,0,0.2,0,0.2c0,0,0,0.1,0.1,0.1
				c0.1,0.1,0.1,0.1,0.1,0.1c0,0,0,0.1,0,0.2v0.5h-0.4c-0.1,0-0.2,0-0.3,0c0,0-0.1-0.1-0.2-0.1C31,103,30.9,102.9,30.9,102.8z
				 M28.1,101.2v0.8c0,0.1,0,0.2,0,0.2c0,0,0,0.1,0.1,0.1c0.1,0.1,0.1,0.1,0.2,0.1c0,0,0.1,0,0.2,0H30c0.1,0,0.2,0,0.3,0
				c0,0,0.1-0.1,0.3-0.1c0.1-0.1,0.2-0.1,0.2-0.2c0,0,0-0.1,0-0.2v-0.7c0-0.1,0-0.2,0-0.2c0,0,0-0.1-0.1-0.1
				c-0.1-0.1-0.1-0.1-0.2-0.1c0,0-0.1,0-0.2,0h-1.6c-0.1,0-0.2,0-0.2,0c0,0-0.1,0-0.2,0.1c-0.1,0.1-0.1,0.1-0.1,0.1
				C28.2,101.1,28.1,101.1,28.1,101.2z"/>
			<path class="st4" d="M37.5,98.4L37.5,98.4c0.1-0.1,0.1-0.1,0.2-0.2l0.2-0.1c0.1-0.1,0.2-0.1,0.3-0.1c0,0,0.1,0,0.3,0h1.7
				c0.2,0,0.3,0.1,0.5,0.2l0.3,0.2c0.2,0.1,0.3,0.3,0.3,0.5v4.4h-0.9v-4.2c0-0.1,0-0.2,0-0.2c0,0,0-0.1-0.1-0.1
				c-0.1,0-0.1-0.1-0.2-0.1c0,0-0.1,0-0.2,0h-1.2c-0.1,0-0.2,0-0.3,0c0,0-0.1,0.1-0.3,0.1c-0.2,0.1-0.3,0.2-0.3,0.3v4.2h-0.9v-4.2
				c0-0.1,0-0.2,0-0.2c0,0,0-0.1-0.1-0.1c-0.1,0-0.1-0.1-0.2-0.1c0,0-0.1,0-0.2,0h-1.1c-0.1,0-0.2,0-0.3,0c0,0-0.1,0.1-0.3,0.1
				c-0.1,0.1-0.2,0.1-0.2,0.2c0,0,0,0.1,0,0.2v4.1h-0.9v-4.2c0-0.1,0-0.2,0-0.2c0,0,0-0.1-0.1-0.1c-0.1,0-0.1-0.1-0.1-0.1
				c0,0,0-0.1,0-0.2v-0.5h0.4c0.1,0,0.2,0,0.3,0c0,0,0.1,0.1,0.2,0.1c0.1,0.1,0.2,0.2,0.2,0.3h0c0-0.1,0.1-0.2,0.2-0.3
				c0.1-0.1,0.2-0.1,0.3-0.1c0,0,0.1,0,0.3,0h1.6c0.2,0,0.3,0.1,0.5,0.2C37.4,98.2,37.5,98.3,37.5,98.4z"/>
			<path class="st4" d="M46.6,102.3l0.7,0.5l-0.3,0.2c-0.1,0.1-0.2,0.2-0.3,0.2c0,0-0.1,0-0.3,0h-2.9c-0.2,0-0.3-0.1-0.5-0.2
				l-0.3-0.2c-0.2-0.1-0.3-0.3-0.3-0.5v-3.5c0-0.2,0.1-0.4,0.3-0.5l0.3-0.2c0.2-0.1,0.3-0.2,0.5-0.2h2.5c0.1,0,0.3,0.1,0.5,0.2
				l0.3,0.2c0.2,0.1,0.3,0.3,0.3,0.5v2.2h-3.7v1c0,0.1,0,0.2,0,0.2c0,0,0,0.1,0.1,0.1c0.1,0.1,0.1,0.1,0.2,0.1c0,0,0.1,0,0.2,0H46
				c0.1,0,0.2,0,0.3,0C46.3,102.5,46.4,102.4,46.6,102.3z M46.2,100.4v-1.3c0-0.1,0-0.2,0-0.2c0,0,0-0.1-0.1-0.1
				c-0.1,0-0.1-0.1-0.2-0.1c0,0-0.1,0-0.2,0h-1.7c-0.1,0-0.2,0-0.2,0c0,0-0.1,0-0.2,0.1c-0.1,0.1-0.1,0.1-0.1,0.1c0,0,0,0.1,0,0.2
				v1.3H46.2z"/>
			<path class="st4" d="M55,99.8h-2.6c-0.2,0-0.3-0.1-0.5-0.2l-0.3-0.2c-0.2-0.1-0.2-0.3-0.2-0.4v-2.2c0-0.2,0.1-0.4,0.3-0.5
				l0.3-0.2c0.2-0.1,0.3-0.2,0.5-0.2h2.9c0.2,0,0.3,0.1,0.5,0.2l0.3,0.2c0.2,0.1,0.3,0.3,0.3,0.5v0.4h-0.9v-0.2c0-0.1,0-0.2,0-0.2
				c0,0,0-0.1-0.1-0.1c-0.1,0-0.1-0.1-0.2-0.1c0,0-0.1,0-0.2,0h-2.1c-0.1,0-0.2,0-0.2,0c0,0-0.1,0-0.2,0.1c-0.1,0.1-0.1,0.1-0.1,0.1
				c0,0,0,0.1,0,0.2v1.7c0,0.1,0,0.2,0,0.2c0,0,0,0.1,0.1,0.1c0.1,0.1,0.1,0.1,0.2,0.1c0,0,0.1,0,0.2,0h2.6c0.2,0,0.3,0.1,0.5,0.2
				l0.3,0.2c0.2,0.1,0.3,0.3,0.3,0.5v2.3c0,0.2-0.1,0.4-0.3,0.5l-0.3,0.2c-0.2,0.1-0.3,0.2-0.5,0.2h-3.1c-0.2,0-0.3-0.1-0.5-0.2
				l-0.3-0.2c-0.2-0.1-0.3-0.3-0.3-0.5v-0.4h0.9v0.2c0,0.1,0,0.2,0,0.2c0,0,0,0.1,0.1,0.1c0.1,0.1,0.1,0.1,0.2,0.1c0,0,0.1,0,0.2,0
				H55c0.1,0,0.2,0,0.2,0c0,0,0.1,0,0.2-0.1c0.1-0.1,0.1-0.1,0.1-0.1c0,0,0-0.1,0-0.2v-1.8c0-0.1,0-0.2,0-0.2c0,0,0-0.1-0.1-0.1
				c-0.1-0.1-0.1-0.1-0.2-0.1C55.2,99.8,55.1,99.8,55,99.8z"/>
			<path class="st4" d="M60.7,103.3H59c-0.2,0-0.3-0.1-0.5-0.2l-0.3-0.2c-0.2-0.1-0.3-0.3-0.3-0.5v-4.4h0.9v4.2c0,0.1,0,0.2,0,0.2
				c0,0,0,0.1,0.1,0.1c0.1,0.1,0.1,0.1,0.2,0.1c0,0,0.1,0,0.2,0h1.2c0.1,0,0.2,0,0.3,0c0,0,0.1-0.1,0.3-0.1c0.1-0.1,0.2-0.1,0.2-0.2
				c0,0,0-0.1,0-0.2v-4.1h0.9v4.2c0,0.1,0,0.2,0,0.2c0,0,0,0.1,0.1,0.1c0.1,0.1,0.1,0.1,0.1,0.1c0,0,0,0.1,0,0.2v0.5h-0.4
				c-0.1,0-0.2,0-0.3,0c0,0-0.1-0.1-0.2-0.1c-0.1-0.1-0.2-0.2-0.2-0.3h0c0,0.1-0.1,0.2-0.2,0.3c-0.1,0.1-0.2,0.1-0.3,0.1
				C60.9,103.3,60.8,103.3,60.7,103.3z"/>
			<path class="st4" d="M63.8,97.9h0.4c0.1,0,0.2,0,0.3,0c0,0,0.1,0.1,0.2,0.1c0.1,0.1,0.2,0.2,0.2,0.3h0c0-0.1,0.1-0.2,0.2-0.3
				c0.1-0.1,0.2-0.1,0.3-0.1c0,0,0.1,0,0.3,0h1c0.2,0,0.3,0.1,0.5,0.2l0.3,0.2l-0.7,0.5l-0.1-0.1c-0.1,0-0.1-0.1-0.2-0.1
				c0,0-0.1,0-0.2,0h-0.5c-0.1,0-0.2,0-0.3,0c0,0-0.1,0.1-0.3,0.1C65.1,98.9,65,98.9,65,99c0,0,0,0.1,0,0.2v4.1h-0.9v-4.2
				c0-0.1,0-0.2,0-0.2c0,0,0-0.1-0.1-0.1c-0.1,0-0.1-0.1-0.1-0.1c0,0,0-0.1,0-0.2V97.9z"/>
			<path class="st4" d="M68.3,97.9h0.4c0.1,0,0.2,0,0.3,0c0,0,0.1,0.1,0.2,0.1c0.1,0.1,0.2,0.2,0.2,0.3h0c0-0.1,0.1-0.2,0.2-0.3
				c0.1-0.1,0.2-0.1,0.3-0.1c0,0,0.1,0,0.3,0h1.9c0.2,0,0.3,0.1,0.5,0.2l0.3,0.2c0.2,0.1,0.3,0.3,0.3,0.5v4.4h-0.9v-4.2
				c0-0.1,0-0.2,0-0.2c0,0,0-0.1-0.1-0.1c-0.1,0-0.1-0.1-0.2-0.1c0,0-0.1,0-0.2,0h-1.4c-0.1,0-0.2,0-0.3,0c0,0-0.1,0.1-0.3,0.1
				c-0.1,0.1-0.2,0.1-0.2,0.2c0,0,0,0.1,0,0.2v4.1h-0.9v-4.2c0-0.1,0-0.2,0-0.2c0,0,0-0.1-0.1-0.1c-0.1,0-0.1-0.1-0.1-0.1
				c0,0,0-0.1,0-0.2V97.9z"/>
			<path class="st4" d="M78.2,102.8L78.2,102.8c0,0.1-0.1,0.2-0.3,0.3c-0.1,0.1-0.2,0.1-0.3,0.1c0,0-0.1,0-0.3,0h-1.9
				c-0.2,0-0.3-0.1-0.5-0.2l-0.3-0.2c-0.2-0.1-0.3-0.3-0.3-0.5V101c0-0.2,0.1-0.4,0.3-0.5l0.3-0.2c0.2-0.1,0.3-0.2,0.5-0.2h1.9
				c0.1,0,0.2,0,0.3,0c0,0,0.1,0,0.1,0.1c0.1,0.1,0.1,0.1,0.1,0.2h0v-1.3c0-0.1,0-0.2,0-0.2c0,0,0-0.1-0.1-0.1
				c-0.1,0-0.1-0.1-0.2-0.1c0,0-0.1,0-0.2,0h-1.8c-0.1,0-0.2,0-0.3,0c0,0-0.1,0.1-0.3,0.2l-0.7-0.5l0.3-0.2c0.1-0.1,0.2-0.2,0.3-0.2
				c0,0,0.1,0,0.3,0h2.5c0.2,0,0.3,0.1,0.5,0.2l0.3,0.2c0.2,0.1,0.3,0.3,0.3,0.5v3.2c0,0.1,0,0.2,0,0.2c0,0,0,0.1,0.1,0.1
				c0.1,0.1,0.1,0.1,0.1,0.1c0,0,0,0.1,0,0.2v0.5h-0.4c-0.1,0-0.2,0-0.3,0c0,0-0.1-0.1-0.2-0.1C78.3,103,78.2,102.9,78.2,102.8z
				 M75.4,101.2v0.8c0,0.1,0,0.2,0,0.2c0,0,0,0.1,0.1,0.1c0.1,0.1,0.1,0.1,0.2,0.1c0,0,0.1,0,0.2,0h1.3c0.1,0,0.2,0,0.3,0
				c0,0,0.1-0.1,0.3-0.1c0.1-0.1,0.2-0.1,0.2-0.2c0,0,0-0.1,0-0.2v-0.7c0-0.1,0-0.2,0-0.2c0,0,0-0.1-0.1-0.1
				c-0.1-0.1-0.1-0.1-0.2-0.1c0,0-0.1,0-0.2,0H76c-0.1,0-0.2,0-0.2,0c0,0-0.1,0-0.2,0.1c-0.1,0.1-0.1,0.1-0.1,0.1
				C75.4,101.1,75.4,101.1,75.4,101.2z"/>
			<path class="st4" d="M84.8,98.4L84.8,98.4c0.1-0.1,0.1-0.1,0.2-0.2l0.2-0.1c0.1-0.1,0.2-0.1,0.3-0.1c0,0,0.1,0,0.3,0h1.7
				c0.2,0,0.3,0.1,0.5,0.2l0.3,0.2c0.2,0.1,0.3,0.3,0.3,0.5v4.4h-0.9v-4.2c0-0.1,0-0.2,0-0.2c0,0,0-0.1-0.1-0.1
				c-0.1,0-0.1-0.1-0.2-0.1c0,0-0.1,0-0.2,0h-1.2c-0.1,0-0.2,0-0.3,0c0,0-0.1,0.1-0.3,0.1C85.1,98.9,85,99,85,99.1v4.2h-0.9v-4.2
				c0-0.1,0-0.2,0-0.2c0,0,0-0.1-0.1-0.1c-0.1,0-0.1-0.1-0.2-0.1c0,0-0.1,0-0.2,0h-1.1c-0.1,0-0.2,0-0.3,0c0,0-0.1,0.1-0.3,0.1
				c-0.1,0.1-0.2,0.1-0.2,0.2c0,0,0,0.1,0,0.2v4.1h-0.9v-4.2c0-0.1,0-0.2,0-0.2c0,0,0-0.1-0.1-0.1c-0.1,0-0.1-0.1-0.1-0.1
				c0,0,0-0.1,0-0.2v-0.5h0.4c0.1,0,0.2,0,0.3,0c0,0,0.1,0.1,0.2,0.1c0.1,0.1,0.2,0.2,0.2,0.3h0c0-0.1,0.1-0.2,0.2-0.3
				c0.1-0.1,0.2-0.1,0.3-0.1c0,0,0.1,0,0.3,0H84c0.2,0,0.3,0.1,0.5,0.2C84.7,98.2,84.8,98.3,84.8,98.4z"/>
			<path class="st4" d="M93.8,102.3l0.7,0.5l-0.3,0.2c-0.1,0.1-0.2,0.2-0.3,0.2c0,0-0.1,0-0.3,0h-2.9c-0.2,0-0.3-0.1-0.5-0.2
				l-0.3-0.2c-0.2-0.1-0.3-0.3-0.3-0.5v-3.5c0-0.2,0.1-0.4,0.3-0.5l0.3-0.2c0.2-0.1,0.3-0.2,0.5-0.2h2.5c0.1,0,0.3,0.1,0.5,0.2
				l0.3,0.2c0.2,0.1,0.3,0.3,0.3,0.5v2.2h-3.7v1c0,0.1,0,0.2,0,0.2c0,0,0,0.1,0.1,0.1c0.1,0.1,0.1,0.1,0.2,0.1c0,0,0.1,0,0.2,0h2.1
				c0.1,0,0.2,0,0.3,0C93.6,102.5,93.7,102.4,93.8,102.3z M93.5,100.4v-1.3c0-0.1,0-0.2,0-0.2c0,0,0-0.1-0.1-0.1
				c-0.1,0-0.1-0.1-0.2-0.1c0,0-0.1,0-0.2,0h-1.7c-0.1,0-0.2,0-0.2,0c0,0-0.1,0-0.2,0.1c-0.1,0.1-0.1,0.1-0.1,0.1c0,0,0,0.1,0,0.2
				v1.3H93.5z"/>
		</g>
		<g>
			<path class="st4" d="M135.3,13.2h1.3c0.7,0,1.2,0.2,1.5,0.5c0.3,0.3,0.5,0.9,0.5,1.6c0,1-0.4,1.7-1.2,1.9c0.8,0.2,1.3,0.8,1.3,2
				c0,0.6-0.2,1.1-0.5,1.5c-0.3,0.3-0.7,0.5-1.3,0.5h-1.6V13.2z M136.4,14.1v2.8c0.4,0,0.7-0.1,0.9-0.3c0.2-0.2,0.3-0.6,0.3-1
				c0-0.5-0.1-0.9-0.2-1.1C137.1,14.2,136.8,14.1,136.4,14.1z M136.4,17.6v2.8c0.4,0,0.7-0.1,0.9-0.3c0.2-0.2,0.3-0.5,0.3-1
				c0-0.6-0.1-0.9-0.3-1.1C137.1,17.8,136.8,17.7,136.4,17.6z"/>
			<path class="st4" d="M143.2,21.2h-1v-0.7h0c-0.3,0.5-0.6,0.7-1,0.7c-0.4,0-0.7-0.2-0.9-0.5c-0.3-0.3-0.4-1.1-0.4-2.2
				c0-1,0.1-1.8,0.3-2.2c0.2-0.5,0.6-0.7,1.1-0.7c0.2,0,0.4,0.1,0.6,0.2c0.1,0.1,0.3,0.3,0.4,0.5h0v-0.6h1V21.2z M141.5,20.4
				c0.3,0,0.4-0.2,0.5-0.5c0.1-0.3,0.1-0.8,0.1-1.6c0-0.7,0-1.1-0.1-1.4c-0.1-0.3-0.2-0.4-0.5-0.4c-0.3,0-0.4,0.1-0.5,0.4
				c-0.1,0.3-0.1,0.7-0.1,1.4c0,0.8,0,1.3,0.1,1.6C141.1,20.3,141.3,20.4,141.5,20.4z"/>
			<path class="st4" d="M145.6,15.7v0.5h0c0.3-0.4,0.6-0.6,1.1-0.6c0.8,0,1.2,0.4,1.2,1.3v4.3h-1v-4c0-0.5-0.2-0.8-0.6-0.8
				c-0.2,0-0.4,0.1-0.5,0.2c-0.1,0.1-0.2,0.3-0.2,0.6v4h-1v-5.5H145.6z"/>
			<path class="st4" d="M153,21.2h-1.1l-1.5-2.9h0v2.9h-1V13h1v5.1h0l1.3-2.3h1.1l-1.4,2.5L153,21.2z"/>
			<path class="st4" d="M160.2,21.2h-0.8l-2-5.5l0,0v5.5h-1v-8h0.9l2,5.5l0,0v-5.5h0.9V21.2z"/>
			<path class="st4" d="M165,21.2h-1v-0.7h0c-0.3,0.5-0.6,0.7-1,0.7c-0.4,0-0.7-0.2-0.9-0.5c-0.3-0.3-0.4-1.1-0.4-2.2
				c0-1,0.1-1.8,0.3-2.2c0.2-0.5,0.6-0.7,1.1-0.7c0.2,0,0.4,0.1,0.6,0.2c0.1,0.1,0.3,0.3,0.4,0.5h0v-0.6h1V21.2z M163.3,20.4
				c0.3,0,0.4-0.2,0.5-0.5c0.1-0.3,0.1-0.8,0.1-1.6c0-0.7,0-1.1-0.1-1.4c-0.1-0.3-0.2-0.4-0.5-0.4c-0.3,0-0.4,0.1-0.5,0.4
				c-0.1,0.3-0.1,0.7-0.1,1.4c0,0.8,0,1.3,0.1,1.6C162.9,20.3,163.1,20.4,163.3,20.4z"/>
			<path class="st4" d="M172.1,21.2h-1v-4c0-0.5-0.2-0.8-0.6-0.8c-0.4,0-0.7,0.3-0.7,1v3.8h-1v-4.1c0-0.2-0.1-0.4-0.2-0.5
				c-0.1-0.1-0.3-0.2-0.4-0.2c-0.5,0-0.7,0.3-0.7,0.9v3.9h-1v-5.5h1v0.5c0.3-0.4,0.7-0.6,1.1-0.6c0.5,0,0.8,0.2,1.1,0.7
				c0.3-0.4,0.8-0.7,1.2-0.7c0.8,0,1.2,0.4,1.2,1.3V21.2z"/>
			<path class="st4" d="M176.8,18.7h-2.3c0,0.6,0,1,0.1,1.3c0.1,0.3,0.3,0.5,0.6,0.5c0.2,0,0.4-0.1,0.5-0.3c0.1-0.2,0.1-0.5,0.1-0.8
				h0.9c0,1.3-0.6,1.9-1.6,1.9c-1.1,0-1.7-0.9-1.7-2.7c0-2,0.6-2.9,1.8-2.9c0.4,0,0.8,0.2,1.2,0.5c0.3,0.3,0.5,1,0.5,2.1V18.7z
				 M175.8,17.9c0-0.5,0-0.9-0.1-1.2c-0.1-0.2-0.2-0.4-0.5-0.4c-0.3,0-0.5,0.1-0.5,0.4c-0.1,0.2-0.1,0.6-0.1,1.2H175.8z"/>
		</g>
		<g>
			<path class="st4" d="M22.6,21.5c-0.4,0.2-0.7,0.3-1.1,0.3c-0.7,0-1.3-0.3-1.9-0.8c-0.5-0.6-0.8-1.7-0.8-3.5
				c0-1.9,0.3-3.2,0.8-3.9c0.5-0.7,1.2-1,1.9-1c0.3,0,0.6,0,1,0.1v1.1c-0.3-0.1-0.5-0.2-0.8-0.2c-0.5,0-0.9,0.2-1.2,0.7
				c-0.3,0.5-0.5,1.4-0.5,2.8c0,0.8,0,1.5,0.1,2c0.1,0.5,0.2,0.8,0.5,1.1c0.3,0.3,0.6,0.4,1,0.4c0.2,0,0.5-0.1,0.9-0.2V21.5z"/>
			<path class="st4" d="M26.6,16.4c-0.5,0-0.9,0.1-1.1,0.3c-0.2,0.2-0.3,0.6-0.3,1.2v3.7H24v-6.1h1.2v0.9h0c0.3-0.7,0.8-1,1.4-1
				l0.1,0V16.4z"/>
			<path class="st4" d="M31.3,18.8h-2.6c0,0.7,0,1.2,0.1,1.5c0.1,0.3,0.3,0.5,0.7,0.5c0.3,0,0.4-0.1,0.5-0.3
				c0.1-0.2,0.1-0.5,0.1-0.9h1c0,1.4-0.6,2.2-1.8,2.2c-1.3,0-1.9-1-1.9-3c0-2.2,0.7-3.3,2-3.3c0.5,0,0.9,0.2,1.3,0.6
				c0.4,0.4,0.5,1.2,0.5,2.4V18.8z M30.2,17.9c0-0.6,0-1-0.1-1.3c-0.1-0.3-0.3-0.4-0.5-0.4c-0.3,0-0.5,0.1-0.6,0.4
				c-0.1,0.3-0.1,0.7-0.1,1.3H30.2z"/>
			<path class="st4" d="M35.4,12.4h1.1v9.3h-1.1v-0.8h0c-0.3,0.6-0.7,0.9-1.2,0.9c-0.3,0-0.6-0.1-0.8-0.3c-0.3-0.2-0.4-0.5-0.5-0.8
				c-0.1-0.4-0.1-1-0.1-1.8c0-1,0-1.6,0.1-2.1c0.1-0.4,0.2-0.7,0.5-1c0.2-0.2,0.5-0.3,0.9-0.3c0.5,0,0.9,0.3,1.1,0.8h0V12.4z
				 M35.4,18.5c0-0.8,0-1.3-0.1-1.6c-0.1-0.3-0.3-0.5-0.6-0.5c-0.3,0-0.5,0.2-0.6,0.5c-0.1,0.3-0.2,0.9-0.2,1.6
				c0,0.8,0.1,1.4,0.2,1.7c0.1,0.3,0.3,0.5,0.6,0.5c0.3,0,0.5-0.2,0.6-0.5C35.4,19.9,35.4,19.3,35.4,18.5z"/>
			<path class="st4" d="M38,13.7c0-0.2,0.1-0.3,0.2-0.4c0.1-0.1,0.3-0.2,0.4-0.2c0.2,0,0.3,0.1,0.4,0.2c0.1,0.1,0.2,0.3,0.2,0.4
				c0,0.2-0.1,0.3-0.2,0.4c-0.1,0.1-0.3,0.2-0.4,0.2c-0.2,0-0.3-0.1-0.4-0.2C38.1,14,38,13.8,38,13.7z M38.1,15.5h1.1v6.1h-1.1V15.5
				z"/>
			<path class="st4" d="M42.9,16.4h-0.7v5.2h-1.2v-5.2h-0.7v-0.9h0.7v-1.7h1.2v1.7h0.7V16.4z"/>
			<path class="st4" d="M50.5,21.5c-0.4,0.2-0.7,0.3-1.1,0.3c-0.7,0-1.3-0.3-1.9-0.8c-0.5-0.6-0.8-1.7-0.8-3.5
				c0-1.9,0.3-3.2,0.8-3.9c0.5-0.7,1.2-1,1.9-1c0.3,0,0.6,0,1,0.1v1.1c-0.3-0.1-0.5-0.2-0.8-0.2c-0.5,0-0.9,0.2-1.2,0.7
				c-0.3,0.5-0.5,1.4-0.5,2.8c0,0.8,0,1.5,0.1,2c0.1,0.5,0.2,0.8,0.5,1.1c0.3,0.3,0.6,0.4,1,0.4c0.2,0,0.5-0.1,0.9-0.2V21.5z"/>
			<path class="st4" d="M55.6,21.7h-1.2v-0.7h0c-0.3,0.6-0.7,0.8-1.1,0.8c-0.4,0-0.7-0.2-1.1-0.6c-0.3-0.4-0.5-1.2-0.5-2.5
				c0-1.2,0.1-2,0.3-2.5c0.2-0.5,0.6-0.8,1.2-0.8c0.3,0,0.5,0.1,0.6,0.2c0.2,0.1,0.3,0.3,0.5,0.6h0v-0.7h1.2V21.7z M53.8,20.8
				c0.3,0,0.5-0.2,0.6-0.5c0.1-0.4,0.1-0.9,0.1-1.8c0-0.7,0-1.3-0.1-1.6c-0.1-0.3-0.3-0.5-0.6-0.5c-0.3,0-0.5,0.1-0.6,0.4
				c-0.1,0.3-0.2,0.8-0.2,1.5c0,0.9,0,1.5,0.1,1.8C53.3,20.6,53.5,20.8,53.8,20.8z"/>
			<path class="st4" d="M59.8,16.4c-0.5,0-0.9,0.1-1.1,0.3c-0.2,0.2-0.3,0.6-0.3,1.2v3.7h-1.2v-6.1h1.2v0.9h0c0.3-0.7,0.8-1,1.4-1
				l0.1,0V16.4z"/>
			<path class="st4" d="M63.3,12.4h1.1v9.3h-1.1v-0.8h0c-0.3,0.6-0.7,0.9-1.2,0.9c-0.3,0-0.6-0.1-0.8-0.3s-0.4-0.5-0.5-0.8
				c-0.1-0.4-0.1-1-0.1-1.8c0-1,0-1.6,0.1-2.1c0.1-0.4,0.2-0.7,0.5-1c0.2-0.2,0.5-0.3,0.9-0.3c0.5,0,0.9,0.3,1.1,0.8h0V12.4z
				 M63.3,18.5c0-0.8,0-1.3-0.1-1.6c-0.1-0.3-0.3-0.5-0.6-0.5c-0.3,0-0.5,0.2-0.6,0.5c-0.1,0.3-0.2,0.9-0.2,1.6
				c0,0.8,0.1,1.4,0.2,1.7c0.1,0.3,0.3,0.5,0.6,0.5c0.3,0,0.5-0.2,0.6-0.5C63.3,19.9,63.3,19.3,63.3,18.5z"/>
		</g>
		<g>
			<path class="st4" d="M23.1,80.8c0,0.9-0.1,1.6-0.4,2c-0.3,0.4-0.7,0.7-1.3,0.7c-0.6,0-1-0.2-1.3-0.7c-0.3-0.5-0.4-1.1-0.4-2
				c0-0.9,0.1-1.6,0.4-2c0.3-0.4,0.7-0.7,1.3-0.7c0.6,0,1,0.2,1.3,0.7C23,79.3,23.1,79.9,23.1,80.8z M20.4,80.8
				c0,0.7,0.1,1.2,0.2,1.5c0.1,0.3,0.4,0.5,0.7,0.5c0.3,0,0.6-0.2,0.7-0.5c0.1-0.3,0.2-0.8,0.2-1.5c0-0.7-0.1-1.2-0.2-1.5
				c-0.1-0.3-0.4-0.5-0.7-0.5c-0.3,0-0.6,0.2-0.7,0.5C20.5,79.6,20.4,80.1,20.4,80.8z"/>
			<path class="st4" d="M26.2,83.4h-0.8v-3.4c0-0.4,0-0.7,0-1c-0.1,0.1-0.1,0.1-0.2,0.2c-0.1,0.1-0.3,0.3-0.8,0.7L24,79.4l1.5-1.2
				h0.7V83.4z"/>
			<path class="st4" d="M31.5,83.4h-3.5v-0.6l1.3-1.3c0.4-0.4,0.7-0.7,0.8-0.9c0.1-0.2,0.2-0.3,0.3-0.5c0.1-0.1,0.1-0.3,0.1-0.5
				c0-0.2-0.1-0.4-0.2-0.6c-0.1-0.1-0.3-0.2-0.6-0.2c-0.2,0-0.4,0-0.6,0.1c-0.2,0.1-0.4,0.2-0.6,0.4L28,78.8
				c0.3-0.2,0.6-0.4,0.8-0.5c0.3-0.1,0.6-0.2,0.9-0.2c0.5,0,0.9,0.1,1.2,0.4c0.3,0.3,0.4,0.6,0.4,1c0,0.2,0,0.5-0.1,0.7
				c-0.1,0.2-0.2,0.4-0.4,0.7c-0.2,0.2-0.5,0.5-0.9,0.9L29,82.7v0h2.5V83.4z"/>
			<path class="st4" d="M35.4,79.4c0,0.3-0.1,0.6-0.3,0.8c-0.2,0.2-0.5,0.4-0.8,0.4v0c0.4,0.1,0.7,0.2,0.9,0.4
				c0.2,0.2,0.3,0.5,0.3,0.8c0,0.5-0.2,0.9-0.5,1.2c-0.4,0.3-0.9,0.4-1.5,0.4c-0.6,0-1.1-0.1-1.5-0.3v-0.7c0.2,0.1,0.5,0.2,0.7,0.3
				c0.2,0.1,0.5,0.1,0.7,0.1c0.4,0,0.7-0.1,0.9-0.2c0.2-0.1,0.3-0.4,0.3-0.7c0-0.3-0.1-0.5-0.3-0.6c-0.2-0.1-0.6-0.2-1-0.2h-0.5
				v-0.7h0.5c0.8,0,1.2-0.3,1.2-0.9c0-0.2-0.1-0.4-0.2-0.5c-0.1-0.1-0.4-0.2-0.6-0.2c-0.2,0-0.4,0-0.6,0.1c-0.2,0.1-0.4,0.2-0.6,0.3
				l-0.4-0.6c0.5-0.4,1-0.5,1.7-0.5c0.5,0,0.9,0.1,1.2,0.3C35.3,78.7,35.4,79,35.4,79.4z"/>
		</g>
		<g>
			<g>
				<path class="st4" d="M145.6,84.7h3.6c0.1,0,0.3,0.1,0.4,0.2l0.2,0.2c0.1,0.1,0.2,0.3,0.2,0.5v4.7c0,0.2-0.1,0.3-0.2,0.5
					l-0.2,0.2c-0.1,0.1-0.3,0.2-0.4,0.2h-3.6c-0.1,0-0.3-0.1-0.4-0.2l-0.2-0.2c-0.1-0.1-0.2-0.3-0.2-0.5v-4.7c0-0.2,0.1-0.3,0.2-0.5
					l0.2-0.2C145.3,84.8,145.5,84.7,145.6,84.7z M149.3,90.1v-4.4c0-0.1,0-0.2,0-0.2c0,0,0-0.1-0.1-0.1c-0.1,0-0.1-0.1-0.1-0.1
					c0,0-0.1,0-0.2,0h-2.9c-0.1,0-0.2,0-0.2,0c0,0-0.1,0-0.1,0.1c-0.1,0-0.1,0.1-0.1,0.1c0,0,0,0.1,0,0.2v4.4c0,0.1,0,0.2,0,0.2
					c0,0,0,0.1,0.1,0.1c0.1,0,0.1,0.1,0.1,0.1c0,0,0.1,0,0.2,0h2.9c0.1,0,0.2,0,0.2,0c0,0,0.1,0,0.1-0.1s0.1-0.1,0.1-0.1
					C149.3,90.2,149.3,90.2,149.3,90.1z"/>
				<path class="st4" d="M151.8,86.6l-0.4-0.4l1.3-1.4h1.1v6.4h-0.7v-5.6c0-0.1,0-0.2,0-0.2l0,0L151.8,86.6z"/>
				<path class="st4" d="M158.9,84.7h0.7l-4.8,7.2h-0.7L158.9,84.7z"/>
			</g>
			<g>
				<path class="st4" d="M128.4,86.4L128.4,86.4C128.4,86.4,128.4,86.4,128.4,86.4l0.8-2.4h0.3l-0.9,2.7h-0.4l-0.9-2.7h0.3
					L128.4,86.4C128.4,86.4,128.4,86.4,128.4,86.4z"/>
				<path class="st4" d="M129.7,86.6l0.9-2.7h0.4l0.9,2.7h-0.3l-0.2-0.6h-1.3l-0.2,0.6H129.7z M130.9,84.2L130.9,84.2
					c0,0,0,0.1,0,0.1l-0.5,1.5h1.1l-0.5-1.5C130.9,84.3,130.9,84.2,130.9,84.2z"/>
				<path class="st4" d="M134.2,86.4v0.3h-1.6V84h0.3v2.4H134.2z"/>
				<path class="st4" d="M134.6,84h0.3v2.7h-0.3V84z"/>
				<path class="st4" d="M135.7,86.6V84h1.4c0.1,0,0.1,0,0.2,0.1l0.4,0.3c0.1,0.1,0.1,0.1,0.1,0.2v1.6c0,0.1,0,0.1-0.1,0.2l-0.4,0.3
					c-0.1,0.1-0.1,0.1-0.2,0.1H135.7z M137.4,86v-1.4c0-0.1,0-0.1-0.1-0.2l-0.2-0.2c-0.1-0.1-0.1-0.1-0.2-0.1h-1v2.1h1
					c0.1,0,0.1,0,0.2-0.1l0.2-0.2C137.4,86.1,137.4,86,137.4,86z"/>
				<path class="st4" d="M127.9,88.5h2v0.3H129v2.4h-0.3v-2.4h-0.8V88.5z"/>
				<path class="st4" d="M132,88.5h0.3v2.7H132V90h-1.4v1.2h-0.3v-2.7h0.3v1.2h1.4V88.5z"/>
				<path class="st4" d="M133,88.5h1.4c0.1,0,0.1,0,0.2,0.1l0.1,0.1c0.1,0.1,0.1,0.1,0.1,0.2v0.9c0,0.1,0,0.1-0.1,0.2l-0.1,0.1
					c-0.1,0-0.1,0.1-0.2,0.1h-0.2l0.4,0.6c0,0,0,0.1,0.1,0.1c0,0,0,0,0.1,0.1l0,0c0,0,0.1,0,0.1,0.1c0,0,0,0.1,0,0.1v0.1h-0.1
					c0,0-0.1,0-0.1,0c0,0,0,0-0.1,0l-0.1,0c-0.1,0-0.1-0.1-0.1-0.1l-0.5-0.8h-0.5v1.1H133V88.5z M133.4,88.8v1.1h0.9
					c0,0,0.1,0,0.1,0c0,0,0,0,0.1,0c0,0,0,0,0,0c0,0,0,0,0-0.1V89c0,0,0-0.1,0-0.1c0,0,0,0,0,0c0,0,0,0-0.1,0c0,0,0,0-0.1,0H133.4z"
					/>
				<path class="st4" d="M137.3,88.5h0.3v2.3c0,0.1,0,0.1-0.1,0.2l-0.1,0.1c-0.1,0.1-0.1,0.1-0.2,0.1H136c-0.1,0-0.1,0-0.2-0.1
					l-0.1-0.1c-0.1-0.1-0.1-0.1-0.1-0.2v-2.3h0.3v2.2c0,0,0,0.1,0,0.1c0,0,0,0,0,0c0,0,0,0,0.1,0c0,0,0,0,0.1,0h1c0,0,0.1,0,0.1,0
					c0,0,0,0,0.1,0c0,0,0,0,0,0c0,0,0,0,0-0.1V88.5z"/>
			</g>
			<polygon class="st5" points="139.5,86 139.5,89.2 142,87.6 			"/>
		</g>
	</g>
</g>
<path class="st4" d="M160.8,91.1v-1c0-0.1,0-0.2,0-0.2c0,0,0.1-0.1,0.1-0.2l3-2.7c0.1-0.1,0.1-0.1,0.1-0.2c0-0.1,0-0.1,0-0.3v-0.8
	c0-0.1,0-0.1,0-0.2c0,0,0-0.1-0.1-0.1c-0.1,0-0.1-0.1-0.1-0.1c0,0-0.1,0-0.2,0h-1.6c-0.1,0-0.2,0-0.2,0c0,0-0.1,0-0.1,0.1
	c-0.1,0-0.1,0.1-0.1,0.1c0,0,0,0.1,0,0.2v0.2h-0.8v-0.4c0-0.2,0.1-0.3,0.2-0.5l0.2-0.2c0.1-0.1,0.3-0.2,0.4-0.2h2.3
	c0.1,0,0.3,0.1,0.4,0.2l0.2,0.2c0.1,0.1,0.2,0.3,0.2,0.5v1.3c0,0.1,0,0.2,0,0.3c0,0.1-0.1,0.1-0.1,0.2l-3,2.7
	c-0.1,0.1-0.1,0.1-0.2,0.2c0,0,0,0.1,0,0.2v0h3.3v0.6H160.8z"/>
<path class="st4" d="M171.2,85.9h-0.8v-0.2c0-0.1,0-0.1,0-0.2c0,0,0-0.1-0.1-0.1c-0.1,0-0.1-0.1-0.1-0.1c0,0-0.1,0-0.2,0h-2.2
	c-0.1,0-0.2,0-0.2,0c0,0-0.1,0-0.1,0.1c-0.1,0-0.1,0.1-0.1,0.1c0,0,0,0.1,0,0.2v1.8h0l0,0c0.2-0.2,0.4-0.3,0.5-0.3h2.5
	c0.1,0,0.3,0.1,0.4,0.2l0.2,0.2c0.1,0.1,0.2,0.3,0.2,0.5v2.3c0,0.2-0.1,0.3-0.2,0.5l-0.2,0.2c-0.1,0.1-0.3,0.2-0.4,0.2h-2.9
	c-0.1,0-0.3-0.1-0.4-0.2l-0.2-0.2c-0.1-0.1-0.2-0.3-0.2-0.5v-4.7c0-0.2,0.1-0.3,0.2-0.5l0.2-0.2c0.1-0.1,0.3-0.2,0.4-0.2h2.8
	c0.1,0,0.3,0.1,0.4,0.2l0.2,0.2c0.1,0.1,0.2,0.3,0.2,0.5V85.9z M170.5,90.1v-1.9c0-0.1,0-0.1,0-0.2c0,0,0-0.1-0.1-0.1
	c-0.1,0-0.1-0.1-0.1-0.1c0,0-0.1,0-0.2,0h-2c-0.1,0-0.2,0-0.2,0c0,0-0.1,0.1-0.2,0.1c-0.1,0.1-0.2,0.2-0.2,0.2v1.9
	c0,0.1,0,0.1,0,0.2c0,0,0,0.1,0.1,0.1c0.1,0,0.1,0.1,0.1,0.1c0,0,0.1,0,0.2,0h2.3c0.1,0,0.2,0,0.2,0c0,0,0.1,0,0.1-0.1
	c0.1,0,0.1-0.1,0.1-0.1C170.5,90.2,170.5,90.2,170.5,90.1z"/>
</svg>
