<svg id="icon4" version="1.1" xmlns="http://www.w3.org/2000/svg" xmlns:xlink="http://www.w3.org/1999/xlink" x="0px" y="0px" width="416px" height="436.4px" viewBox="0 0 416 436.4" style="enable-background:new 0 0 416 436.4;" xml:space="preserve">
<style type="text/css">
	#icon4 .st0{fill:url(#SVGID_1_);}
	#icon4 .st1{fill:url(#SVGID_2_);}
	#icon4 .st2{fill:url(#SVGID_3_);}
	#icon4 .st3{fill:url(#SVGID_4_);}
	#icon4 .st4{fill:url(#SVGID_5_);}
	#icon4 .st5{fill:url(#SVGID_6_);}
	#icon4 .st6{fill:url(#SVGID_7_);}
	#icon4 .st7{fill:url(#SVGID_8_);}
	#icon4 .st8{fill:url(#SVGID_9_);}
	#icon4 .st9{fill:url(#SVGID_10_);}
	#icon4 .st10{fill:url(#SVGID_11_);}
	#icon4 .st11{fill:url(#SVGID_12_);}
	#icon4 .st12{fill:url(#SVGID_13_);}
	#icon4 .st13{fill:url(#SVGID_14_);}
	#icon4 .st14{fill:url(#SVGID_15_);}
	#icon4 .st15{fill:url(#SVGID_16_);}
	#icon4 .st16{fill:url(#SVGID_17_);}
	#icon4 .st17{fill:url(#SVGID_18_);}
	#icon4 .st18{fill:url(#SVGID_19_);}
	#icon4 .st19{fill:url(#SVGID_20_);}
	#icon4 .st20{fill:url(#SVGID_21_);}
	#icon4 .st21{fill:url(#SVGID_22_);}
	#icon4 .st22{fill:url(#SVGID_23_);}
	#icon4 .st23{fill:url(#SVGID_24_);}
	#icon4 .st24{fill:url(#SVGID_25_);}
	#icon4 .st25{fill:url(#SVGID_26_);}
	#icon4 .st26{fill:url(#SVGID_27_);}
	#icon4 .st27{fill:url(#SVGID_28_);}
	#icon4 .st28{fill:url(#SVGID_29_);}
	#icon4 .st29{fill:url(#SVGID_30_);}
	#icon4 .st30{fill:url(#SVGID_31_);}
	#icon4 .st31{fill:url(#SVGID_32_);}
</style>
<defs>
</defs>
<g id="GD001_1_">
	
		<linearGradient id="SVGID_1_" gradientUnits="userSpaceOnUse" x1="208.0005" y1="411.718" x2="208.0005" y2="5.741" gradientTransform="matrix(1 0 0 -1 0 458.876)">
		<stop offset="0" style="stop-color:#63B2AA"></stop>
		<stop offset="1" style="stop-color:#2A93C0"></stop>
	</linearGradient>
	<path class="st0" d="M373.6,102.5c-27-35.4-64.6-61.2-107.3-73.8l-4.5,15.4c39.4,11.6,74.1,35.5,99.1,68.1
		c25.5,33.4,39.3,74.2,39.2,116.2c0,105.9-86.1,192-192,192s-192-86.1-192-192C16,127.7,93.9,44.9,192.6,37.1L185.3,48l13.3,8.9
		l16-24c1.8-2.7,1.8-6.2,0-8.9l-16-24l-13.3,8.9l8.1,12.1C85.5,28.5,0,118.7,0,228.4c0,114.7,93.3,208,208,208s208-93.3,208-208
		C416.1,182.9,401.2,138.7,373.6,102.5L373.6,102.5z"></path>
	
		<linearGradient id="SVGID_2_" gradientUnits="userSpaceOnUse" x1="240.321" y1="411.718" x2="240.321" y2="5.741" gradientTransform="matrix(1 0 0 -1 0 458.876)">
		<stop offset="0" style="stop-color:#63B2AA"></stop>
		<stop offset="1" style="stop-color:#2A93C0"></stop>
	</linearGradient>
	<path class="st1" d="M249.6,24.6c-5.5-1.1-11.1-2-16.6-2.7l-1.9,15.9c5.1,0.6,10.3,1.4,15.4,2.5L249.6,24.6z"></path>
	
		<linearGradient id="SVGID_3_" gradientUnits="userSpaceOnUse" x1="208" y1="411.718" x2="208" y2="5.741" gradientTransform="matrix(1 0 0 -1 0 458.876)">
		<stop offset="0" style="stop-color:#63B2AA"></stop>
		<stop offset="1" style="stop-color:#2A93C0"></stop>
	</linearGradient>
	<path class="st2" d="M48,228.4c0,88.2,71.8,160,160,160s160-71.8,160-160s-71.8-160-160-160S48,140.2,48,228.4z M352,228.4
		c0,79.4-64.6,144-144,144s-144-64.6-144-144s64.6-144,144-144S352,149,352,228.4z"></path>
	
		<linearGradient id="SVGID_4_" gradientUnits="userSpaceOnUse" x1="208" y1="411.718" x2="208" y2="5.741" gradientTransform="matrix(1 0 0 -1 0 458.876)">
		<stop offset="0" style="stop-color:#63B2AA"></stop>
		<stop offset="1" style="stop-color:#2A93C0"></stop>
	</linearGradient>
	<path class="st3" d="M200,100.4h16v16h-16V100.4z"></path>
	
		<linearGradient id="SVGID_5_" gradientUnits="userSpaceOnUse" x1="148.0167" y1="411.6633" x2="148.0167" y2="5.6863" gradientTransform="matrix(1 0 0 -1 -1.510589e-02 458.8021)">
		<stop offset="0" style="stop-color:#63B2AA"></stop>
		<stop offset="1" style="stop-color:#2A93C0"></stop>
	</linearGradient>
	<path class="st4" d="M137.1,121.6l13.9-8l8,13.9l-13.9,8L137.1,121.6z"></path>
	
		<linearGradient id="SVGID_6_" gradientUnits="userSpaceOnUse" x1="104.0876" y1="411.6633" x2="104.0876" y2="5.6863" gradientTransform="matrix(1 0 0 -1 -1.174082e-02 458.8064)">
		<stop offset="0" style="stop-color:#63B2AA"></stop>
		<stop offset="1" style="stop-color:#2A93C0"></stop>
	</linearGradient>
	<path class="st5" d="M93.1,171.4l8-13.9l13.9,8l-8,13.9L93.1,171.4z"></path>
	
		<linearGradient id="SVGID_7_" gradientUnits="userSpaceOnUse" x1="88" y1="411.718" x2="88" y2="5.741" gradientTransform="matrix(1 0 0 -1 0 458.876)">
		<stop offset="0" style="stop-color:#63B2AA"></stop>
		<stop offset="1" style="stop-color:#2A93C0"></stop>
	</linearGradient>
	<path class="st6" d="M80,220.4h16v16H80V220.4z"></path>
	
		<linearGradient id="SVGID_8_" gradientUnits="userSpaceOnUse" x1="104.0854" y1="411.6633" x2="104.0854" y2="5.6863" gradientTransform="matrix(1 0 0 -1 -1.339757e-02 458.8045)">
		<stop offset="0" style="stop-color:#63B2AA"></stop>
		<stop offset="1" style="stop-color:#2A93C0"></stop>
	</linearGradient>
	<path class="st7" d="M93.1,285.5l13.9-8l8,13.9l-13.9,8L93.1,285.5z"></path>
	
		<linearGradient id="SVGID_9_" gradientUnits="userSpaceOnUse" x1="148.0213" y1="411.6633" x2="148.0213" y2="5.6863" gradientTransform="matrix(1 0 0 -1 -2.298120e-02 458.8038)">
		<stop offset="0" style="stop-color:#63B2AA"></stop>
		<stop offset="1" style="stop-color:#2A93C0"></stop>
	</linearGradient>
	<path class="st8" d="M137.1,335.3l8-13.9l13.9,8l-8,13.9L137.1,335.3z"></path>
	
		<linearGradient id="SVGID_10_" gradientUnits="userSpaceOnUse" x1="208" y1="411.718" x2="208" y2="5.741" gradientTransform="matrix(1 0 0 -1 0 458.876)">
		<stop offset="0" style="stop-color:#63B2AA"></stop>
		<stop offset="1" style="stop-color:#2A93C0"></stop>
	</linearGradient>
	<path class="st9" d="M200,340.4h16v16h-16V340.4z"></path>
	
		<linearGradient id="SVGID_11_" gradientUnits="userSpaceOnUse" x1="268.022" y1="411.6633" x2="268.022" y2="5.6863" gradientTransform="matrix(1 0 0 -1 -1.911370e-02 458.8028)">
		<stop offset="0" style="stop-color:#63B2AA"></stop>
		<stop offset="1" style="stop-color:#2A93C0"></stop>
	</linearGradient>
	<path class="st10" d="M257.1,329.4l13.9-8l8,13.9l-13.9,8L257.1,329.4z"></path>
	
		<linearGradient id="SVGID_12_" gradientUnits="userSpaceOnUse" x1="311.9381" y1="411.6633" x2="311.9381" y2="5.6863" gradientTransform="matrix(1 0 0 -1 -8.605644e-03 458.8113)">
		<stop offset="0" style="stop-color:#63B2AA"></stop>
		<stop offset="1" style="stop-color:#2A93C0"></stop>
	</linearGradient>
	<path class="st11" d="M301,291.4l8-13.9l13.9,8l-8,13.9L301,291.4z"></path>
	
		<linearGradient id="SVGID_13_" gradientUnits="userSpaceOnUse" x1="328" y1="411.718" x2="328" y2="5.741" gradientTransform="matrix(1 0 0 -1 0 458.876)">
		<stop offset="0" style="stop-color:#63B2AA"></stop>
		<stop offset="1" style="stop-color:#2A93C0"></stop>
	</linearGradient>
	<path class="st12" d="M320,220.4h16v16h-16V220.4z"></path>
	
		<linearGradient id="SVGID_14_" gradientUnits="userSpaceOnUse" x1="311.9381" y1="411.6633" x2="311.9381" y2="5.6863" gradientTransform="matrix(1 0 0 -1 -1.025688e-02 458.8054)">
		<stop offset="0" style="stop-color:#63B2AA"></stop>
		<stop offset="1" style="stop-color:#2A93C0"></stop>
	</linearGradient>
	<path class="st13" d="M301,165.5l13.9-8l8,13.9l-13.9,8L301,165.5z"></path>
	
		<linearGradient id="SVGID_15_" gradientUnits="userSpaceOnUse" x1="268.0201" y1="411.6633" x2="268.0201" y2="5.6863" gradientTransform="matrix(1 0 0 -1 -1.806216e-02 458.8081)">
		<stop offset="0" style="stop-color:#63B2AA"></stop>
		<stop offset="1" style="stop-color:#2A93C0"></stop>
	</linearGradient>
	<path class="st14" d="M257.1,127.4l8-13.9l13.9,8l-8,13.9L257.1,127.4z"></path>
	
		<linearGradient id="SVGID_16_" gradientUnits="userSpaceOnUse" x1="186" y1="411.718" x2="186" y2="5.741" gradientTransform="matrix(1 0 0 -1 0 458.876)">
		<stop offset="0" style="stop-color:#63B2AA"></stop>
		<stop offset="1" style="stop-color:#2A93C0"></stop>
	</linearGradient>
	<path class="st15" d="M200,223.8l-44,25.4l8,13.9l48-27.7c2.5-1.4,4-4.1,4-6.9v-88h-16V223.8z"></path>
</g>
</svg>