<?xml version="1.0" encoding="utf-8"?>
<!-- Generator: Adobe Illustrator 24.0.0, SVG Export Plug-In . SVG Version: 6.00 Build 0)  -->
<svg version="1.1" id="Layer_1" xmlns="http://www.w3.org/2000/svg" xmlns:xlink="http://www.w3.org/1999/xlink" x="0px" y="0px"
	 viewBox="0 0 196 122.1" style="enable-background:new 0 0 196 122.1;" xml:space="preserve">
<style type="text/css">
	.st0{fill:#F5F5F5;}
	.st1{fill:#1B557D;}
	.st2{fill:#107DB0;}
</style>
<path class="st0" d="M180.9,121.9H15c-8.3,0-15-6.7-15-15V15C0,6.7,6.7,0,15,0h166c8.3,0,15,6.7,15,15v91.9
	C195.9,115.2,189.2,121.9,180.9,121.9z"/>
<g>
	<g>
		<path class="st1" d="M184.4,2.1c5.3,0,9.6,4.3,9.6,9.6v98.6c0,5.3-4.3,9.6-9.6,9.6H11.6c-5.3,0-9.6-4.3-9.6-9.6V11.7
			c0-5.3,4.3-9.6,9.6-9.6H184.4 M184.4,0.2H11.6C5.2,0.2,0.1,5.4,0.1,11.7v98.6c0,6.4,5.2,11.5,11.5,11.5h172.8
			c6.4,0,11.5-5.2,11.5-11.5V11.7C195.9,5.4,190.8,0.2,184.4,0.2L184.4,0.2z"/>
	</g>
	<g>
		<path class="st2" d="M145.8,46.8c-4.1,0-7.4,1.1-9.9,1.6l-0.8,6.3c1.2-0.6,5.2-1.7,8.4-1.8c3.3-0.1,5.2,0.6,4.5,3.4
			c-9.7,0-16.2,2-17.6,8.3c-1.9,10.8,9.9,10.5,14.6,5.8l-0.6,2.6h8.6l3.7-17.1C158.4,48.5,151.8,46.7,145.8,46.8z M146.4,64.3
			c-0.5,2.3-2.3,3.3-4.5,3.4c-1.9,0.1-3.6-1.6-2.4-3.6c1-1.7,3.6-2.1,5.3-2.1c0.7,0,1.4,0,2.1,0C146.6,62.8,146.5,63.5,146.4,64.3z"
			/>
		<polygon class="st2" points="164.3,40.1 157.2,72.9 165.9,72.9 173.2,40.1 		"/>
		<path class="st2" d="M124,40.2h-16.1l-7.1,32.7h9.3l2.4-10.8h6.6c6.5,0,11.9-4,13.4-10.8C134.2,43.6,128.6,40.2,124,40.2z
			 M123.7,51.3c-0.6,2.5-3.1,4.5-5.5,4.5h-4.3l1.9-9h4.6C122.8,46.8,124.3,48.8,123.7,51.3z"/>
		<path class="st1" d="M61.7,46.8c-4.1,0-7.3,1.1-9.7,1.6l-0.8,6.3c1.1-0.6,5-1.7,8.2-1.8c3.2-0.1,5.1,0.6,4.5,3.4
			c-9.6,0-16,2-17.3,8.3C44.8,75.3,56.5,75,61,70.3l-0.6,2.6h8.6l3.7-17.1C74.3,48.5,67.6,46.7,61.7,46.8z M62.3,64.3
			c-0.5,2.3-2.4,3.3-4.5,3.4c-1.9,0.1-3.5-1.6-2.3-3.6c0.9-1.7,3.6-2.1,5.1-2.1c0.8,0,1.4,0,2.2,0C62.6,62.8,62.4,63.5,62.3,64.3z"
			/>
		<polygon class="st1" points="76.5,47.3 85.1,47.3 86.5,62.5 95,47.3 103.9,47.3 83.4,83.8 73.7,83.8 80,73.1 		"/>
		<path class="st1" d="M40.2,40.2H24.1L17,72.9h9.4l2.3-10.8h6.7c6.5,0,11.9-4,13.3-10.8C50.4,43.6,44.9,40.2,40.2,40.2z M39.9,51.3
			c-0.6,2.5-3,4.5-5.4,4.5h-4.4l2-9h4.6C39.1,46.8,40.6,48.8,39.9,51.3z"/>
		<path class="st1" d="M175.1,44.3v-3.9h-1.4v-0.5h3.5v0.5h-1.5v3.9H175.1z"/>
		<path class="st1" d="M177.7,44.3v-4.4h0.9l1,3.1c0.1,0.3,0.2,0.5,0.2,0.6c0.1-0.2,0.1-0.4,0.2-0.7l1.1-3.1h0.8v4.4h-0.6v-3.7
			l-1.3,3.7h-0.5l-1.3-3.7v3.7H177.7z"/>
	</g>
</g>
</svg>
