<?xml version="1.0" encoding="utf-8"?>
<!-- Generator: Adobe Illustrator 24.0.0, SVG Export Plug-In . SVG Version: 6.00 Build 0)  -->
<svg version="1.1" id="Layer_1" xmlns="http://www.w3.org/2000/svg" xmlns:xlink="http://www.w3.org/1999/xlink" x="0px" y="0px"
	 viewBox="0 0 196 122.1" style="enable-background:new 0 0 196 122.1;" xml:space="preserve">
<style type="text/css">
	.st0{fill:#F5F5F5;}
	.st1{fill:#108AC8;}
	.st2{fill:#E21E26;}
</style>
<path class="st0" d="M180.9,121.9H15c-8.3,0-15-6.7-15-15V15C0,6.7,6.7,0,15,0h166c8.3,0,15,6.7,15,15v91.9
	C195.9,115.2,189.2,121.9,180.9,121.9z"/>
<g>
	<g>
		<path class="st1" d="M184.4,2.1c5.3,0,9.6,4.3,9.6,9.6v98.6c0,5.3-4.3,9.6-9.6,9.6H11.6c-5.3,0-9.6-4.3-9.6-9.6V11.7
			c0-5.3,4.3-9.6,9.6-9.6H184.4 M184.4,0.2H11.6C5.2,0.2,0.1,5.4,0.1,11.7v98.6c0,6.4,5.2,11.5,11.5,11.5h172.8
			c6.4,0,11.5-5.2,11.5-11.5V11.7C195.9,5.4,190.8,0.2,184.4,0.2L184.4,0.2z"/>
	</g>
</g>
<g>
	<path id="path2491" class="st1" d="M56.1,58.7c0-0.9-0.5-1.3-1.2-1.4h-4.4C49.5,57.4,49,58,49,59v7.8c0,1.1,0.6,1.7,1.8,1.7h4
		c0.4,0,0.7-0.2,1-0.5c0.3-0.3,0.5-0.6,0.5-0.9L56.1,58.7L56.1,58.7z M43.5,57.6c0-1.9,0.5-3.4,1.3-4.4c0.5-0.5,1-0.7,1.7-1.1
		c0.6-0.3,1.4-0.5,2-0.5h7.9c3.5,0,5.3,1.9,5.3,5.7V69c0,1.4-0.6,2.5-1.6,3.5c-1,1-2.2,1.6-3.6,1.6H49v8.4h-5.6L43.5,57.6"/>
	<path id="path2493" class="st1" d="M71.7,67.4c0,0.4,0.2,0.6,0.5,0.7c0.3,0.2,0.6,0.4,1,0.4h4.3c0.9,0,1.5-0.4,1.5-1.1v-1.6
		c0-0.8-0.5-1.3-1.5-1.3h-4.2c-0.6,0-0.9,0.1-1.1,0.3c-0.2,0.2-0.3,0.6-0.3,1.2v1.4H71.7z M78.8,58.6c0-0.8-0.5-1.3-1.5-1.2H66.2
		v-5.7h12.5c3.6,0.1,5.5,1.9,5.6,5.3v11.9c0,1.5-0.5,2.8-1.4,3.7c-0.9,1-2.1,1.6-3.6,1.6h-7.6c-3.7,0-5.6-1.8-5.7-5.1v-4.6
		c0-3.5,1.9-5.3,5.4-5.4h7.4V58.6"/>
	<path id="path2495" class="st1" d="M99.9,76.9c0.5,0,0.8-0.2,1.1-0.5c0.3-0.3,0.5-0.6,0.5-0.9v-1.4h-7c-0.9,0-1.7-0.1-2.2-0.4
		c-0.6-0.2-1.2-0.6-1.8-1.2c-0.6-0.6-0.9-1.2-1.2-1.9c-0.3-0.6-0.4-1.4-0.4-2.3V51.7h5.6v15c0,1.2,0.5,1.8,1.5,1.8h3.9
		c0.5,0,0.8-0.2,1.2-0.5c0.4-0.3,0.5-0.6,0.5-0.9V51.7h5.5v24.7c0,1.9-0.5,3.3-1.4,4.4c-0.9,1.1-2.1,1.7-3.8,1.7H88.8v-5.7H99.9"/>
	<path id="path2497" class="st1" d="M111.3,68.5h9.8c0.9,0,1.4-0.4,1.4-1.1v-0.6c0-0.2,0-0.3-0.1-0.5c-0.2-0.5-0.5-0.6-0.8-0.6h-4.9
		c-1.5,0-2.7-0.6-3.7-1.5c-1-0.9-1.6-1.9-1.7-3.2v-4.3c0.1-3.3,1.9-5,5.4-5H128v5.7h-9.7c-1.1,0-1.7,0.4-1.7,1v0.6
		c0,0.7,0.6,1.1,1.8,1.1h4.9c1.3,0,2.4,0.6,3.3,1.5c0.9,1,1.4,2.1,1.5,3.5v4.2c0,1.2-0.6,2.3-1.6,3.5c-0.5,0.6-1,0.9-1.6,1.2
		c-0.6,0.2-1.3,0.3-2.2,0.3h-11.5V68.5"/>
	<path id="path2499" class="st1" d="M137.7,67.4c0,0.4,0.2,0.6,0.5,0.7c0.3,0.2,0.6,0.4,1,0.4h4.3c0.9,0,1.5-0.4,1.5-1.1v-1.6
		c0-0.8-0.6-1.3-1.6-1.3h-4.3c-0.6,0-0.9,0.1-1.1,0.3c-0.2,0.2-0.3,0.6-0.3,1.2V67.4z M144.8,58.6c0-0.8-0.5-1.3-1.5-1.2h-11.1v-5.7
		h12.5c3.6,0.1,5.5,1.9,5.6,5.3v11.9c0,1.5-0.5,2.8-1.4,3.7c-0.9,1-2.1,1.6-3.6,1.6h-7.6c-3.7,0-5.6-1.8-5.7-5.1v-4.6
		c0-3.5,1.9-5.3,5.4-5.4h7.3L144.8,58.6"/>
	<path id="path2501" class="st1" d="M154.8,48.4c0-1.6,0.6-2.8,1.7-3.7c1.1-0.9,2.5-1.4,4.3-1.5h3.5v5.5h-2.1
		c-1.2,0-1.8,0.6-1.8,1.7v1.2h3.9v5.7h-3.9V74h-5.6V48.4"/>
	<path id="path2503" class="st1" d="M180,58.5L180,58.5c0-0.4-0.1-0.6-0.4-0.8c-0.3-0.2-0.6-0.3-0.9-0.3h-3.9
		c-0.5,0-0.9,0.1-1.2,0.5c-0.4,0.3-0.6,0.6-0.6,1v2.3L180,58.5z M173.2,66.5v0.4c0,0.5,0.1,0.8,0.4,1.1c0.2,0.4,0.4,0.5,0.7,0.5
		h11.4v5.7h-12c-1.1,0-1.9-0.1-2.6-0.3c-0.6-0.2-1.3-0.6-1.8-1.1c-0.6-0.6-1-1.2-1.2-1.9c-0.2-0.6-0.4-1.6-0.4-2.6l-0.1-11.4
		c0.1-3.4,1.9-5.2,5.4-5.3h7.4c3.4,0.1,5.2,1.9,5.3,5.5v4.4L173.2,66.5"/>
	<path id="path2513" class="st2" d="M12.7,50.9c0.5-0.2,0.8-0.4,1.3-0.5c0.8-3.8,4.2-6.7,8.2-6.7s7.4,2.9,8.2,6.7
		c1.2,0.3,2.3,0.7,3.1,1.5c0-0.7,0-1.5-0.1-2.1c-0.6-5.7-5.4-10.2-11.2-10.2c-6.1,0-11,4.8-11.3,10.8c0,0.6,0,1,0,1.7
		C11.4,51.5,12.1,51.1,12.7,50.9"/>
	<path id="path2515" class="st2" d="M28.9,51.7H15.3c-0.6,0-1.3,0.2-2,0.5c-0.6,0.3-1.2,0.6-1.7,1.1c-0.8,1-1.3,2.5-1.3,4.4v10.6
		c0,1.9,0.5,3.4,1.3,4.4c0.5,0.4,1,0.6,1.7,1c0.6,0.3,1.4,0.5,2,0.5h13.5c3.5,0,5.3-1.9,5.3-5.7v-11C34.1,53.6,32.3,51.7,28.9,51.7"
		/>
</g>
</svg>
