<?xml version="1.0" encoding="utf-8"?>
<!-- Generator: Adobe Illustrator 24.0.0, SVG Export Plug-In . SVG Version: 6.00 Build 0)  -->
<svg version="1.1" id="Object" xmlns="http://www.w3.org/2000/svg" xmlns:xlink="http://www.w3.org/1999/xlink" x="0px" y="0px"
	 viewBox="0 0 491.9 563.7" style="enable-background:new 0 0 491.9 563.7;" xml:space="preserve">
<style type="text/css">
	.st0{fill:#5BAA48;}
	.st1{fill:#6CBE59;}
	.st2{fill:#FFFFFF;}
</style>
<g>
	<g id="XMLID_41_">
		<g id="XMLID_46_">
			<g id="XMLID_50_">
				<path id="XMLID_51_" class="st0" d="M407.5,316h-44.7V168.4c0-64.4-52.4-116.9-116.9-116.9S129,103.9,129,168.4V316H84.4V168.4
					c0-89.1,72.5-161.5,161.5-161.5s161.5,72.5,161.5,161.5V316z"/>
			</g>
			<g id="XMLID_47_">
				<path id="XMLID_48_" class="st1" d="M475.8,539.5c0,9.6-7.8,17.3-17.3,17.3H33.4c-9.6,0-17.3-7.8-17.3-17.3V263.3
					c0-9.6,7.8-17.3,17.3-17.3h425.2c9.6,0,17.3,7.8,17.3,17.3V539.5z"/>
			</g>
		</g>
	</g>
</g>
<path class="st2" d="M302.9,376c0-2.1-0.7-3.8-2-5.1l-10-9.9c-1.4-1.4-3.1-2.1-5-2.1c-1.9,0-3.6,0.7-5,2.1l-45,44.9l-24.9-24.9
	c-1.4-1.4-3.1-2.1-5-2.1c-1.9,0-3.6,0.7-5,2.1l-10,9.9c-1.3,1.3-2,3-2,5.1c0,2,0.7,3.6,2,5l40,40c1.4,1.4,3.1,2.1,5,2.1
	c2,0,3.7-0.7,5.1-2.1l59.9-59.9C302.2,379.6,302.9,377.9,302.9,376z M330.7,393.8c0,15.4-3.8,29.6-11.4,42.6
	c-7.6,13-17.9,23.3-30.9,30.9c-13,7.6-27.2,11.4-42.6,11.4s-29.6-3.8-42.6-11.4c-13-7.6-23.3-17.9-30.9-30.9
	c-7.6-13-11.4-27.2-11.4-42.6c0-15.4,3.8-29.6,11.4-42.6c7.6-13,17.9-23.3,30.9-30.9c13-7.6,27.2-11.4,42.6-11.4s29.6,3.8,42.6,11.4
	c13,7.6,23.3,17.9,30.9,30.9C326.9,364.3,330.7,378.5,330.7,393.8z"/>
</svg>
