<?xml version="1.0" encoding="utf-8"?>
<!-- Generator: Adobe Illustrator 24.0.0, SVG Export Plug-In . SVG Version: 6.00 Build 0)  -->
<svg version="1.1" id="Layer_1" xmlns="http://www.w3.org/2000/svg" xmlns:xlink="http://www.w3.org/1999/xlink" x="0px" y="0px"
	 viewBox="0 0 200.9674835 19.8373985" style="enable-background:new 0 0 200.9674835 19.8373985;" xml:space="preserve">
<style type="text/css">
	.st0{fill:#4F9ED3;}
</style>
<g>
	<path class="st0" d="M9.1230469,16.6628399L5.621582,5.2536602H5.5317383
		C5.6577148,7.5749493,5.7211914,9.1228008,5.7211914,9.899168v6.7636719H2.965332V2.1198711h4.1977539l3.4418945,11.1210938
		h0.0595703l3.6508789-11.1210938h4.1977539v14.5429688h-2.875V9.7800274c0-0.3251953,0.0053711-0.7001953,0.0151367-1.1240234
		c0.0097656-0.4248047,0.0546875-1.5527344,0.1342773-3.3828125h-0.0893555l-3.7504883,11.3896484H9.1230469z"/>
	<path class="st0" d="M26.699707,8.1081524l3.0336914-5.9882812h3.3222656l-4.8242188,8.8828125v5.6601562h-3.0639648V11.102293
		l-4.8242188-8.9824219h3.3422852L26.699707,8.1081524z"/>
	<path class="st0" d="M53.378418,9.3718243c0,2.4072266-0.5966797,4.2578125-1.7905273,5.5507812
		c-1.1933594,1.2929688-2.9042969,1.9394531-5.1328125,1.9394531c-2.2280273,0-3.9389648-0.6464844-5.1328125-1.9394531
		c-1.1933594-1.2929688-1.7905273-3.1503906-1.7905273-5.5703125c0-2.4208984,0.5986328-4.2695312,1.7954102-5.5458984
		c1.1972656-1.2763672,2.9130859-1.9150392,5.1479492-1.9150392s3.9438477,0.6435548,5.1279297,1.9296876
		C52.7866211,5.1081524,53.378418,6.9577618,53.378418,9.3718243z M42.7646484,9.3718243
		c0,1.625,0.3085938,2.8486328,0.925293,3.6708984s1.5380859,1.2333984,2.7651367,1.2333984
		c2.4604492,0,3.6904297-1.6347656,3.6904297-4.9042969c0-3.2763672-1.2236328-4.9140625-3.6704102-4.9140625
		c-1.2270508,0-2.1518555,0.4130859-2.7753906,1.2382812C43.0761719,6.5222149,42.7646484,7.7468243,42.7646484,9.3718243z"/>
	<path class="st0" d="M59.4760742,11.0827618v5.5800781h-3.0839844V2.1198711h4.237793
		c1.9760742,0,3.4384766,0.3603516,4.3867188,1.0791016c0.9482422,0.7197266,1.4223633,1.8125,1.4223633,3.2783203
		c0,0.8554688-0.2353516,1.6162109-0.7060547,2.2822266c-0.4711914,0.6669922-1.1376953,1.1894531-1.9995117,1.5673828
		c2.1884766,3.2695312,3.6142578,5.3808594,4.2773438,6.3359375h-3.421875l-3.4716797-5.5800781H59.4760742z M59.4760742,8.5759258
		h0.9946289c0.9746094,0,1.6943359-0.1621094,2.1586914-0.4873047c0.4638672-0.3251953,0.6962891-0.8359375,0.6962891-1.5322266
		c0-0.6894531-0.2373047-1.1796875-0.7114258-1.4716797s-1.2084961-0.4375-2.203125-0.4375h-0.9350586V8.5759258z"/>
	<path class="st0" d="M81.9072266,9.2526836c0,2.3935547-0.6816406,4.2275391-2.0444336,5.5009766
		c-1.362793,1.2724609-3.3305664,1.9091797-5.9038086,1.9091797h-4.1181641V2.1198711h4.565918
		c2.3740234,0,4.2177734,0.6269531,5.5307617,1.8798828C81.2504883,5.2536602,81.9072266,7.0046368,81.9072266,9.2526836z
		 M78.7041016,9.3317852c0-3.1230469-1.3793945-4.6845703-4.1381836-4.6845703h-1.6411133v9.4697266h1.3227539
		C77.2182617,14.1169415,78.7041016,12.5222149,78.7041016,9.3317852z"/>
	<path class="st0" d="M93.296875,16.6628399h-8.3759766V2.1198711h8.3759766v2.5273438h-5.2919922v3.1923828h4.9238281v2.5273438
		h-4.9238281v3.75h5.2919922V16.6628399z"/>
	<path class="st0" d="M99.4145508,11.0827618v5.5800781h-3.0839844V2.1198711h4.237793
		c1.9760742,0,3.4384766,0.3603516,4.3867188,1.0791016c0.9482422,0.7197266,1.4223633,1.8125,1.4223633,3.2783203
		c0,0.8554688-0.2353516,1.6162109-0.7060547,2.2822266c-0.4711914,0.6669922-1.1376953,1.1894531-1.9995117,1.5673828
		c2.1884766,3.2695312,3.6142578,5.3808594,4.2773438,6.3359375h-3.421875l-3.4716797-5.5800781H99.4145508z M99.4145508,8.5759258
		h0.9946289c0.9746094,0,1.6943359-0.1621094,2.1586914-0.4873047c0.4638672-0.3251953,0.6962891-0.8359375,0.6962891-1.5322266
		c0-0.6894531-0.2373047-1.1796875-0.7114258-1.4716797s-1.2084961-0.4375-2.203125-0.4375h-0.9350586V8.5759258z"/>
</g>
</svg>
