<?xml version="1.0" encoding="utf-8"?>
<!-- Generator: Adobe Illustrator 24.0.0, SVG Export Plug-In . SVG Version: 6.00 Build 0)  -->
<svg version="1.1" id="Layer_1" xmlns="http://www.w3.org/2000/svg" xmlns:xlink="http://www.w3.org/1999/xlink" x="0px" y="0px"
	 viewBox="0 0 200.9674835 19.8373985" style="enable-background:new 0 0 200.9674835 19.8373985;" xml:space="preserve">
<style type="text/css">
	.st0{fill:#4F9ED3;}
</style>
<g>
	<path class="st0" d="M13.9673824,17.2048321H10.893652v-6.2763672H5.1343746v6.2763672H2.0503902V2.6618633h3.0839844v5.7001953
		h5.7592773V2.6618633h3.0737305V17.2048321z"/>
	<path class="st0" d="M34.4390602,17.2048321h-3.0737286V5.2282696h-5.3515625v11.9765625h-3.0839844V2.6618633h11.5092754
		V17.2048321z"/>
	<path class="st0" d="M47.0123024,17.2048321l-1.0541992-3.4609375h-5.3017578l-1.0546875,3.4609375h-3.3222656L41.4122047,2.602293
		h3.7700195l5.152832,14.6025391H47.0123024z M45.2217751,11.1569805c-0.9746094-3.1367188-1.5234375-4.9101562-1.6459961-5.3212891
		c-0.1230469-0.4111328-0.2104492-0.7363281-0.2636719-0.9755859c-0.21875,0.8496094-0.8457031,2.9482422-1.8798828,6.296875
		H45.2217751z"/>
	<path class="st0" d="M62.2115211,7.1979961c0,1.5654297-0.4892578,2.7617188-1.4672852,3.5908203
		s-2.3691406,1.2441406-4.1728516,1.2441406h-1.3227539v5.171875h-3.0839844V2.6618633h4.6455078
		c1.7641602,0,3.1049805,0.3798828,4.0239258,1.1396484C61.7525368,4.5603008,62.2115211,5.6931133,62.2115211,7.1979961z
		 M55.2486305,9.5056133h1.0146484c0.9482422,0,1.6577148-0.1875,2.128418-0.5615234
		c0.4711914-0.375,0.706543-0.9199219,0.706543-1.6367188c0-0.7226562-0.1972656-1.2568359-0.5917969-1.6015625
		c-0.3950195-0.3447266-1.0131836-0.5166016-1.8554688-0.5166016h-1.4023438V9.5056133z"/>
	<path class="st0" d="M73.8599625,17.2048321l-1.0541992-3.4609375h-5.3017578l-1.0546875,3.4609375h-3.3222694L68.2598648,2.602293
		h3.7700195l5.152832,14.6025391H73.8599625z M72.0694351,11.1569805c-0.9746094-3.1367188-1.5234375-4.9101562-1.6459961-5.3212891
		c-0.1230469-0.4111328-0.2104492-0.7363281-0.2636719-0.9755859c-0.21875,0.8496094-0.8457031,2.9482422-1.8798828,6.296875
		H72.0694351z"/>
	<path class="st0" d="M88.2037125,2.6618633v2.546875h-6.1074219v11.9960938h-3.0839844V2.6618633H88.2037125z"/>
	<path class="st0" d="M99.6334,2.6618633v2.546875h-6.1074219v11.9960938h-3.0839844V2.6618633H99.6334z"/>
	<path class="st0" d="M110.2471695,17.2048321h-8.3759766V2.6618633h8.3759766v2.5273438h-5.2919922v3.1923828h4.9238281v2.5273438
		h-4.9238281v3.75h5.2919922V17.2048321z"/>
	<path class="st0" d="M118.0757828,5.2487774c-0.0795898,0.4111328-0.2041016,0.984375-0.3730469,1.7207031
		c-0.1694336,0.7363281-0.296875,1.2402344-0.3833008,1.5117188l-2.7553711,8.7236328h-3.1132812l4.934082-14.5429688h3.3618164
		l4.9443359,14.5429688h-3.1137695l-2.7158203-8.7431641c-0.0664062-0.1923828-0.1987305-0.6865234-0.3979492-1.4824219
		C118.2647476,6.1833477,118.1353531,5.6061993,118.0757828,5.2487774z"/>
	<path class="st0" d="M126.5196304,17.2048321V2.6618633h3.0839767v14.5429688H126.5196304z"/>
	<path class="st0" d="M142.1680603,17.2048321l-1.0546875-3.4609375h-5.3017578l-1.0546875,3.4609375h-3.3222656
		l5.1328125-14.6025391h3.7695312l5.1533203,14.6025391H142.1680603z M140.3770447,11.1569805
		c-0.9746094-3.1367188-1.5234375-4.9101562-1.6464844-5.3212891c-0.1220703-0.4111328-0.2099609-0.7363281-0.2626953-0.9755859
		c-0.2197266,0.8496094-0.8457031,2.9482422-1.8808594,6.296875H140.3770447z"/>
	<path class="st0" d="M158.7686462,17.2048321l-3.5009766-11.4091797h-0.0898438
		c0.1259766,2.3212891,0.1894531,3.8691406,0.1894531,4.6455078v6.7636719h-2.7558594V2.6618633h4.1982422l3.4414062,11.1210938
		h0.0595703l3.6503906-11.1210938h4.1982422v14.5429688h-2.875v-6.8828125c0-0.3251953,0.0048828-0.7001953,0.0146484-1.1240234
		c0.0107422-0.4248047,0.0556641-1.5527344,0.1347656-3.3828125h-0.0898438l-3.75,11.3896484H158.7686462z"/>
	<path class="st0" d="M185.0205994,9.9138165c0,2.4072266-0.5966797,4.2578125-1.7900391,5.5507812
		c-1.1943359,1.2929688-2.9052734,1.9394531-5.1328125,1.9394531c-2.2285156,0-3.9394531-0.6464844-5.1328125-1.9394531
		c-1.1943359-1.2929688-1.7910156-3.1503906-1.7910156-5.5703125c0-2.4208984,0.5986328-4.2695312,1.7958984-5.5458984
		c1.1962891-1.2763672,2.9121094-1.9150391,5.1474609-1.9150391c2.234375,0,3.9443359,0.6435547,5.1279297,1.9296875
		C184.4288025,5.6501446,185.0205994,7.499754,185.0205994,9.9138165z M174.4073181,9.9138165
		c0,1.625,0.3076172,2.8486328,0.9248047,3.6708984c0.6162109,0.8222656,1.5380859,1.2333984,2.765625,1.2333984
		c2.4599609,0,3.6904297-1.6347656,3.6904297-4.9042969c0-3.2763672-1.2236328-4.9140625-3.6708984-4.9140625
		c-1.2265625,0-2.1523438,0.4130859-2.7753906,1.2382812C174.7188416,7.0642071,174.4073181,8.2888165,174.4073181,9.9138165z"/>
	<path class="st0" d="M192.5606384,8.6501446l3.0341797-5.9882812h3.3222656l-4.8242188,8.8828125v5.6601562h-3.0644531v-5.5605469
		l-4.8242188-8.9824219h3.3427734L192.5606384,8.6501446z"/>
</g>
</svg>
