<svg id="icon2" version="1.1" xmlns="http://www.w3.org/2000/svg" xmlns:xlink="http://www.w3.org/1999/xlink" x="0px" y="0px" width="481px" height="458.7px" viewBox="0 0 481 458.7" style="enable-background:new 0 0 481 458.7;height: 110px;width: 120px;height: 100px;" xml:space="preserve">
<style type="text/css">
	#icon2 .st0{fill:url(#SVGID_1_);}
	#icon2 .st1{fill:url(#SVGID_2_);}
	#icon2 .st2{fill:url(#SVGID_3_);}
	#icon2 .st3{fill:url(#SVGID_4_);}
	#icon2 .st4{fill:url(#SVGID_5_);}
	#icon2 .st5{fill:url(#SVGID_6_);}
	#icon2 .st6{fill:url(#SVGID_7_);}
	#icon2 .st7{fill:url(#SVGID_8_);}
	#icon2 .st8{fill:url(#SVGID_9_);}
	#icon2 .st9{fill:url(#SVGID_10_);}
	#icon2 .st10{fill:url(#SVGID_11_);}
	#icon2 .st11{fill:url(#SVGID_12_);}
	#icon2 .st12{fill:url(#SVGID_13_);}
	#icon2 .st13{fill:url(#SVGID_14_);}
	#icon2 .st14{fill:url(#SVGID_15_);}
	#icon2 .st15{fill:url(#SVGID_16_);}
	#icon2 .st16{fill:url(#SVGID_17_);}
	#icon2 .st17{fill:url(#SVGID_18_);}
	#icon2 .st18{fill:url(#SVGID_19_);}
	#icon2 .st19{fill:url(#SVGID_20_);}
	#icon2 .st20{fill:url(#SVGID_21_);}
	#icon2 .st21{fill:url(#SVGID_22_);}
	#icon2 .st22{fill:url(#SVGID_23_);}
	#icon2 .st23{fill:url(#SVGID_24_);}
	#icon2 .st24{fill:url(#SVGID_25_);}
	#icon2 .st25{fill:url(#SVGID_26_);}
	#icon2 .st26{fill:url(#SVGID_27_);}
	#icon2 .st27{fill:url(#SVGID_28_);}
	#icon2 .st28{fill:url(#SVGID_29_);}
	#icon2 .st29{fill:url(#SVGID_30_);}
	#icon2 .st30{fill:url(#SVGID_31_);}
	#icon2 .st31{fill:url(#SVGID_32_);}
	#icon2 .st32{fill:url(#SVGID_33_);}
	#icon2 .st33{fill:url(#SVGID_34_);}
	#icon2 .st34{fill:url(#SVGID_35_);}
	#icon2 .st35{fill:url(#SVGID_36_);}
	#icon2 .st36{fill:url(#SVGID_37_);}
	#icon2 .st37{fill:url(#SVGID_38_);}
	#icon2 .st38{fill:url(#SVGID_39_);}
	#icon2 .st39{fill:url(#SVGID_40_);}
	#icon2 .st40{fill:url(#SVGID_41_);}
	#icon2 .st41{fill:url(#SVGID_42_);}
	#icon2 .st42{fill:url(#SVGID_43_);}
	#icon2 .st43{fill:url(#SVGID_44_);}
	#icon2 .st44{fill:url(#SVGID_45_);}
	#icon2 .st45{fill:url(#SVGID_46_);}
	#icon2 .st46{fill:url(#SVGID_47_);}
	#icon2 .st47{fill:url(#SVGID_48_);}
	#icon2 .st48{fill:url(#SVGID_49_);}
	#icon2 .st49{fill:url(#SVGID_50_);}
	#icon2 .st50{fill:url(#SVGID_51_);}
	#icon2 .st51{fill:url(#SVGID_52_);}
</style>
<defs>
</defs>
<g id="wrfwwf_1_">
	
		<linearGradient id="SVGID_1_" gradientUnits="userSpaceOnUse" x1="240.4999" y1="433.583" x2="240.4999" y2="74.076" gradientTransform="matrix(1 0 0 -1 0 482)">
		<stop offset="0" style="stop-color:#63B2AA"></stop>
		<stop offset="1" style="stop-color:#2A93C0"></stop>
	</linearGradient>
	<path class="st0" d="M240.5,224c-13.3,0-24-10.7-24-24c0-13.3,10.7-24,24-24s24,10.7,24,24c0,6.4-2.5,12.5-7,17
		C253,221.5,246.9,224,240.5,224z M240.5,192c-4.4,0-8,3.6-8,8c0,4.4,3.6,8,8,8c2.1,0,4.2-0.8,5.7-2.3c3.1-3.1,3.1-8.2,0-11.3
		C244.7,192.8,242.6,192,240.5,192z"></path>
	
		<linearGradient id="SVGID_2_" gradientUnits="userSpaceOnUse" x1="297.1894" y1="433.2076" x2="297.1894" y2="73.7005" gradientTransform="matrix(0.9997 0 0 -0.9997 -8.162880e-02 481.5152)">
		<stop offset="0" style="stop-color:#63B2AA"></stop>
		<stop offset="1" style="stop-color:#2A93C0"></stop>
	</linearGradient>
	<path class="st1" d="M246.1,183l90.5-90.5l11.3,11.3l-90.5,90.5L246.1,183z"></path>
	
		<linearGradient id="SVGID_3_" gradientUnits="userSpaceOnUse" x1="241.4935" y1="433.583" x2="241.4935" y2="74.076" gradientTransform="matrix(1 0 0 -1 0 482)">
		<stop offset="0" style="stop-color:#63B2AA"></stop>
		<stop offset="1" style="stop-color:#2A93C0"></stop>
	</linearGradient>
	<path class="st2" d="M297.1,143.4c-30.6-30.6-80-31.3-111.5-1.6l-11-11.6c37.8-35.7,97-34.8,133.8,1.9L297.1,143.4z"></path>
	
		<linearGradient id="SVGID_4_" gradientUnits="userSpaceOnUse" x1="234.556" y1="433.583" x2="234.556" y2="74.076" gradientTransform="matrix(1 0 0 -1 0 482)">
		<stop offset="0" style="stop-color:#63B2AA"></stop>
		<stop offset="1" style="stop-color:#2A93C0"></stop>
	</linearGradient>
	<path class="st3" d="M150.9,132.8l-12.8-9.6c42.4-56.6,122.6-68,179.2-25.6c4.8,3.6,9.4,7.6,13.7,11.9l-11.3,11.3
		c-43.7-43.7-114.7-43.7-158.4,0C157.6,124.6,154.1,128.6,150.9,132.8L150.9,132.8z"></path>
	
		<linearGradient id="SVGID_5_" gradientUnits="userSpaceOnUse" x1="246.6325" y1="433.583" x2="246.6325" y2="74.076" gradientTransform="matrix(1 0 0 -1 0 482)">
		<stop offset="0" style="stop-color:#63B2AA"></stop>
		<stop offset="1" style="stop-color:#2A93C0"></stop>
	</linearGradient>
	<path class="st4" d="M274.4,166.1c-15.6-15.6-39.8-18.6-58.7-7.2l-8.3-13.7c25.2-15.1,57.5-11.2,78.2,9.6L274.4,166.1z"></path>
	<g>
		
			<linearGradient id="SVGID_6_" gradientUnits="userSpaceOnUse" x1="240.5" y1="433.583" x2="240.5" y2="74.076" gradientTransform="matrix(1 0 0 -1 0 482)">
			<stop offset="0" style="stop-color:#63B2AA"></stop>
			<stop offset="1" style="stop-color:#2A93C0"></stop>
		</linearGradient>
		<path class="st5" d="M448.5,296h-416c-17.7,0-32-14.3-32-32v-16c0-4.4,3.6-8,8-8h136c1.2,0,2.5,0.3,3.6,0.8l14.3,7.2h156.2
			l14.3-7.2c1.1-0.6,2.3-0.8,3.6-0.8h136c4.4,0,8,3.6,8,8v16C480.5,281.7,466.2,296,448.5,296L448.5,296z M16.5,256v8
			c0,8.8,7.2,16,16,16h416c8.8,0,16-7.2,16-16v-8H338.4l-14.3,7.2c-1.1,0.6-2.3,0.8-3.6,0.8h-160c-1.2,0-2.5-0.3-3.6-0.8l-14.3-7.2
			H16.5z"></path>
		
			<linearGradient id="SVGID_7_" gradientUnits="userSpaceOnUse" x1="240.5" y1="433.583" x2="240.5" y2="74.076" gradientTransform="matrix(1 0 0 -1 0 482)">
			<stop offset="0" style="stop-color:#63B2AA"></stop>
			<stop offset="1" style="stop-color:#2A93C0"></stop>
		</linearGradient>
		<path class="st6" d="M456.5,248h-16V32c0-8.8-7.2-16-16-16h-368c-8.8,0-16,7.2-16,16v216h-16V32c0-17.7,14.3-32,32-32h368
			c17.7,0,32,14.3,32,32V248z"></path>
		
			<linearGradient id="SVGID_8_" gradientUnits="userSpaceOnUse" x1="240.5" y1="433.583" x2="240.5" y2="74.076" gradientTransform="matrix(1 0 0 -1 0 482)">
			<stop offset="0" style="stop-color:#63B2AA"></stop>
			<stop offset="1" style="stop-color:#2A93C0"></stop>
		</linearGradient>
		<path class="st7" d="M424.5,224h-16V48h-336v176h-16V40c0-4.4,3.6-8,8-8h352c4.4,0,8,3.6,8,8V224z"></path>
	</g>
	
		<linearGradient id="SVGID_9_" gradientUnits="userSpaceOnUse" x1="184.5" y1="433.583" x2="184.5" y2="74.076" gradientTransform="matrix(1 0 0 -1 0 482)">
		<stop offset="0" style="stop-color:#63B2AA"></stop>
		<stop offset="1" style="stop-color:#2A93C0"></stop>
	</linearGradient>
	<path class="st8" d="M176.5,312h16v32h-16V312z"></path>
	
		<linearGradient id="SVGID_10_" gradientUnits="userSpaceOnUse" x1="320.5" y1="433.583" x2="320.5" y2="74.076" gradientTransform="matrix(1 0 0 -1 0 482)">
		<stop offset="0" style="stop-color:#63B2AA"></stop>
		<stop offset="1" style="stop-color:#2A93C0"></stop>
	</linearGradient>
	<path class="st9" d="M312.5,312h16v32h-16V312z"></path>
	
		<linearGradient id="SVGID_11_" gradientUnits="userSpaceOnUse" x1="248.5" y1="433.583" x2="248.5" y2="74.076" gradientTransform="matrix(1 0 0 -1 0 482)">
		<stop offset="0" style="stop-color:#63B2AA"></stop>
		<stop offset="1" style="stop-color:#2A93C0"></stop>
	</linearGradient>
	<path class="st10" d="M240.5,432h16v24h-16V432z"></path>
	
		<linearGradient id="SVGID_12_" gradientUnits="userSpaceOnUse" x1="239.5609" y1="433.583" x2="239.5609" y2="74.076" gradientTransform="matrix(1 0 0 -1 0 482)">
		<stop offset="0" style="stop-color:#63B2AA"></stop>
		<stop offset="1" style="stop-color:#2A93C0"></stop>
	</linearGradient>
	<path class="st11" d="M227,352c-11,0-21.8,3.2-31,9.3l8.9,13.3c18.4-12.2,43.2-7.2,55.5,11.2c4.3,6.6,6.7,14.2,6.7,22.1
		c0,2.2-0.2,4.5-0.6,6.7l15.8,2.6c5.1-30.5-15.5-59.4-46-64.5C233.2,352.3,230.1,352,227,352L227,352z"></path>
	
		<linearGradient id="SVGID_13_" gradientUnits="userSpaceOnUse" x1="160.5" y1="433.583" x2="160.5" y2="74.076" gradientTransform="matrix(1 0 0 -1 0 482)">
		<stop offset="0" style="stop-color:#63B2AA"></stop>
		<stop offset="1" style="stop-color:#2A93C0"></stop>
	</linearGradient>
	<path class="st12" d="M160.5,416c-23.7,0-44.9,15-52.8,37.3l15.1,5.3c7.4-20.8,30.2-31.7,51.1-24.4c11.4,4,20.3,13,24.4,24.4
		l15.1-5.3C205.4,431,184.2,416,160.5,416L160.5,416z"></path>
	
		<linearGradient id="SVGID_14_" gradientUnits="userSpaceOnUse" x1="347.2315" y1="433.583" x2="347.2315" y2="74.076" gradientTransform="matrix(1 0 0 -1 0 482)">
		<stop offset="0" style="stop-color:#63B2AA"></stop>
		<stop offset="1" style="stop-color:#2A93C0"></stop>
	</linearGradient>
	<path class="st13" d="M347.2,416c-23.7,0-44.9,15-52.8,37.3l15.1,5.3c7.4-20.8,30.2-31.7,51.1-24.4c11.4,4,20.3,13,24.4,24.4
		l15.1-5.3C392.1,431,371,416,347.2,416L347.2,416z"></path>
	
		<linearGradient id="SVGID_15_" gradientUnits="userSpaceOnUse" x1="66.253" y1="433.583" x2="66.253" y2="74.076" gradientTransform="matrix(1 0 0 -1 0 482)">
		<stop offset="0" style="stop-color:#63B2AA"></stop>
		<stop offset="1" style="stop-color:#2A93C0"></stop>
	</linearGradient>
	<path class="st14" d="M104.5,376c7,0,13.9,1.8,20,5.3l8-13.9c-6.2-3.6-13-5.9-20-6.9V312h-16v48.6c-24.6,3.6-43.8,22.9-47.4,47.4
		h-0.6c-20,0-38.5,10.7-48.5,28l13.8,8c11.1-19.1,35.5-25.7,54.7-14.6c2.4,1.4,4.6,3,6.7,4.8l10.7-11.9c-6-5.4-13.2-9.4-20.9-11.8
		C67.7,390.7,84.6,376,104.5,376z"></path>
	
		<linearGradient id="SVGID_16_" gradientUnits="userSpaceOnUse" x1="414.747" y1="433.583" x2="414.747" y2="74.076" gradientTransform="matrix(1 0 0 -1 0 482)">
		<stop offset="0" style="stop-color:#63B2AA"></stop>
		<stop offset="1" style="stop-color:#2A93C0"></stop>
	</linearGradient>
	<path class="st15" d="M431.9,408c-3.6-24.6-22.9-43.8-47.4-47.4V312h-16v48.6c-7,1-13.8,3.4-20,6.9l8,13.9
		c19.1-11,43.6-4.5,54.6,14.7c2.6,4.4,4.2,9.3,5,14.4c-7.8,2.4-14.9,6.4-20.9,11.8l10.7,11.9c5.6-5,12.5-8.4,20-9.6
		c16.5-2.8,33,4.9,41.3,19.4l13.8-8C470.9,418.5,452.1,407.8,431.9,408L431.9,408z"></path>
	
		<linearGradient id="SVGID_17_" gradientUnits="userSpaceOnUse" x1="160.5" y1="433.583" x2="160.5" y2="74.076" gradientTransform="matrix(1 0 0 -1 0 482)">
		<stop offset="0" style="stop-color:#63B2AA"></stop>
		<stop offset="1" style="stop-color:#2A93C0"></stop>
	</linearGradient>
	<path class="st16" d="M152.5,376h16v16h-16V376z"></path>
	
		<linearGradient id="SVGID_18_" gradientUnits="userSpaceOnUse" x1="312.5" y1="433.583" x2="312.5" y2="74.076" gradientTransform="matrix(1 0 0 -1 0 482)">
		<stop offset="0" style="stop-color:#63B2AA"></stop>
		<stop offset="1" style="stop-color:#2A93C0"></stop>
	</linearGradient>
	<path class="st17" d="M304.5,368h16v16h-16V368z"></path>
	
		<linearGradient id="SVGID_19_" gradientUnits="userSpaceOnUse" x1="136.5" y1="433.583" x2="136.5" y2="74.076" gradientTransform="matrix(1 0 0 -1 0 482)">
		<stop offset="0" style="stop-color:#63B2AA"></stop>
		<stop offset="1" style="stop-color:#2A93C0"></stop>
	</linearGradient>
	<path class="st18" d="M128.5,328h16v16h-16V328z"></path>
	
		<linearGradient id="SVGID_20_" gradientUnits="userSpaceOnUse" x1="248.5" y1="433.583" x2="248.5" y2="74.076" gradientTransform="matrix(1 0 0 -1 0 482)">
		<stop offset="0" style="stop-color:#63B2AA"></stop>
		<stop offset="1" style="stop-color:#2A93C0"></stop>
	</linearGradient>
	<path class="st19" d="M240.5,320h16v16h-16V320z"></path>
	
		<linearGradient id="SVGID_21_" gradientUnits="userSpaceOnUse" x1="128.5" y1="433.583" x2="128.5" y2="74.076" gradientTransform="matrix(1 0 0 -1 0 482)">
		<stop offset="0" style="stop-color:#63B2AA"></stop>
		<stop offset="1" style="stop-color:#2A93C0"></stop>
	</linearGradient>
	<path class="st20" d="M120.5,192h16v16h-16V192z"></path>
	
		<linearGradient id="SVGID_22_" gradientUnits="userSpaceOnUse" x1="160.5" y1="433.583" x2="160.5" y2="74.076" gradientTransform="matrix(1 0 0 -1 0 482)">
		<stop offset="0" style="stop-color:#63B2AA"></stop>
		<stop offset="1" style="stop-color:#2A93C0"></stop>
	</linearGradient>
	<path class="st21" d="M152.5,192h16v16h-16V192z"></path>
	
		<linearGradient id="SVGID_23_" gradientUnits="userSpaceOnUse" x1="192.5" y1="433.583" x2="192.5" y2="74.076" gradientTransform="matrix(1 0 0 -1 0 482)">
		<stop offset="0" style="stop-color:#63B2AA"></stop>
		<stop offset="1" style="stop-color:#2A93C0"></stop>
	</linearGradient>
	<path class="st22" d="M184.5,192h16v16h-16V192z"></path>
	
		<linearGradient id="SVGID_24_" gradientUnits="userSpaceOnUse" x1="288.5" y1="433.583" x2="288.5" y2="74.076" gradientTransform="matrix(1 0 0 -1 0 482)">
		<stop offset="0" style="stop-color:#63B2AA"></stop>
		<stop offset="1" style="stop-color:#2A93C0"></stop>
	</linearGradient>
	<path class="st23" d="M280.5,192h16v16h-16V192z"></path>
	
		<linearGradient id="SVGID_25_" gradientUnits="userSpaceOnUse" x1="320.5" y1="433.583" x2="320.5" y2="74.076" gradientTransform="matrix(1 0 0 -1 0 482)">
		<stop offset="0" style="stop-color:#63B2AA"></stop>
		<stop offset="1" style="stop-color:#2A93C0"></stop>
	</linearGradient>
	<path class="st24" d="M312.5,192h16v16h-16V192z"></path>
	
		<linearGradient id="SVGID_26_" gradientUnits="userSpaceOnUse" x1="352.5" y1="433.583" x2="352.5" y2="74.076" gradientTransform="matrix(1 0 0 -1 0 482)">
		<stop offset="0" style="stop-color:#63B2AA"></stop>
		<stop offset="1" style="stop-color:#2A93C0"></stop>
	</linearGradient>
	<path class="st25" d="M344.5,192h16v16h-16V192z"></path>
</g>
</svg>