<?xml version="1.0" encoding="utf-8"?>
<!-- Generator: Adobe Illustrator 24.0.0, SVG Export Plug-In . SVG Version: 6.00 Build 0)  -->
<svg version="1.1" id="Layer_1" xmlns="http://www.w3.org/2000/svg" xmlns:xlink="http://www.w3.org/1999/xlink" x="0px" y="0px"
	 viewBox="0 0 140.8872833 36.5794983" style="enable-background:new 0 0 140.8872833 36.5794983;" xml:space="preserve">
<style type="text/css">
	.st0{fill:#CDE0F4;}
	.st1{fill:#53B266;}
	.st2{fill:none;}
	.st3{enable-background:new    ;}
	.st4{fill:#FFFFFF;}
</style>
<g>
	<polygon class="st0" points="21.0943851,36.5794983 140.8872833,36.5794983 140.8872833,5.1659999 7.3800845,5.1659999 	"/>
	<polygon class="st1" points="13.7142849,31.4134007 133.5071869,31.4134007 133.5071869,0 0,0 	"/>
	<rect x="20.1641846" y="9.0122995" class="st2" width="105.4974976" height="15.9041014"/>
	<g class="st3">
		<path class="st4" d="M39.9545898,19.9169922h-2.7602539l-4.4555664-7.7480469h-0.0629883
			c0.0883789,1.3681641,0.1328125,2.3447266,0.1328125,2.9277344v4.8203125h-1.9404297V9.6748047h2.7392578l4.4487305,7.6708984
			h0.0488281C38.0351562,16.0146484,38,15.0732422,38,14.5224609V9.6748047h1.9545898V19.9169922z"/>
		<path class="st4" d="M45.909668,20.0566406c-1.2612305,0-2.246582-0.3476562-2.956543-1.0429688
			c-0.7099609-0.6962891-1.0649414-1.6816406-1.0649414-2.9570312c0-1.3125,0.328125-2.3271484,0.984375-3.0439453
			S44.4360352,11.9375,45.5942383,11.9375c1.1069336,0,1.96875,0.3154297,2.5849609,0.9453125
			c0.6166992,0.6308594,0.9248047,1.5019531,0.9248047,2.6132812v1.0371094h-5.0512695
			c0.0234375,0.6074219,0.2036133,1.0810547,0.5395508,1.421875c0.3364258,0.3408203,0.8081055,0.5117188,1.4155273,0.5117188
			c0.4716797,0,0.9174805-0.0488281,1.3378906-0.1474609c0.4204102-0.0976562,0.859375-0.2539062,1.3168945-0.46875v1.6533203
			c-0.3735352,0.1865234-0.7729492,0.3251953-1.1977539,0.4169922
			C47.0395508,20.0117188,46.5214844,20.0566406,45.909668,20.0566406z M45.6083984,13.4580078
			c-0.453125,0-0.8081055,0.1435547-1.0649414,0.4306641s-0.4042969,0.6943359-0.4414062,1.2226562h2.9985352
			c-0.0092773-0.5283203-0.1474609-0.9355469-0.4135742-1.2226562S46.0610352,13.4580078,45.6083984,13.4580078z"/>
		<path class="st4" d="M57.2797852,19.9169922l-0.6025391-2.7392578l-0.8125-3.4609375H55.815918l-1.4291992,6.2001953h-2.2978516
			l-2.2280273-7.8320312h2.1298828l0.9038086,3.4677734c0.1445312,0.6210938,0.2915039,1.4775391,0.440918,2.5703125h0.0424805
			c0.0185547-0.3544922,0.1000977-0.9169922,0.2451172-1.6875l0.1118164-0.5957031l0.9667969-3.7548828h2.3540039
			l0.9179688,3.7548828c0.0185547,0.1025391,0.0478516,0.2548828,0.0874023,0.4550781
			c0.0395508,0.2011719,0.078125,0.4150391,0.1157227,0.640625c0.0371094,0.2275391,0.0712891,0.4492188,0.1015625,0.6660156
			s0.0478516,0.3916016,0.0522461,0.5214844h0.0424805c0.0419922-0.3359375,0.1166992-0.796875,0.2241211-1.3828125
			c0.1074219-0.5869141,0.184082-0.9824219,0.230957-1.1875l0.9389648-3.4677734h2.0947266l-2.2558594,7.8320312H57.2797852z"/>
		<path class="st4" d="M72.3144531,17.5908203c0,0.8037109-0.2792969,1.4150391-0.8378906,1.8359375
			c-0.5576172,0.4199219-1.3925781,0.6298828-2.5039062,0.6298828c-0.5698242,0-1.0556641-0.0380859-1.4570312-0.1152344
			c-0.4018555-0.0771484-0.777832-0.1904297-1.1279297-0.3398438v-1.765625c0.3969727,0.1875,0.8442383,0.34375,1.3413086,0.4697266
			c0.4975586,0.1259766,0.9355469,0.1894531,1.3139648,0.1894531c0.7749023,0,1.1625977-0.2246094,1.1625977-0.6728516
			c0-0.1679688-0.0512695-0.3046875-0.1538086-0.4101562c-0.1030273-0.1044922-0.2802734-0.2236328-0.5327148-0.3574219
			c-0.2519531-0.1328125-0.5883789-0.2880859-1.0087891-0.4658203c-0.6025391-0.2519531-1.0449219-0.4853516-1.3276367-0.7001953
			s-0.487793-0.4609375-0.6162109-0.7392578c-0.1289062-0.2773438-0.1928711-0.6201172-0.1928711-1.0263672
			c0-0.6953125,0.2695312-1.234375,0.809082-1.6142578C67.722168,12.1279297,68.4868164,11.9375,69.4770508,11.9375
			c0.9433594,0,1.8608398,0.2050781,2.753418,0.6162109l-0.6445312,1.5410156
			c-0.3925781-0.1679688-0.7592773-0.3056641-1.1000977-0.4130859s-0.6889648-0.1611328-1.0439453-0.1611328
			c-0.6303711,0-0.9458008,0.1708984-0.9458008,0.5117188c0,0.1914062,0.1015625,0.3574219,0.3051758,0.4970703
			c0.203125,0.140625,0.6479492,0.3486328,1.3344727,0.6240234c0.6118164,0.2470703,1.0595703,0.4785156,1.3447266,0.6933594
			s0.4951172,0.4619141,0.6308594,0.7421875C72.2460938,16.8691406,72.3144531,17.203125,72.3144531,17.5908203z"/>
		<path class="st4" d="M77.5263672,20.0566406c-1.2607422,0-2.2460938-0.3476562-2.9560547-1.0429688
			c-0.7099609-0.6962891-1.0654297-1.6816406-1.0654297-2.9570312c0-1.3125,0.328125-2.3271484,0.984375-3.0439453
			S76.0527344,11.9375,77.2109375,11.9375c1.1074219,0,1.96875,0.3154297,2.5849609,0.9453125
			c0.6171875,0.6308594,0.9248047,1.5019531,0.9248047,2.6132812v1.0371094h-5.0507812
			c0.0234375,0.6074219,0.203125,1.0810547,0.5390625,1.421875c0.3369141,0.3408203,0.8085938,0.5117188,1.4160156,0.5117188
			c0.4716797,0,0.9169922-0.0488281,1.3378906-0.1474609c0.4199219-0.0976562,0.859375-0.2539062,1.3164062-0.46875v1.6533203
			c-0.3730469,0.1865234-0.7724609,0.3251953-1.1972656,0.4169922C78.65625,20.0117188,78.1386719,20.0566406,77.5263672,20.0566406
			z M77.2255859,13.4580078c-0.453125,0-0.8085938,0.1435547-1.0654297,0.4306641s-0.4042969,0.6943359-0.4414062,1.2226562
			h2.9990234c-0.0097656-0.5283203-0.1474609-0.9355469-0.4140625-1.2226562
			C78.0380859,13.6015625,77.6777344,13.4580078,77.2255859,13.4580078z"/>
		<path class="st4" d="M86.8300781,11.9375c0.2900391,0,0.5302734,0.0205078,0.7216797,0.0625l-0.1611328,2.0039062
			c-0.1728516-0.046875-0.3828125-0.0703125-0.6308594-0.0703125c-0.6816406,0-1.2128906,0.1757812-1.59375,0.5263672
			c-0.3808594,0.3496094-0.5703125,0.8398438-0.5703125,1.4707031v3.9863281h-2.1367188v-7.8320312h1.6181641l0.3154297,1.3164062
			h0.1044922c0.2431641-0.4384766,0.5712891-0.7929688,0.984375-1.0615234S86.3447266,11.9375,86.8300781,11.9375z"/>
		<path class="st4" d="M90.8369141,19.9169922l-2.984375-7.8320312h2.2353516l1.5126953,4.4619141
			c0.1679688,0.5654297,0.2734375,1.1005859,0.3154297,1.6044922h0.0419922
			c0.0234375-0.4482422,0.1289062-0.9833984,0.3154297-1.6044922l1.5058594-4.4619141h2.2353516l-2.984375,7.8320312H90.8369141z"/>
		<path class="st4" d="M97.0439453,10.0595703c0-0.6953125,0.3876953-1.0439453,1.1630859-1.0439453
			s1.1630859,0.3486328,1.1630859,1.0439453c0,0.3320312-0.0966797,0.5898438-0.2910156,0.7744141
			c-0.1933594,0.1845703-0.484375,0.2763672-0.8720703,0.2763672
			C97.4316406,11.1103516,97.0439453,10.7607422,97.0439453,10.0595703z M99.2724609,19.9169922h-2.1367188v-7.8320312h2.1367188
			V19.9169922z"/>
		<path class="st4" d="M104.6953125,20.0566406c-2.4384766,0-3.6572266-1.3378906-3.6572266-4.0136719
			c0-1.3310547,0.3310547-2.3486328,0.9941406-3.0507812c0.6640625-0.703125,1.6142578-1.0546875,2.8515625-1.0546875
			c0.90625,0,1.71875,0.1777344,2.4384766,0.5322266l-0.6308594,1.6533203
			c-0.3359375-0.1347656-0.6494141-0.2460938-0.9384766-0.3330078c-0.2900391-0.0859375-0.5791016-0.1289062-0.8691406-0.1289062
			c-1.1113281,0-1.6669922,0.7890625-1.6669922,2.3671875c0,1.5322266,0.5556641,2.2988281,1.6669922,2.2988281
			c0.4111328,0,0.7919922-0.0556641,1.1425781-0.1650391c0.3496094-0.109375,0.7001953-0.28125,1.0507812-0.5146484v1.828125
			c-0.3457031,0.2197266-0.6953125,0.3710938-1.0478516,0.4550781S105.2314453,20.0566406,104.6953125,20.0566406z"/>
		<path class="st4" d="M112.4365234,20.0566406c-1.2617188,0-2.2470703-0.3476562-2.9570312-1.0429688
			c-0.7099609-0.6962891-1.0644531-1.6816406-1.0644531-2.9570312c0-1.3125,0.328125-2.3271484,0.984375-3.0439453
			s1.5634766-1.0751953,2.7216797-1.0751953c1.1064453,0,1.96875,0.3154297,2.5849609,0.9453125
			c0.6162109,0.6308594,0.9248047,1.5019531,0.9248047,2.6132812v1.0371094h-5.0517578
			c0.0234375,0.6074219,0.2041016,1.0810547,0.5400391,1.421875s0.8076172,0.5117188,1.4150391,0.5117188
			c0.4716797,0,0.9179688-0.0488281,1.3378906-0.1474609c0.4208984-0.0976562,0.859375-0.2539062,1.3173828-0.46875v1.6533203
			c-0.3740234,0.1865234-0.7734375,0.3251953-1.1982422,0.4169922
			C113.5664062,20.0117188,113.0478516,20.0566406,112.4365234,20.0566406z M112.1347656,13.4580078
			c-0.453125,0-0.8076172,0.1435547-1.0644531,0.4306641s-0.4042969,0.6943359-0.4414062,1.2226562h2.9980469
			c-0.0087891-0.5283203-0.1474609-0.9355469-0.4130859-1.2226562
			C112.9472656,13.6015625,112.5878906,13.4580078,112.1347656,13.4580078z"/>
	</g>
</g>
</svg>
