<?xml version="1.0" encoding="utf-8"?>
<!-- Generator: Adobe Illustrator 24.0.0, SVG Export Plug-In . SVG Version: 6.00 Build 0)  -->
<svg version="1.1" id="Layer_1" xmlns="http://www.w3.org/2000/svg" xmlns:xlink="http://www.w3.org/1999/xlink" x="0px" y="0px"
	 viewBox="0 0 140.8872833 36.5794983" style="enable-background:new 0 0 140.8872833 36.5794983;" xml:space="preserve">
<style type="text/css">
	.st0{fill:#CDE0F4;}
	.st1{fill:#53B266;}
	.st2{fill:#FFFFFF;}
</style>
<g>
	<polygon class="st0" points="21.0943851,36.5794983 140.8872833,36.5794983 140.8872833,5.1659999 7.3800845,5.1659999 	"/>
	<polygon class="st1" points="13.7142849,31.4134007 133.5071869,31.4134007 133.5071869,0 0,0 	"/>
	<g>
		<path class="st2" d="M31.6631393,19.9167175h-2.7602539l-4.4555664-7.7485352h-0.0629883
			c0.0883789,1.3686523,0.1328125,2.3447266,0.1328125,2.9287109v4.8198242h-1.9404297V9.6740417h2.7392578l4.4487305,7.6713867
			H29.81353c-0.0698242-1.3310547-0.1049805-2.2719727-0.1049805-2.8232422V9.6740417h1.9545898V19.9167175z"/>
		<path class="st2" d="M38.8369675,15.0968933v1.4780273h-1.1767578c-0.6821289,0-1.1948242,0.0761719-1.5380859,0.2275391
			c-0.3432617,0.1518555-0.5146484,0.3959961-0.5146484,0.7324219c0,0.5839844,0.6254883,0.8754883,1.8774414,0.8754883
			c0.480957,0,0.9785156-0.0522461,1.4921875-0.1577148c0.5136719-0.1049805,0.9785156-0.2529297,1.394043-0.4448242v1.7094727
			c-0.8032227,0.3598633-1.8168945,0.5395508-3.0405273,0.5395508c-1.2421875,0-2.1914062-0.1928711-2.8476562-0.578125
			s-0.984375-0.9609375-0.984375-1.7265625c0-0.5,0.1494141-0.90625,0.4482422-1.2192383s0.784668-0.534668,1.4575195-0.6655273
			v-0.0703125c-0.9951172-0.2285156-1.4921875-0.8310547-1.4921875-1.8071289c0-0.6586914,0.2963867-1.1655273,0.8896484-1.5205078
			c0.5927734-0.3549805,1.4360352-0.5322266,2.5288086-0.5322266c0.5371094,0,1.0776367,0.0537109,1.6220703,0.1611328
			c0.5439453,0.1074219,1.0214844,0.25,1.4326172,0.4272461l-0.6586914,1.5483398
			c-0.5556641-0.2241211-0.9946289-0.3725586-1.3168945-0.4448242s-0.6630859-0.1088867-1.0229492-0.1088867
			c-0.527832,0-0.9199219,0.0585938-1.1767578,0.175293s-0.3852539,0.3012695-0.3852539,0.5537109
			c0,0.3081055,0.1552734,0.5263672,0.4658203,0.6547852s0.7998047,0.1928711,1.4677734,0.1928711H38.8369675z
			 M36.5112839,11.0055847c0.0839844-0.2524414,0.1879883-0.6352539,0.3115234-1.1489258
			c0.1240234-0.5141602,0.2114258-0.9667969,0.2626953-1.359375h1.9829102v0.1679688
			c-0.3642578,0.8691406-0.8012695,1.7211914-1.3100586,2.5571289h-1.2470703V11.0055847z"/>
		<path class="st2" d="M44.6304245,20.0568542c-0.9575195,0-1.7080078-0.3549805-2.2519531-1.0649414
			c-0.5444336-0.7099609-0.8164062-1.6977539-0.8164062-2.9633789c0-1.2983398,0.2836914-2.3027344,0.8510742-3.0126953
			c0.5673828-0.7094727,1.3603516-1.0644531,2.378418-1.0644531c0.5512695,0,1.0053711,0.0976562,1.362793,0.2939453
			s0.652832,0.4902344,0.8862305,0.8828125h0.1049805c0.1123047-0.4389648,0.2685547-0.7871094,0.4697266-1.0439453h1.7651367
			c-0.1494141,0.453125-0.2695312,0.9726562-0.3608398,1.559082c-0.0908203,0.5859375-0.1367188,1.1220703-0.1367188,1.6074219
			v2.1860352c0,0.5512695,0.1962891,0.8266602,0.5888672,0.8266602c0.1494141,0,0.2871094-0.0234375,0.4130859-0.0703125v1.6816406
			c-0.074707,0.0463867-0.2182617,0.0888672-0.4306641,0.1259766c-0.2128906,0.0375977-0.3886719,0.0561523-0.5288086,0.0561523
			c-0.5234375,0-0.9228516-0.0898438-1.1982422-0.2695312c-0.2753906-0.1801758-0.4926758-0.4799805-0.6513672-0.9003906h-0.1474609
			C46.4146042,19.6667175,45.6484909,20.0568542,44.6304245,20.0568542z M45.28228,18.3542175
			c0.5507812,0,0.9516602-0.1665039,1.2011719-0.5004883c0.25-0.3339844,0.3842773-0.9189453,0.402832-1.7553711v-0.0839844
			c0-0.840332-0.1293945-1.4428711-0.3886719-1.8071289c-0.2592773-0.3647461-0.6762695-0.546875-1.2504883-0.546875
			c-1.0043945,0-1.5063477,0.7944336-1.5063477,2.3823242c0,0.7705078,0.125,1.3486328,0.375,1.7338867
			C44.3652878,18.1618347,44.7544479,18.3542175,45.28228,18.3542175z"/>
		<path class="st2" d="M58.5303268,20.0426941c-1.2099609,0-2.1123047-0.3022461-2.7080078-0.9072266
			c-0.5952148-0.6044922-0.8930664-1.5351562-0.8930664-2.7915039V12.084198h2.1435547v4.3295898
			c0,0.6821289,0.1225586,1.1733398,0.3676758,1.4746094c0.2456055,0.3012695,0.6342773,0.4521484,1.1665039,0.4521484
			c0.5839844,0,1.0087891-0.2172852,1.2753906-0.6518555c0.2661133-0.434082,0.3989258-1.1254883,0.3989258-2.0737305
			c0-0.4995117-0.0327148-0.9990234-0.0976562-1.4990234c-0.0654297-0.4995117-0.1987305-1.1767578-0.3994141-2.0317383h2.1508789
			c0.1865234,0.7333984,0.3139648,1.3764648,0.3818359,1.9301758c0.0673828,0.5532227,0.1015625,1.105957,0.1015625,1.6567383
			c0,1.4667969-0.3188477,2.5620117-0.956543,3.2856445C60.8242722,19.6808777,59.8472214,20.0426941,58.5303268,20.0426941z"/>
		<path class="st2" d="M72.2891159,18.3825378c0.3129883,0,0.6166992-0.081543,0.9106445-0.2451172v1.5341797
			c-0.1914062,0.1166992-0.4355469,0.2099609-0.7319336,0.2802734c-0.2963867,0.0698242-0.5708008,0.1049805-0.8232422,0.1049805
			c-0.7006836,0-1.234375-0.1914062-1.6005859-0.574707c-0.3666992-0.3828125-0.550293-0.9550781-0.550293-1.7163086v-4.0493164
			H67.12603v6.2001953h-2.1367188v-6.2001953H63.356987v-0.9174805l1.2470703-0.7148438h8.6801758v1.6323242h-1.6538086v3.965332
			c0,0.2382812,0.0634766,0.4145508,0.1894531,0.5288086C71.9458542,18.3254089,72.1021042,18.3825378,72.2891159,18.3825378z"/>
		<path class="st2" d="M82.1323776,23.3634949h-2.1367188v-8.0214844c0-0.5649414-0.1005859-0.9887695-0.3012695-1.2714844
			c-0.2011719-0.2827148-0.5209961-0.4238281-0.9599609-0.4238281c-0.5981445,0-1.0297852,0.199707-1.2958984,0.5986328
			c-0.2666016,0.3994141-0.3994141,1.0615234-0.3994141,1.9863281v3.6850586h-2.1367188V12.084198h1.6323242l0.2871094,1.0019531
			h0.1191406c0.2382812-0.378418,0.5664062-0.6645508,0.984375-0.8583984s0.8930664-0.2905273,1.4257812-0.2905273
			c0.9106445,0,1.6015625,0.2460938,2.0732422,0.7392578c0.4716797,0.4926758,0.7080078,1.2036133,0.7080078,2.1328125V23.3634949z"
			/>
		<path class="st2" d="M91.4356003,16.0007019c0,1.2749023-0.2861328,2.2695312-0.8579102,2.984375
			c-0.5722656,0.7143555-1.3676758,1.0717773-2.3857422,1.0717773c-0.7192383,0-1.3754883-0.1796875-1.9682617-0.5395508h-0.1264648
			c0.074707,0.8032227,0.1123047,1.4291992,0.1123047,1.8774414v1.96875h-2.1508789v-7.3769531
			c0-1.2841797,0.3232422-2.2802734,0.9702148-2.987793c0.6469727-0.7080078,1.565918-1.0615234,2.7568359-1.0615234
			c0.7241211,0,1.3613281,0.1645508,1.9125977,0.4936523c0.5512695,0.3295898,0.9785156,0.8022461,1.2822266,1.4189453
			C91.2837448,14.4660339,91.4356003,15.1833191,91.4356003,16.0007019z M87.7437057,13.6603699
			c-0.527832,0-0.9155273,0.1787109-1.1630859,0.5361328s-0.3710938,0.9213867-0.3710938,1.6918945v1.8496094
			c0.2006836,0.2006836,0.4365234,0.3515625,0.7075195,0.4516602c0.2709961,0.1005859,0.5463867,0.1508789,0.8266602,0.1508789
			c0.5322266,0,0.9140625-0.1835938,1.1455078-0.550293c0.230957-0.3662109,0.3466797-0.9628906,0.3466797-1.7895508
			c0-0.8222656-0.1132812-1.4174805-0.3398438-1.7866211S88.2856979,13.6603699,87.7437057,13.6603699z"/>
		<path class="st2" d="M97.9648972,15.0968933v1.4780273h-1.1767578c-0.6821289,0-1.1948242,0.0761719-1.5380859,0.2275391
			c-0.3432617,0.1518555-0.5146484,0.3959961-0.5146484,0.7324219c0,0.5839844,0.6254883,0.8754883,1.8774414,0.8754883
			c0.480957,0,0.9785156-0.0522461,1.4921875-0.1577148c0.5136719-0.1049805,0.9785156-0.2529297,1.394043-0.4448242v1.7094727
			c-0.8032227,0.3598633-1.8168945,0.5395508-3.0405273,0.5395508c-1.2421875,0-2.1914062-0.1928711-2.8476562-0.578125
			s-0.984375-0.9609375-0.984375-1.7265625c0-0.5,0.1494141-0.90625,0.4482422-1.2192383s0.784668-0.534668,1.4575195-0.6655273
			v-0.0703125c-0.9951172-0.2285156-1.4921875-0.8310547-1.4921875-1.8071289c0-0.6586914,0.2963867-1.1655273,0.8896484-1.5205078
			c0.5927734-0.3549805,1.4360352-0.5322266,2.5288086-0.5322266c0.5371094,0,1.0776367,0.0537109,1.6220703,0.1611328
			c0.5439453,0.1074219,1.0214844,0.25,1.4326172,0.4272461l-0.6586914,1.5483398
			c-0.5556641-0.2241211-0.9946289-0.3725586-1.3168945-0.4448242s-0.6630859-0.1088867-1.0229492-0.1088867
			c-0.527832,0-0.9199219,0.0585938-1.1767578,0.175293s-0.3852539,0.3012695-0.3852539,0.5537109
			c0,0.3081055,0.1552734,0.5263672,0.4658203,0.6547852s0.7998047,0.1928711,1.4677734,0.1928711H97.9648972z"/>
		<path class="st2" d="M108.3965378,16.5890808c0,0.6816406-0.1577148,1.2880859-0.4731445,1.8178711
			c-0.3154297,0.5302734-0.7661133,0.9375-1.3520508,1.2226562c-0.5864258,0.284668-1.269043,0.4272461-2.0493164,0.4272461
			c-1.2143555,0-2.1567383-0.3515625-2.8266602-1.0541992c-0.6704102-0.703125-1.0053711-1.6708984-1.0053711-2.9042969
			c0-2.6850586,1.4736328-4.0283203,4.4204102-4.0283203h4.0146484v1.5625h-1.9897461
			C107.9761276,14.5197449,108.3965378,15.5055847,108.3965378,16.5890808z M102.8897018,16.0983582
			c0,0.7290039,0.1391602,1.284668,0.4169922,1.6674805c0.277832,0.3833008,0.6923828,0.574707,1.2436523,0.574707
			c0.5415039,0,0.9526367-0.1787109,1.2329102-0.5361328s0.4204102-0.8720703,0.4204102-1.5449219
			c0-0.5180664-0.0688477-0.9887695-0.2070312-1.4116211c-0.1376953-0.4223633-0.3652344-0.8276367-0.6826172-1.215332h-0.3505859
			c-0.7563477,0-1.2915039,0.1914062-1.6040039,0.574707C103.0464401,14.5900574,102.8897018,15.2204285,102.8897018,16.0983582z"/>
		<path class="st2" d="M112.6699753,12.084198v5.3803711c0,0.3037109,0.0849609,0.527832,0.2548828,0.6728516
			c0.1708984,0.1445312,0.3964844,0.2167969,0.6767578,0.2167969c0.3779297,0,0.8291016-0.081543,1.3525391-0.2451172v1.590332
			c-0.5097656,0.2382812-1.1240234,0.3574219-1.8427734,0.3574219c-0.8876953,0-1.5390625-0.2158203-1.9545898-0.6479492
			c-0.4160156-0.4321289-0.6235352-1.0800781-0.6235352-1.9443359V12.084198H112.6699753z M111.0093307,11.0055847
			c0.0839844-0.2524414,0.1879883-0.6352539,0.3120117-1.1489258c0.1235352-0.5141602,0.2109375-0.9667969,0.2626953-1.359375
			h1.9824219v0.1679688c-0.3642578,0.8691406-0.8007812,1.7211914-1.3100586,2.5571289h-1.2470703V11.0055847z"/>
		<path class="st2" d="M118.9678268,20.0568542c-0.9570312,0-1.7080078-0.3549805-2.2519531-1.0649414
			s-0.8164062-1.6977539-0.8164062-2.9633789c0-1.2983398,0.2841797-2.3027344,0.8515625-3.0126953
			c0.5673828-0.7094727,1.359375-1.0644531,2.3779297-1.0644531c0.5507812,0,1.0058594,0.0976562,1.3632812,0.2939453
			c0.3564453,0.1962891,0.6523438,0.4902344,0.8857422,0.8828125h0.1054688
			c0.1113281-0.4389648,0.2685547-0.7871094,0.46875-1.0439453h1.765625
			c-0.1494141,0.453125-0.2695312,0.9726562-0.3603516,1.559082c-0.0917969,0.5859375-0.1367188,1.1220703-0.1367188,1.6074219
			v2.1860352c0,0.5512695,0.1962891,0.8266602,0.5878906,0.8266602c0.1494141,0,0.2871094-0.0234375,0.4140625-0.0703125v1.6816406
			c-0.0751953,0.0463867-0.21875,0.0888672-0.4316406,0.1259766c-0.2119141,0.0375977-0.3886719,0.0561523-0.5283203,0.0561523
			c-0.5234375,0-0.9228516-0.0898438-1.1982422-0.2695312c-0.2753906-0.1801758-0.4931641-0.4799805-0.6513672-0.9003906h-0.1474609
			C120.7520065,19.6667175,119.9863815,20.0568542,118.9678268,20.0568542z M119.619194,18.3542175
			c0.5517578,0,0.9521484-0.1665039,1.2021484-0.5004883c0.2490234-0.3339844,0.3837891-0.9189453,0.4023438-1.7553711v-0.0839844
			c0-0.840332-0.1298828-1.4428711-0.3886719-1.8071289c-0.2587891-0.3647461-0.6757812-0.546875-1.2509766-0.546875
			c-1.0039062,0-1.5058594,0.7944336-1.5058594,2.3823242c0,0.7705078,0.125,1.3486328,0.375,1.7338867
			S119.0918503,18.3542175,119.619194,18.3542175z"/>
	</g>
</g>
</svg>
