<!-- Generator: Adobe Illustrator 24.0.0, SVG Export Plug-In  -->
<svg version="1.1" xmlns="http://www.w3.org/2000/svg" xmlns:xlink="http://www.w3.org/1999/xlink" x="0px" y="0px"
	 width="313.1012268px" height="86.5235672px" viewBox="0 0 313.1012268 86.5235672"
	 style="enable-background:new 0 0 313.1012268 86.5235672;" xml:space="preserve">
<style type="text/css">
	.st0{fill:url(#SVGID_1_);}
	.st1{fill:url(#SVGID_2_);}
	.st2{fill:url(#SVGID_3_);}
	.st3{fill:url(#SVGID_4_);}
	.st4{fill:url(#SVGID_5_);}
	.st5{fill:url(#SVGID_6_);}
	.st6{fill:#F3AB3C;}
	.st7{fill:#FFFFFF;}
	.st8{fill:url(#SVGID_7_);}
	.st9{fill:url(#SVGID_8_);}
	.st10{fill:url(#SVGID_9_);}
	.st11{fill:url(#SVGID_10_);}
	.st12{fill:url(#SVGID_11_);}
	.st13{fill:url(#SVGID_12_);}
</style>
<defs>
</defs>
<g>
	<g>
		<linearGradient id="SVGID_1_" gradientUnits="userSpaceOnUse" x1="-5.3321524" y1="32.5910759" x2="317.7516174" y2="4.3249097">
			<stop  offset="0.2335754" style="stop-color:#ECF7FF"/>
			<stop  offset="1" style="stop-color:#F7EFFE"/>
		</linearGradient>
		<path class="st0" d="M51.2245331,24.6405525c1.0366707-7.0434132-0.438591-12.9110708-4.425724-17.6035004
			C42.8116074,2.3462145,37.3093224,0,30.2919483,0c-7.4427109,0-13.7626057,2.2598085-18.9586945,6.7783651
			C6.1361046,11.297452,2.9931529,17.2509842,1.9033372,24.6405525L0.3483605,35.0871964
			c-1.0903456,7.0439453,0.3790202,12.9121323,4.4055796,17.6029701c4.0275531,4.6918983,9.5755615,7.0375824,16.6466064,7.0375824
			c7.3895683,0,13.6621513-2.2460251,18.8194122-6.7380753c5.1567268-4.492054,8.306572-10.4598999,9.4495964-17.9024773
			L51.2245331,24.6405525z M37.7878036,24.561039l-1.5549774,10.5261574
			c-0.6379738,4.1464272-2.1600189,7.5623817-4.565073,10.2467995c-2.4061165,2.6854744-5.3097954,4.027153-8.7121639,4.027153
			c-3.6682129,0-6.2795429-1.289196-7.8350496-3.8675957c-1.5544462-2.5778656-1.9999943-6.046299-1.3354502-10.4063568
			l1.5549774-10.5261574c0.6114016-4.1199245,2.1195965-7.5162621,4.525713-10.1874275
			c2.405056-2.6716948,5.3624725-4.0070114,8.8711929-4.0070114c3.5884323,0,6.153511,1.2897282,7.6951714,3.8675957
			C37.9733353,16.8125935,38.4257736,20.2550507,37.7878036,24.561039z"/>
		<linearGradient id="SVGID_2_" gradientUnits="userSpaceOnUse" x1="-4.9226241" y1="37.272007" x2="318.1611328" y2="9.0058384">
			<stop  offset="0.2335754" style="stop-color:#ECF7FF"/>
			<stop  offset="1" style="stop-color:#F7EFFE"/>
		</linearGradient>
		<polygon class="st1" points="92.8903809,0.8375551 80.5700378,20.175005 80.3308334,20.1352482 73.9114761,0.8375551 
			58.4811783,0.8375551 70.8015213,29.6245365 49.3505669,58.8901939 64.9005356,58.8901939 77.779007,38.9150352 
			84.6768417,58.8901939 101.0242081,58.8901939 87.5076981,29.6245365 108.4402771,0.8375551 		"/>
		<linearGradient id="SVGID_3_" gradientUnits="userSpaceOnUse" x1="-4.6058226" y1="40.8930664" x2="318.4779358" y2="12.6268988">
			<stop  offset="0.2335754" style="stop-color:#ECF7FF"/>
			<stop  offset="1" style="stop-color:#F7EFFE"/>
		</linearGradient>
		<polygon class="st2" points="147.315094,0.8375551 131.9246826,26.2753754 131.6854095,26.2356186 123.990242,0.8375551 
			109.3972397,0.8375551 123.232666,37.8384056 120.0828247,58.8901939 133.5195465,58.8901939 136.5497894,38.4761162 
			161.9080963,0.8375551 		"/>
		<linearGradient id="SVGID_4_" gradientUnits="userSpaceOnUse" x1="-4.1303625" y1="46.3275948" x2="318.9533997" y2="18.0614281">
			<stop  offset="0.2335754" style="stop-color:#ECF7FF"/>
			<stop  offset="1" style="stop-color:#F7EFFE"/>
		</linearGradient>
		<path class="st3" d="M187.6651764,0c-6.9642334,0-12.9385681,2.1468976-17.9220276,6.4391022
			c-4.9844513,4.2932653-8.0211182,10.0814075-9.1109314,17.3644257l-1.8340759,12.1206932
			c-1.0632324,6.9644318,0.3987122,12.6730576,4.38591,17.1248207c3.9871216,4.4528275,9.4357452,6.6787071,16.34729,6.6787071
			c5.7947083,0,10.6521301-0.8635292,14.5728607-2.5916481c3.9206848-1.7275925,7.0636292-3.8140564,9.4298553-6.2599297
			l3.4688263-23.0057297h-23.763443l-1.3556519,8.9310951h10.2868805l-1.5549774,10.3665962
			c-0.8771667,0.6647453-2.0935516,1.196434-3.647995,1.5950661c-1.5555115,0.3986359-3.5156097,0.59795-5.8813019,0.59795
			c-3.4555817,0-5.9547272-1.1959-7.4958649-3.5882339c-1.5417175-2.3923302-1.9936218-5.6752281-1.3556519-9.8486938
			l1.8340759-12.2007389c0.5842896-3.9073524,2.0536652-7.1102066,4.4055786-9.6085587
			c2.3529663-2.4983521,5.0440063-3.7483234,8.0742493-3.7483234c3.0833893,0,5.2694397,0.6647425,6.5591736,1.9936991
			c1.2886047,1.3294859,1.7203064,3.4689617,1.2955627,6.419488h12.6791534l0.0797119-0.239603
			c0.9830017-5.6614494-0.239212-10.167284-3.6681519-13.5164433C200.0652313,1.6745801,194.7883606,0,187.6651764,0z"/>
		<linearGradient id="SVGID_5_" gradientUnits="userSpaceOnUse" x1="-3.7526386" y1="50.6450005" x2="319.3311157" y2="22.3788338">
			<stop  offset="0.2335754" style="stop-color:#ECF7FF"/>
			<stop  offset="1" style="stop-color:#F7EFFE"/>
		</linearGradient>
		<polygon class="st4" points="255.6063995,11.204155 257.161377,0.8375551 219.1239166,0.8375551 210.4319,58.8901939 
			248.4295349,58.8901939 249.9845123,48.5235939 225.4634857,48.5235939 227.6165466,34.0503235 248.0706482,34.0503235 
			249.6257019,23.6837254 229.171524,23.6837254 231.0454865,11.204155 		"/>
		<linearGradient id="SVGID_6_" gradientUnits="userSpaceOnUse" x1="-3.3669341" y1="55.0536232" x2="319.7168274" y2="26.7874565">
			<stop  offset="0.2335754" style="stop-color:#ECF7FF"/>
			<stop  offset="1" style="stop-color:#F7EFFE"/>
		</linearGradient>
		<polygon class="st5" points="294.2021179,37.2802124 293.9629211,37.3199692 278.1737366,0.8375551 264.697113,0.8375551 
			256.0050964,58.8901939 269.48172,58.8901939 274.9042969,22.4077797 275.1434937,22.3680229 290.9725647,58.8901939 
			304.4092712,58.8901939 313.1012268,0.8375551 299.6645203,0.8375551 		"/>
	</g>
</g>
<path class="st6" d="M112.3995667,63.8178711h-8.5473022l-3.3512802,22.3828659h5.196022l1.1375885-7.671051h3.3666534
	c2.6849442,0,4.8965149-0.6536102,6.6331177-1.9603043c1.7376633-1.306694,2.780365-3.1026611,3.1286392-5.3879166
	c0.3175278-2.1728745-0.2252884-3.9433975-1.6295242-5.3115845
	C116.9292526,64.5017014,114.9514542,63.8178711,112.3995667,63.8178711z M114.766983,71.2122116
	c-0.1436539,0.9531174-0.5687943,1.7445526-1.2759476,2.3748398s-1.6040726,0.945694-2.6902466,0.945694h-3.3666534
	l1.0146103-6.7179337h3.3512802c1.1375885,0,1.9523468,0.3101044,2.4442825,0.9297943
	C114.7362366,69.3648224,114.9106369,70.1875305,114.766983,71.2122116z"/>
<path class="st7" d="M114.0029144,63.8178711h-8.5473099l-3.3512802,22.3828659h5.196022l1.1375961-7.671051h3.3666534
	c2.6849442,0,4.8965149-0.6536102,6.6331177-1.9603043c1.7376633-1.306694,2.780365-3.1026611,3.1286392-5.3879166
	c0.3175278-2.1728745-0.225296-3.9433975-1.6295242-5.3115845
	C118.5326004,64.5017014,116.5548019,63.8178711,114.0029144,63.8178711z M116.3703308,71.2122116
	c-0.1436615,0.9531174-0.5687943,1.7445526-1.2759476,2.3748398s-1.6040802,0.945694-2.6902466,0.945694h-3.3666534
	l1.0146027-6.7179337h3.3512802c1.1375961,0,1.9523544,0.3101044,2.4442825,0.9297943
	C116.3395844,69.3648224,116.5139847,70.1875305,116.3703308,71.2122116z"/>
<polygon class="st7" points="139.5986938,67.8148117 140.1982422,63.8178711 125.532547,63.8178711 122.1812668,86.200737 
	136.8315887,86.200737 137.4311218,82.2037964 127.9768295,82.2037964 128.8069611,76.6234512 136.6932373,76.6234512 
	137.2927704,72.6265106 129.4065094,72.6265106 130.1290283,67.8148117 "/>
<polygon class="st7" points="148.2997284,63.8178711 143.103714,63.8178711 139.7524261,86.200737 154.5564728,86.200737 
	155.1560211,82.2037964 145.5479889,82.2037964 "/>
<path class="st7" d="M169.3759003,63.8178711l-0.0153656,0.0153732v-0.0153732h-2.782486L155.9246674,86.200737h5.4727325
	l1.9523468-4.3505173h6.6410675l0.6610413,4.3505173h5.4727325l-3.9662018-22.3828659H169.3759003z M165.1329956,77.8532791
	l3.1360626-6.9485245l0.0922394,0.0153732l1.0299835,6.9331512H165.1329956z"/>
<polygon class="st7" points="195.2791443,63.8178711 178.353653,63.8178711 177.7541046,67.8148117 183.5650482,67.8148117 
	180.8133087,86.200737 186.0093231,86.200737 188.7610626,67.8148117 194.6796112,67.8148117 "/>
<path class="st7" d="M206.1170044,63.4950409c-2.8694153,0-5.3062744,0.8709488-7.3100433,2.6133881
	c-2.0032501,1.7424316-3.2150574,4.0377579-3.6354218,6.8870316l-0.5995331,4.0276871
	c-0.4203796,2.7156906,0.1457672,4.9781494,1.6989594,6.78685c1.552124,1.8092194,3.6916046,2.7135696,6.4178925,2.7135696
	c2.8492889,0,5.2675934-0.8661804,7.2559814-2.5980148c1.9884033-1.7318268,3.2028656-4.0329819,3.6433716-6.9024048
	l0.5995483-4.0276871c0.3996887-2.7156906-0.1691132-4.9781494-1.7063904-6.7873764
	C210.9440765,64.3993912,208.8226318,63.4950409,206.1170044,63.4950409z M209.0070953,72.9647141l-0.5995331,4.0584335
	c-0.2459717,1.5987778-0.8327789,2.9155426-1.7604523,3.9508209c-0.9271393,1.0352783-2.0467072,1.5526581-3.3587036,1.5526581
	c-1.4143066,0-2.4214935-0.4972305-3.0205078-1.4911652c-0.6000671-0.9939346-0.771286-2.3313751-0.5152435-4.0123138
	l0.5995331-4.0584335c0.2359009-1.5886993,0.8174133-2.8980484,1.7445526-3.9280243
	c0.9276733-1.0299835,2.0679169-1.5447083,3.4207306-1.5447083c1.3835449,0,2.3727112,0.4972305,2.9669495,1.4911652
	S209.253067,71.304451,209.0070953,72.9647141z"/>
<polygon class="st7" points="223.9187622,63.8178711 218.7227478,63.8178711 215.37146,86.200737 230.1755066,86.200737 
	230.7750549,82.2037964 221.1670227,82.2037964 "/>
<path class="st7" d="M245.0871735,63.4950409c-2.8694153,0-5.3062744,0.8709488-7.3100586,2.6133881
	c-2.0032349,1.7424316-3.2150421,4.0377579-3.6354065,6.8870316l-0.5995483,4.0276871
	c-0.4203644,2.7156906,0.1457825,4.9781494,1.6989746,6.78685c1.552124,1.8092194,3.6916046,2.7135696,6.4178925,2.7135696
	c2.8492737,0,5.2675934-0.8661804,7.2559814-2.5980148c1.9884033-1.7318268,3.2028503-4.0329819,3.6433716-6.9024048
	l0.5995331-4.0276871c0.399704-2.7156906-0.1690979-4.9781494-1.7063751-6.7873764
	C249.9142456,64.3993912,247.7928009,63.4950409,245.0871735,63.4950409z M247.9772644,72.9647141l-0.5995331,4.0584335
	c-0.2459717,1.5987778-0.8327942,2.9155426-1.7604523,3.9508209c-0.9271545,1.0352783-2.0467224,1.5526581-3.3587036,1.5526581
	c-1.4143066,0-2.4214935-0.4972305-3.0205078-1.4911652c-0.6000671-0.9939346-0.771286-2.3313751-0.5152588-4.0123138
	l0.5995483-4.0584335c0.2358856-1.5886993,0.8174133-2.8980484,1.7445526-3.9280243
	c0.9276733-1.0299835,2.0679169-1.5447083,3.4207306-1.5447083c1.3835449,0,2.3727112,0.4972305,2.9669495,1.4911652
	S248.2232361,71.304451,247.9772644,72.9647141z"/>
<path class="st7" d="M266.3631897,63.4950409c-2.6849365,0-4.9882202,0.8274841-6.9103699,2.4824524
	c-1.921051,1.6554947-3.092041,3.887207-3.5124207,6.695137l-0.7071533,4.6733475
	c-0.4097595,2.6849442,0.1537323,4.88591,1.6910095,6.6023712c1.5372925,1.7169876,3.6380615,2.5752182,6.302887,2.5752182
	c2.2343445,0,4.1071777-0.332901,5.6190186-0.9992371c1.511322-0.6663361,2.723114-1.4704895,3.635437-2.4135361
	l1.3374329-8.8701324h-9.1622314l-0.5226746,3.4435196h3.9661865l-0.5995178,3.9969406
	c-0.3382263,0.2560349-0.8068237,0.4611816-1.4068909,0.6149139c-0.598999,0.1537247-1.3549194,0.2305908-2.2672424,0.2305908
	c-1.3321228,0-2.2958374-0.4611893-2.8900757-1.3835602s-0.7686462-2.1882401-0.5226746-3.7970886l0.7071533-4.7040939
	c0.2252808-1.5065384,0.7914124-2.7416687,1.6989441-3.7048569c0.9064636-0.9631882,1.944397-1.4450455,3.1127319-1.4450455
	c1.1890259,0,2.0318909,0.2560349,2.528595,0.7686462c0.4972229,0.5126038,0.6636658,1.3374329,0.4998779,2.4750214h4.8885498
	l0.0307617-0.0922318c0.3789978-2.1829453-0.0922546-3.9200745-1.4143066-5.2113953
	C271.1441345,64.1407013,269.1096191,63.4950409,266.3631897,63.4950409z"/>
<polygon class="st7" points="275.4639282,86.200737 280.6445618,86.200737 283.9958496,63.8178711 278.8151855,63.8178711 "/>
<path class="st7" d="M297.0473938,63.4950409c-2.8694153,0-5.3062744,0.8709488-7.3100586,2.6133881
	c-2.0032349,1.7424316-3.2150269,4.0377579-3.6354065,6.8870316l-0.5995483,4.0276871
	c-0.4203491,2.7156906,0.1457825,4.9781494,1.6989746,6.78685c1.552124,1.8092194,3.6915894,2.7135696,6.4179077,2.7135696
	c2.8492737,0,5.2675781-0.8661804,7.2559814-2.5980148c1.9884033-1.7318268,3.2028503-4.0329819,3.6433411-6.9024048
	l0.5995483-4.0276871c0.3996887-2.7156906-0.1690979-4.9781494-1.7063904-6.7873764
	C301.8744812,64.3993912,299.7530212,63.4950409,297.0473938,63.4950409z M299.9375,72.9647141l-0.5995483,4.0584335
	c-0.2459717,1.5987778-0.8327942,2.9155426-1.7604675,3.9508209c-0.927124,1.0352783-2.0466919,1.5526581-3.3587036,1.5526581
	c-1.4142761,0-2.4214783-0.4972305-3.0204773-1.4911652c-0.6000671-0.9939346-0.7713013-2.3313751-0.5152588-4.0123138
	l0.5995483-4.0584335c0.2358704-1.5886993,0.8173828-2.8980484,1.7445374-3.9280243
	c0.9276733-1.0299835,2.0679016-1.5447083,3.4207153-1.5447083c1.3835754,0,2.3727417,0.4972305,2.96698,1.4911652
	S300.1834717,71.304451,299.9375,72.9647141z"/>
</svg>
