<svg version="1.1" xmlns="http://www.w3.org/2000/svg" xmlns:xlink="http://www.w3.org/1999/xlink" x="0px" y="0px" width="111.5px" height="109.7px" viewBox="0 0 111.5 109.7" style="enable-background:new 0 0 111.5 109.7;height: 110px;" xml:space="preserve">
<style type="text/css">
	.st0{fill:#6CCDEE;}
	.st1{fill:#2B93C0;}
</style>
<defs>
</defs>
<g>
	<g>
		<path class="st0" d="M27,30.6c0-2.5,1.7-4.6,4.1-5.2c0.4-0.1,0.9-0.2,1.3-0.2c3,0,5.4,2.4,5.4,5.4S35.3,36,32.4,36
			c-0.4,0-0.9-0.1-1.3-0.2C28.7,35.2,27,33,27,30.6z"></path>
		<path class="st0" d="M41,43.2c-0.5,2.5-1.4,4.9-2.8,7c0,0.1-0.1,0.1-0.1,0.2c-6,9.2-18.2,11.7-27.4,5.8S-1,37.9,5,28.8
			c2.6-4,6.6-6.9,11.2-8.2v22.6H41z"></path>
		<circle class="st0" cx="79.1" cy="30.6" r="5.4"></circle>
		<path class="st0" d="M109.7,40.5c0,11.4-9.3,20.7-20.7,20.7c-5.2,0-10.1-1.9-13.9-5.4c-0.2-0.2-0.5-0.4-0.7-0.7
			c-3.2-3.2-5.3-7.4-5.9-11.9h26.8V20.8C103.9,23.5,109.7,31.5,109.7,40.5L109.7,40.5z"></path>
		<circle class="st0" cx="79.1" cy="30.6" r="5.4"></circle>
		<path class="st0" d="M85.2,43.2c-2.4,4.9-6.2,9.1-10.8,11.9c-0.4,0.2-0.7,0.4-1.1,0.7c-3.2,1.8-6.7,2.9-10.3,3.4
			c-1.2,0.1-2.4,0.2-3.6,0.2c-7.9,0-15.5-3.2-20.9-9c-0.1-0.1-0.1-0.1-0.2-0.2c-1.9-2.1-3.6-4.4-4.8-7h15.1V19.8
			c0-3-2.4-5.4-5.4-5.4h-7.6c8.9-13.1,26.8-16.5,40-7.6c3,2,5.6,4.6,7.6,7.6H68.3c-3,0-5.4,2.4-5.4,5.4v23.4H85.2z"></path>
	</g>
	<g>
		<path class="st0" d="M16.2,43.2h32.4v28.8H16.2V43.2z"></path>
		<path class="st0" d="M62.9,43.2h32.4v28.8H62.9V43.2z"></path>
		<circle class="st0" cx="79.1" cy="30.6" r="5.4"></circle>
		<circle class="st0" cx="79.1" cy="30.6" r="5.4"></circle>
		<path class="st0" d="M28.8,93.5H36v7.2h-7.2V93.5z"></path>
		<path class="st0" d="M75.5,93.5h7.2v7.2h-7.2V93.5z"></path>
	</g>
	<g>
		<path class="st1" d="M32.4,37.8c4,0,7.2-3.2,7.2-7.2s-3.2-7.2-7.2-7.2s-7.2,3.2-7.2,7.2C25.2,34.5,28.4,37.8,32.4,37.8z M32.4,27
			c2,0,3.6,1.6,3.6,3.6s-1.6,3.6-3.6,3.6c-2,0-3.6-1.6-3.6-3.6C28.8,28.6,30.4,27,32.4,27z"></path>
		<path class="st1" d="M21.6,21.6h1.8c1,0,1.8-0.8,1.8-1.8c0-1-0.8-1.8-1.8-1.8h-1.8c-1,0-1.8,0.8-1.8,1.8
			C19.8,20.8,20.6,21.6,21.6,21.6z"></path>
		<path class="st1" d="M41.4,21.6h1.8c1,0,1.8-0.8,1.8-1.8c0-1-0.8-1.8-1.8-1.8h-1.8c-1,0-1.8,0.8-1.8,1.8
			C39.6,20.8,40.4,21.6,41.4,21.6z"></path>
		<path class="st1" d="M23.4,75.5h-1.8c-1,0-1.8,0.8-1.8,1.8s0.8,1.8,1.8,1.8h1.8c1,0,1.8-0.8,1.8-1.8S24.4,75.5,23.4,75.5z"></path>
		<path class="st1" d="M41.4,79.1h1.8c1,0,1.8-0.8,1.8-1.8s-0.8-1.8-1.8-1.8h-1.8c-1,0-1.8,0.8-1.8,1.8S40.4,79.1,41.4,79.1z"></path>
		<path class="st1" d="M21.6,52.1h21.6c1,0,1.8-0.8,1.8-1.8s-0.8-1.8-1.8-1.8H21.6c-1,0-1.8,0.8-1.8,1.8S20.6,52.1,21.6,52.1z"></path>
		<path class="st1" d="M43.2,53.9H21.6c-1,0-1.8,0.8-1.8,1.8s0.8,1.8,1.8,1.8h21.6c1,0,1.8-0.8,1.8-1.8S44.2,53.9,43.2,53.9z"></path>
		<path class="st1" d="M39.6,59.3H25.2c-1,0-1.8,0.8-1.8,1.8s0.8,1.8,1.8,1.8h14.4c1,0,1.8-0.8,1.8-1.8S40.6,59.3,39.6,59.3z"></path>
		<path class="st1" d="M97.1,19.5c-0.2-3.9-3.3-6.9-7.2-6.9h-5.9C74.1-1.1,55-4.1,41.4,5.8c-2.6,1.9-4.9,4.2-6.7,6.7h-13
			c-3.7,0-6.9,2.9-7.2,6.6C3.2,23.2-2.7,35.5,1.2,46.7c2.2,6.2,7,11,13.2,13.2v17.4c0,4,3.2,7.2,7.2,7.2h9v7.2h-1.8
			c-1,0-1.8,0.8-1.8,1.8v5.4h-9c-1,0-1.8,0.8-1.8,1.8v1.8H1.8c-1,0-1.8,0.8-1.8,1.8c0,1,0.8,1.8,1.8,1.8h14.4v1.8
			c0,1,0.8,1.8,1.8,1.8h28.8c1,0,1.8-0.8,1.8-1.8v-1.8h14.4v1.8c0,1,0.8,1.8,1.8,1.8h28.8c1,0,1.8-0.8,1.8-1.8v-1.8h7.2
			c1,0,1.8-0.8,1.8-1.8c0-1-0.8-1.8-1.8-1.8h-7.2v-1.8c0-1-0.8-1.8-1.8-1.8h-9v-5.4c0-1-0.8-1.8-1.8-1.8h-1.8v-7.2h9
			c4,0,7.2-3.2,7.2-7.2V61.1h0.4c0.3,0,0.5-0.1,0.7-0.2c8.1-3.6,13.3-11.7,13.3-20.5C111.5,31.2,105.8,22.8,97.1,19.5L97.1,19.5z
			 M14.4,56c-9.1-4-13.3-14.6-9.3-23.7c1.8-4.2,5.1-7.5,9.3-9.3V56z M59.3,3.6c7.7,0,15,3.3,20.1,9H68.3c-4,0-7.2,3.2-7.2,7.2v37.8
			H50.4V19.8c0-4-3.2-7.2-7.2-7.2h-3.9C44.4,6.9,51.7,3.6,59.3,3.6z M18,19.8c0-2,1.6-3.6,3.6-3.6h21.6c2,0,3.6,1.6,3.6,3.6v21.6H18
			V19.8z M18,45h28.8v25.2H18V45z M21.6,80.9c-2,0-3.6-1.6-3.6-3.6v-3.6h28.8v3.6c0,2-1.6,3.6-3.6,3.6H21.6z M30.6,95.3h3.6v3.6
			h-3.6V95.3z M45,106.1H19.8v-3.6H45V106.1z M62.9,100.7v1.8H48.6v-1.8c0-1-0.8-1.8-1.8-1.8h-9v-5.4c0-1-0.8-1.8-1.8-1.8h-1.8v-7.2
			h9c4,0,7.2-3.2,7.2-7.2V61.1h10.8v16.2c0,4,3.2,7.2,7.2,7.2h9v7.2h-1.8c-1,0-1.8,0.8-1.8,1.8v5.4h-9
			C63.7,98.9,62.9,99.7,62.9,100.7z M80.9,95.3v3.6h-3.6v-3.6H80.9z M91.7,102.5v3.6H66.5v-3.6H91.7z M93.5,77.3
			c0,2-1.6,3.6-3.6,3.6H68.3c-2,0-3.6-1.6-3.6-3.6v-3.6h28.8V77.3z M93.5,70.1H64.7V45h28.8V70.1z M93.5,41.4H64.7V19.8
			c0-2,1.6-3.6,3.6-3.6h21.6c2,0,3.6,1.6,3.6,3.6V41.4z M105.6,49.5c-1.9,3.5-4.9,6.3-8.5,8V23.4c9.4,4.5,13.4,15.7,9,25.2
			C105.9,48.9,105.8,49.2,105.6,49.5z"></path>
		<path class="st1" d="M79.1,23.4c-4,0-7.2,3.2-7.2,7.2s3.2,7.2,7.2,7.2s7.2-3.2,7.2-7.2C86.3,26.6,83.1,23.4,79.1,23.4z M79.1,34.2
			c-2,0-3.6-1.6-3.6-3.6s1.6-3.6,3.6-3.6s3.6,1.6,3.6,3.6C82.7,32.6,81.1,34.2,79.1,34.2z"></path>
		<path class="st1" d="M70.1,18h-1.8c-1,0-1.8,0.8-1.8,1.8c0,1,0.8,1.8,1.8,1.8h1.8c1,0,1.8-0.8,1.8-1.8C71.9,18.8,71.1,18,70.1,18z
			"></path>
		<path class="st1" d="M88.1,21.6h1.8c1,0,1.8-0.8,1.8-1.8c0-1-0.8-1.8-1.8-1.8h-1.8c-1,0-1.8,0.8-1.8,1.8
			C86.3,20.8,87.1,21.6,88.1,21.6z"></path>
		<path class="st1" d="M70.1,75.5h-1.8c-1,0-1.8,0.8-1.8,1.8s0.8,1.8,1.8,1.8h1.8c1,0,1.8-0.8,1.8-1.8S71.1,75.5,70.1,75.5z"></path>
		<path class="st1" d="M89.9,75.5h-1.8c-1,0-1.8,0.8-1.8,1.8s0.8,1.8,1.8,1.8h1.8c1,0,1.8-0.8,1.8-1.8S90.9,75.5,89.9,75.5z"></path>
		<path class="st1" d="M68.3,52.1h21.6c1,0,1.8-0.8,1.8-1.8s-0.8-1.8-1.8-1.8H68.3c-1,0-1.8,0.8-1.8,1.8S67.3,52.1,68.3,52.1z"></path>
		<path class="st1" d="M89.9,53.9H68.3c-1,0-1.8,0.8-1.8,1.8s0.8,1.8,1.8,1.8h21.6c1,0,1.8-0.8,1.8-1.8S90.9,53.9,89.9,53.9z"></path>
		<path class="st1" d="M86.3,59.3H71.9c-1,0-1.8,0.8-1.8,1.8s0.8,1.8,1.8,1.8h14.4c1,0,1.8-0.8,1.8-1.8S87.3,59.3,86.3,59.3z"></path>
		<path class="st1" d="M109.7,102.5h-1.8c-1,0-1.8,0.8-1.8,1.8c0,1,0.8,1.8,1.8,1.8h1.8c1,0,1.8-0.8,1.8-1.8
			C111.5,103.3,110.7,102.5,109.7,102.5z"></path>
	</g>
</g>
</svg>