<?xml version="1.0" encoding="utf-8"?>
<!-- Generator: Adobe Illustrator 24.0.0, SVG Export Plug-In . SVG Version: 6.00 Build 0)  -->
<svg version="1.1" id="Layer_1" xmlns="http://www.w3.org/2000/svg" xmlns:xlink="http://www.w3.org/1999/xlink" x="0px" y="0px"
	 viewBox="0 0 512 512" style="enable-background:new 0 0 512 512;" xml:space="preserve">
<style type="text/css">
	.st0{fill:#60CAEF;}
	.st1{fill:#2A93C0;}
</style>
<g>
	<g>
		<path class="st0" d="M240,432h32v32h-32V432z"/>
		<path class="st0" d="M240,16h32v32h-32V16z"/>
		<circle class="st0" cx="112" cy="192" r="16"/>
		<circle class="st0" cx="168" cy="192" r="16"/>
		<circle class="st0" cx="112" cy="96" r="16"/>
		<circle class="st0" cx="168" cy="96" r="16"/>
		<circle class="st0" cx="112" cy="288" r="16"/>
		<circle class="st0" cx="168" cy="288" r="16"/>
	</g>
	<g>
		<path class="st1" d="M464,472H328v-8c0-4.4-3.6-8-8-8h-40v-24c0-4.4-3.6-8-8-8h-8v-80h160c17.7,0,32-14.3,32-32v-48
			c0-9.2-4-17.9-10.9-24c6.9-6.1,10.9-14.8,10.9-24v-48c0-9.2-4-17.9-10.9-24c6.9-6.1,10.9-14.8,10.9-24V72c0-17.7-14.3-32-32-32
			H280V16c0-4.4-3.6-8-8-8h-32c-4.4,0-8,3.6-8,8v24H88c-17.7,0-32,14.3-32,32v48c0,9.2,4,17.9,10.9,24C60,150.1,56,158.8,56,168v48
			c0,9.2,4,17.9,10.9,24C60,246.1,56,254.8,56,264v48c0,17.7,14.3,32,32,32h160v80h-8c-4.4,0-8,3.6-8,8v24h-40c-4.4,0-8,3.6-8,8v8
			H16c-4.4,0-8,3.6-8,8s3.6,8,8,8h168v8c0,4.4,3.6,8,8,8h128c4.4,0,8-3.6,8-8v-8h136c4.4,0,8-3.6,8-8S468.4,472,464,472z M248,24h16
			v16h-16V24z M72,72c0-8.8,7.2-16,16-16h336c8.8,0,16,7.2,16,16v48c0,8.8-7.2,16-16,16H88c-8.8,0-16-7.2-16-16V72z M72,168
			c0-8.8,7.2-16,16-16h336c8.8,0,16,7.2,16,16v48c0,8.8-7.2,16-16,16H88c-8.8,0-16-7.2-16-16V168z M88,328c-8.8,0-16-7.2-16-16v-48
			c0-8.8,7.2-16,16-16h336c8.8,0,16,7.2,16,16v48c0,8.8-7.2,16-16,16H88z M248,440h16v16h-16V440z M312,488H200v-16h112V488z"/>
		<path class="st1" d="M496,472h-8c-4.4,0-8,3.6-8,8s3.6,8,8,8h8c4.4,0,8-3.6,8-8S500.4,472,496,472z"/>
		<path class="st1" d="M112,168c-13.3,0-24,10.7-24,24s10.7,24,24,24s24-10.7,24-24C136,178.8,125.2,168,112,168z M112,200
			c-4.4,0-8-3.6-8-8s3.6-8,8-8s8,3.6,8,8C120,196.4,116.4,200,112,200z"/>
		<path class="st1" d="M168,168c-13.3,0-24,10.7-24,24s10.7,24,24,24s24-10.7,24-24C192,178.8,181.2,168,168,168z M168,200
			c-4.4,0-8-3.6-8-8s3.6-8,8-8s8,3.6,8,8C176,196.4,172.4,200,168,200z"/>
		<path class="st1" d="M424,176c0-4.4-3.6-8-8-8h-96c-4.4,0-8,3.6-8,8s3.6,8,8,8h96C420.4,184,424,180.4,424,176z"/>
		<path class="st1" d="M416,200h-40c-4.4,0-8,3.6-8,8s3.6,8,8,8h40c4.4,0,8-3.6,8-8S420.4,200,416,200z"/>
		<path class="st1" d="M296,168h-8c-4.4,0-8,3.6-8,8s3.6,8,8,8h8c4.4,0,8-3.6,8-8S300.4,168,296,168z"/>
		<path class="st1" d="M112,72c-13.3,0-24,10.7-24,24s10.7,24,24,24s24-10.7,24-24C136,82.8,125.2,72,112,72z M112,104
			c-4.4,0-8-3.6-8-8s3.6-8,8-8s8,3.6,8,8C120,100.4,116.4,104,112,104z"/>
		<path class="st1" d="M168,72c-13.3,0-24,10.7-24,24s10.7,24,24,24s24-10.7,24-24C192,82.8,181.2,72,168,72z M168,104
			c-4.4,0-8-3.6-8-8s3.6-8,8-8s8,3.6,8,8C176,100.4,172.4,104,168,104z"/>
		<path class="st1" d="M424,88c0-4.4-3.6-8-8-8h-96c-4.4,0-8,3.6-8,8s3.6,8,8,8h96C420.4,96,424,92.4,424,88z"/>
		<path class="st1" d="M416,104h-40c-4.4,0-8,3.6-8,8s3.6,8,8,8h40c4.4,0,8-3.6,8-8S420.4,104,416,104z"/>
		<path class="st1" d="M296,80h-8c-4.4,0-8,3.6-8,8s3.6,8,8,8h8c4.4,0,8-3.6,8-8S300.4,80,296,80z"/>
		<path class="st1" d="M112,264c-13.3,0-24,10.7-24,24s10.7,24,24,24s24-10.7,24-24C136,274.8,125.2,264,112,264z M112,296
			c-4.4,0-8-3.6-8-8s3.6-8,8-8s8,3.6,8,8C120,292.4,116.4,296,112,296z"/>
		<path class="st1" d="M168,264c-13.3,0-24,10.7-24,24s10.7,24,24,24s24-10.7,24-24C192,274.8,181.2,264,168,264z M168,296
			c-4.4,0-8-3.6-8-8s3.6-8,8-8s8,3.6,8,8C176,292.4,172.4,296,168,296z"/>
		<path class="st1" d="M320,280h96c4.4,0,8-3.6,8-8s-3.6-8-8-8h-96c-4.4,0-8,3.6-8,8S315.6,280,320,280z"/>
		<path class="st1" d="M416,296h-40c-4.4,0-8,3.6-8,8s3.6,8,8,8h40c4.4,0,8-3.6,8-8S420.4,296,416,296z"/>
		<path class="st1" d="M288,280h8c4.4,0,8-3.6,8-8s-3.6-8-8-8h-8c-4.4,0-8,3.6-8,8S283.6,280,288,280z"/>
	</g>
</g>
<rect x="199.4" y="471.2" class="st0" width="113.1" height="17.3"/>
</svg>
