<?xml version="1.0" encoding="utf-8"?>
<!-- Generator: Adobe Illustrator 24.0.0, SVG Export Plug-In . SVG Version: 6.00 Build 0)  -->
<svg version="1.1" id="Layer_1" xmlns="http://www.w3.org/2000/svg" xmlns:xlink="http://www.w3.org/1999/xlink" x="0px" y="0px"
	 viewBox="0 0 512 512" style="enable-background:new 0 0 512 512;" xml:space="preserve">
<style type="text/css">
	.st0{fill:#60CAEF;}
	.st1{fill:#2A93C0;}
</style>
<g>
	<g>
		<circle class="st0" cx="72" cy="216" r="16"/>
		<circle class="st0" cx="128" cy="216" r="16"/>
		<circle class="st0" cx="184" cy="216" r="16"/>
		<circle class="st0" cx="72" cy="328" r="16"/>
		<circle class="st0" cx="128" cy="328" r="16"/>
		<circle class="st0" cx="184" cy="328" r="16"/>
		<circle class="st0" cx="72" cy="440" r="16"/>
		<circle class="st0" cx="128" cy="440" r="16"/>
		<circle class="st0" cx="184" cy="440" r="16"/>
		<path class="st0" d="M392,16c-48.6,0-88,39.4-88,88s39.4,88,88,88s88-39.4,88-88S440.6,16,392,16z M429.3,152.5L394,136
			l-35.3,16.5l4.8-38.7l-26.6-28.4l38.2-7.3L394,44l18.8,34.1l38.2,7.3l-26.6,28.4L429.3,152.5z"/>
	</g>
	<g>
		<path class="st1" d="M392,8c-53,0-96,42.9-96,95.9c0,16.9,4.4,33.5,12.9,48.1H56c-17.7,0-32,14.3-32,32v64c0,9.2,4,17.9,10.9,24
			C28,278.1,24,286.8,24,296v64c0,9.2,4,17.9,10.9,24C28,390.1,24,398.8,24,408v64c0,17.7,14.3,32,32,32h336c17.7,0,32-14.3,32-32
			v-64c0-9.2-4-17.9-10.9-24c6.9-6.1,10.9-14.8,10.9-24v-64c0-9.2-4-17.9-10.9-24c6.9-6.1,10.9-14.8,10.9-24v-53.5
			c50-17.7,76.2-72.5,58.5-122.5C469,33.6,432.7,8,392,8z M408,472c0,8.8-7.2,16-16,16H56c-8.8,0-16-7.2-16-16v-64
			c0-8.8,7.2-16,16-16h336c8.8,0,16,7.2,16,16V472z M408,360c0,8.8-7.2,16-16,16H56c-8.8,0-16-7.2-16-16v-64c0-8.8,7.2-16,16-16h336
			c8.8,0,16,7.2,16,16V360z M408,248c0,8.8-7.2,16-16,16H56c-8.8,0-16-7.2-16-16v-64c0-8.8,7.2-16,16-16h264.5
			c22,24.6,55,36.1,87.5,30.7V248z M392,184c-44.2,0-80-35.8-80-80s35.8-80,80-80s80,35.8,80,80C471.9,148.2,436.2,183.9,392,184z"
			/>
		<path class="st1" d="M72,192c-13.3,0-24,10.7-24,24s10.7,24,24,24s24-10.7,24-24C96,202.8,85.2,192,72,192z M72,224
			c-4.4,0-8-3.6-8-8s3.6-8,8-8s8,3.6,8,8C80,220.4,76.4,224,72,224z"/>
		<path class="st1" d="M128,192c-13.3,0-24,10.7-24,24s10.7,24,24,24s24-10.7,24-24C152,202.8,141.2,192,128,192z M128,224
			c-4.4,0-8-3.6-8-8s3.6-8,8-8c4.4,0,8,3.6,8,8C136,220.4,132.4,224,128,224z"/>
		<path class="st1" d="M184,192c-13.3,0-24,10.7-24,24s10.7,24,24,24s24-10.7,24-24C208,202.8,197.2,192,184,192z M184,224
			c-4.4,0-8-3.6-8-8s3.6-8,8-8s8,3.6,8,8C192,220.4,188.4,224,184,224z"/>
		<path class="st1" d="M288,208c0,4.4,3.6,8,8,8h96c4.4,0,8-3.6,8-8s-3.6-8-8-8h-96C291.6,200,288,203.6,288,208z"/>
		<path class="st1" d="M392,224h-40c-4.4,0-8,3.6-8,8s3.6,8,8,8h40c4.4,0,8-3.6,8-8S396.4,224,392,224z"/>
		<path class="st1" d="M272,200h-8c-4.4,0-8,3.6-8,8s3.6,8,8,8h8c4.4,0,8-3.6,8-8S276.4,200,272,200z"/>
		<path class="st1" d="M48,328c0,13.3,10.7,24,24,24s24-10.7,24-24s-10.7-24-24-24C58.8,304,48,314.8,48,328z M72,320
			c4.4,0,8,3.6,8,8s-3.6,8-8,8s-8-3.6-8-8C64,323.6,67.6,320,72,320z"/>
		<path class="st1" d="M128,352c13.3,0,24-10.7,24-24s-10.7-24-24-24s-24,10.7-24,24C104,341.2,114.8,352,128,352z M128,320
			c4.4,0,8,3.6,8,8s-3.6,8-8,8c-4.4,0-8-3.6-8-8C120,323.6,123.6,320,128,320z"/>
		<path class="st1" d="M184,352c13.3,0,24-10.7,24-24s-10.7-24-24-24s-24,10.7-24,24C160,341.2,170.8,352,184,352z M184,320
			c4.4,0,8,3.6,8,8s-3.6,8-8,8s-8-3.6-8-8C176,323.6,179.6,320,184,320z"/>
		<path class="st1" d="M296,328h96c4.4,0,8-3.6,8-8s-3.6-8-8-8h-96c-4.4,0-8,3.6-8,8S291.6,328,296,328z"/>
		<path class="st1" d="M392,336h-40c-4.4,0-8,3.6-8,8s3.6,8,8,8h40c4.4,0,8-3.6,8-8S396.4,336,392,336z"/>
		<path class="st1" d="M264,328h8c4.4,0,8-3.6,8-8s-3.6-8-8-8h-8c-4.4,0-8,3.6-8,8S259.6,328,264,328z"/>
		<path class="st1" d="M48,440c0,13.3,10.7,24,24,24s24-10.7,24-24s-10.7-24-24-24l0,0C58.8,416,48,426.8,48,440z M72,432
			c4.4,0,8,3.6,8,8s-3.6,8-8,8s-8-3.6-8-8C64,435.6,67.6,432,72,432z"/>
		<path class="st1" d="M128,464c13.3,0,24-10.7,24-24s-10.7-24-24-24s-24,10.7-24,24C104,453.2,114.8,464,128,464z M128,432
			c4.4,0,8,3.6,8,8s-3.6,8-8,8c-4.4,0-8-3.6-8-8C120,435.6,123.6,432,128,432z"/>
		<path class="st1" d="M184,464c13.3,0,24-10.7,24-24s-10.7-24-24-24s-24,10.7-24,24C160,453.2,170.8,464,184,464z M184,432
			c4.4,0,8,3.6,8,8s-3.6,8-8,8s-8-3.6-8-8C176,435.6,179.6,432,184,432z"/>
		<path class="st1" d="M296,440h96c4.4,0,8-3.6,8-8s-3.6-8-8-8h-96c-4.4,0-8,3.6-8,8S291.6,440,296,440z"/>
		<path class="st1" d="M392,448h-40c-4.4,0-8,3.6-8,8s3.6,8,8,8h40c4.4,0,8-3.6,8-8S396.4,448,392,448z"/>
		<path class="st1" d="M264,440h8c4.4,0,8-3.6,8-8s-3.6-8-8-8h-8c-4.4,0-8,3.6-8,8S259.6,440,264,440z"/>
		<path class="st1" d="M458.7,83c-0.9-2.8-3.2-4.8-6.1-5.4L418,71l-17-30.8c-2.1-3.9-7-5.3-10.9-3.2c-1.3,0.7-2.4,1.8-3.2,3.2
			L370,71l-34.6,6.6c-4.3,0.8-7.2,5-6.4,9.4c0.3,1.5,1,2.9,2,4l24.1,25.7l-4.4,34.9c-0.5,4.4,2.6,8.4,6.9,8.9c1.5,0.2,3-0.1,4.4-0.7
			l31.9-14.9l31.9,14.9c4,1.9,8.8,0.2,10.6-3.8c0.6-1.4,0.9-2.9,0.7-4.4l-4.4-34.9l24.1-25.7C458.9,88.8,459.6,85.8,458.7,83z
			 M418.6,108.4c-1.6,1.7-2.4,4.1-2.1,6.5l3,24.3l-22.1-10.4c-2.2-1-4.6-1-6.8,0l-22.1,10.4l3-24.3c0.3-2.4-0.5-4.7-2.1-6.5
			l-16.7-17.8l24-4.6c2.3-0.5,4.4-1.9,5.5-4L394,60.6L405.8,82c1.1,2.1,3.2,3.5,5.5,4l24,4.6L418.6,108.4z"/>
		<path class="st1" d="M472,176c-4.4,0-8,3.6-8,8v248h-24c-4.4,0-8,3.6-8,8s3.6,8,8,8h32c4.4,0,8-3.6,8-8V184
			C480,179.6,476.4,176,472,176z"/>
		<path class="st1" d="M96,144c4.4,0,8-3.6,8-8V80h176c4.4,0,8-3.6,8-8s-3.6-8-8-8H96c-4.4,0-8,3.6-8,8v64C88,140.4,91.6,144,96,144
			z"/>
	</g>
</g>
</svg>
